<svg width="1000" height="395" viewBox="0 0 1000 395" fill="none" xmlns="http://www.w3.org/2000/svg">
<rect width="1000" height="395" fill="white"/>
<rect x="80" y="38" width="171.242" height="52.8862" rx="26.4431" fill="#3178C6"/>
<path d="M140.436 59.9748H152.882V62.1724H154.663V58.3835H148.013C147.729 57.7962 147.312 57.0953 146.99 56.5649L145.248 56.9816C145.475 57.4174 145.74 57.9099 145.986 58.3835H138.712V62.1724H140.436V59.9748ZM143.05 68.3103C144.338 67.8746 145.551 67.3631 146.687 66.7569C147.9 67.3821 149.188 67.8936 150.609 68.3103H143.05ZM143.239 72.0424V69.769H150.192V72.0424H143.239ZM144.262 62.8354H149.339C148.639 63.5932 147.748 64.2563 146.725 64.8814C145.702 64.2941 144.831 63.65 144.149 62.9302L144.262 62.8354ZM150.817 61.3957L150.533 61.4714H145.532C145.797 61.1494 146.062 60.8463 146.289 60.5053L144.414 60.1453C143.467 61.5662 141.667 63.1385 139.072 64.1994C139.451 64.4836 140 65.1087 140.227 65.5066C141.231 65.033 142.122 64.5025 142.898 63.9342C143.543 64.5973 144.262 65.2035 145.039 65.7529C142.879 66.7758 140.36 67.4768 137.935 67.8746C138.238 68.2724 138.617 68.9734 138.769 69.4281C139.678 69.2576 140.606 69.0492 141.515 68.7839V74.1073H143.239V73.5011H150.192V74.0694H152.011V68.6703C152.768 68.8597 153.545 69.0113 154.341 69.1249C154.587 68.6324 155.099 67.8557 155.477 67.4389C152.901 67.1358 150.495 66.5675 148.43 65.715C149.889 64.7109 151.139 63.5174 152.03 62.1345L150.817 61.3957ZM161.047 64.673C161.066 64.351 161.066 64.0668 161.066 63.7637V61.2441H170.481V64.673H161.047ZM166.238 59.596L167.185 59.3118C166.977 58.573 166.503 57.4742 166.086 56.6217L164.362 57.0764C164.703 57.8531 165.12 58.8571 165.31 59.596H159.247V63.7637C159.247 66.5485 159.02 70.47 156.841 73.179C157.277 73.3685 158.054 73.9179 158.376 74.2399C160.1 72.0803 160.744 69.0113 160.971 66.3212H170.481V67.4389H172.281V59.596H166.238ZM192.551 57.6636H190.865V60.7326H188.478V56.7733H186.792V60.7326H184.576V57.6636H182.966V62.2671H192.551V57.6636ZM177.87 57.3795C178.343 58.232 178.836 59.3876 179.063 60.1643L180.617 59.6149C180.389 58.8761 179.84 57.7584 179.366 56.9248L177.87 57.3795ZM182.378 60.1643H176.07V61.7935H182.378V60.1643ZM178.703 69.1249C178.646 67.3252 178.324 64.692 177.945 62.6081L176.619 62.8544C176.96 64.9004 177.282 67.5905 177.32 69.3712L178.703 69.1249ZM180.73 69.5038C181.147 67.5905 181.583 64.8814 181.886 62.7407L180.37 62.4755C180.2 64.673 179.802 67.8178 179.404 69.8259C178.097 70.129 176.847 70.3942 175.918 70.5837L176.297 72.3265C178.059 71.8908 180.313 71.3225 182.473 70.7731L182.284 69.1439L180.73 69.5038ZM193.158 65.033V63.4606H182.189V65.033H186.565C186.508 65.5445 186.395 66.037 186.3 66.5106H182.7V74.1262H184.292V68.0072H185.656V73.9557H187.02V68.0072H188.441V73.9179H189.823V68.0072H191.244V72.5539C191.244 72.7244 191.187 72.7812 191.036 72.7812C190.884 72.7812 190.468 72.7812 189.994 72.7622C190.183 73.1411 190.392 73.7474 190.449 74.1641C191.263 74.1641 191.832 74.1262 192.267 73.8989C192.684 73.6526 192.779 73.2737 192.779 72.5918V66.5106H188.043C188.232 66.037 188.403 65.5445 188.573 65.033H193.158Z" fill="white"/>
<path d="M288.873 60.402C288.285 59.6253 286.997 58.4129 285.974 57.5793L285.046 58.4318C286.069 59.3033 287.3 60.5725 287.888 61.3871L288.873 60.402ZM292.283 64.4182V65.4791H298.478V64.4182H295.863V62.4859H297.985V61.425H295.863V59.8337H294.708V61.425H292.699V62.4859H294.708V64.4182H292.283ZM296.659 68.0934V70.3667H293.798V68.0934H296.659ZM297.758 71.4276V67.0325H292.699V72.2801H293.798V71.4276H297.758ZM300.448 57.9961H290.275V65.0055C290.275 66.8052 290.199 68.908 289.687 70.8403C289.536 70.5562 289.365 70.1584 289.271 69.8931L287.907 70.9351V63.0732H283.89V64.4182H286.543V70.9351C286.543 71.9202 285.861 72.659 285.482 72.9621C285.728 73.1705 286.183 73.6631 286.353 73.9093C286.618 73.6062 287.073 73.2084 289.574 71.2382C289.29 72.1096 288.93 72.9432 288.399 73.7009C288.683 73.8335 289.195 74.2124 289.422 74.4398C291.26 71.8633 291.525 67.9229 291.525 65.0244V59.2654H299.178V72.7348C299.178 73.0189 299.065 73.1137 298.8 73.1326C298.534 73.1326 297.644 73.1516 296.659 73.0947C296.848 73.4547 297.057 74.0419 297.114 74.4019C298.459 74.4019 299.273 74.3829 299.785 74.1556C300.277 73.9093 300.448 73.5304 300.448 72.7537V57.9961ZM312.212 67.3357V64.1909H317.308V67.3357H312.212ZM306.207 67.3357C306.264 66.6347 306.283 65.9338 306.283 65.3086V64.1909H310.81V67.3357H306.207ZM310.81 59.8337V62.8648H306.283V59.8337H310.81ZM317.308 62.8648H312.212V59.8337H317.308V62.8648ZM318.691 58.4887H304.9V65.3086C304.9 67.9419 304.71 71.2761 302.626 73.6252C302.929 73.7957 303.498 74.2693 303.706 74.5534C305.146 72.9432 305.79 70.7835 306.074 68.6807H310.81V74.2693H312.212V68.6807H317.308V72.5264C317.308 72.8863 317.176 73 316.797 73.0189C316.456 73.0189 315.167 73.0379 313.841 72.9811C314.031 73.3599 314.258 73.9662 314.315 74.345C316.096 74.364 317.194 74.345 317.839 74.1177C318.445 73.8714 318.691 73.4547 318.691 72.5453V58.4887ZM329.426 65.2328C329.918 63.6605 330.373 62.1639 330.808 60.5346H330.884C331.339 62.1449 331.775 63.6605 332.286 65.2328L332.949 67.3546H328.744L329.426 65.2328ZM325.182 73H326.963L328.308 68.7565H333.385L334.711 73H336.568L331.85 59.0949H329.899L325.182 73ZM338.527 73H340.289V67.4872H342.581C345.631 67.4872 347.696 66.1232 347.696 63.1868C347.696 60.1558 345.612 59.0949 342.505 59.0949H338.527V73ZM340.289 66.0664V60.5346H342.278C344.722 60.5346 345.953 61.1788 345.953 63.1868C345.953 65.176 344.797 66.0664 342.354 66.0664H340.289ZM350.497 73H352.258V59.0949H350.497V73ZM375.874 59.1328H371.479C371.214 58.5644 370.816 57.8446 370.437 57.2952L369.13 57.5225C369.433 57.9961 369.755 58.6023 370.002 59.1328H365.682V60.3641H375.874V59.1328ZM369.528 62.9406C369.282 62.3154 368.675 61.3114 368.107 60.5725L367.046 61.0083C367.596 61.766 368.164 62.808 368.41 63.471L369.528 62.9406ZM376.348 63.5278H372.711C373.222 62.789 373.753 61.8229 374.264 60.9514L372.938 60.5915C372.578 61.4629 371.877 62.7132 371.347 63.5278H365.019V64.7592H376.348V63.5278ZM364.659 66.7863L364.451 65.4981L362.784 66.0285V62.2586H364.678V60.9514H362.784V57.1626H361.477V60.9514H359.241V62.2586H361.477V66.4263C360.548 66.7105 359.677 66.9757 358.995 67.1652L359.355 68.5102L361.477 67.8282V72.7727C361.477 73.0189 361.382 73.0947 361.155 73.0947C360.965 73.1137 360.283 73.1137 359.525 73.0758C359.715 73.4547 359.885 74.0419 359.923 74.4019C361.022 74.4208 361.723 74.364 362.159 74.1367C362.594 73.9093 362.784 73.5304 362.784 72.7727V67.4114L364.659 66.7863ZM372.843 68.0366C372.483 69.2301 371.896 70.1773 371.081 70.9351C370.021 70.4994 368.941 70.1205 367.918 69.7984C368.297 69.2869 368.694 68.6618 369.054 68.0366H372.843ZM376.556 68.0366V66.8242H369.736C370.058 66.2369 370.362 65.6496 370.608 65.1002L369.32 64.835C369.054 65.4602 368.713 66.1422 368.334 66.8242H364.773V68.0366H367.615C367.065 68.908 366.497 69.7416 366.004 70.3857C367.236 70.7646 368.581 71.2382 369.869 71.7876C368.562 72.5074 366.819 72.9621 364.489 73.2084C364.716 73.5115 364.981 74.023 365.095 74.4208C367.804 74.023 369.812 73.3978 371.309 72.3938C372.824 73.0947 374.207 73.8335 375.136 74.4966L376.064 73.4168C375.136 72.7727 373.828 72.1096 372.408 71.4845C373.298 70.5941 373.885 69.4574 374.283 68.0366H376.556ZM381.236 70.954V60.5157H392.375V70.954H381.236ZM379.815 59.1138V73.9851H381.236V72.3748H392.375V73.8904H393.871V59.1138H379.815ZM401.013 63.7931C401.771 63.7931 402.453 63.2437 402.453 62.3912C402.453 61.5197 401.771 60.9514 401.013 60.9514C400.256 60.9514 399.593 61.5197 399.593 62.3912C399.593 63.2437 400.256 63.7931 401.013 63.7931ZM401.013 73.0758C401.771 73.0758 402.453 72.5074 402.453 71.655C402.453 70.7835 401.771 70.2341 401.013 70.2341C400.256 70.2341 399.593 70.7835 399.593 71.655C399.593 72.5074 400.256 73.0758 401.013 73.0758Z" fill="#545454"/>
<path d="M417.912 59.5495H421.871V69.609H423.027V58.2803H416.794V69.6658H417.912V59.5495ZM420.507 61.0461H419.352V65.9717C419.352 68.3208 419.143 71.6171 415.998 73.5304C416.264 73.7578 416.624 74.1367 416.794 74.4019C420.09 72.1665 420.507 68.6428 420.507 65.9717V61.0461ZM420.185 70.7835C421.113 71.7876 422.231 73.2273 422.762 74.1177L423.747 73.341C423.216 72.4885 422.061 71.0866 421.151 70.1015L420.185 70.7835ZM430.51 69.9879C430.245 68.8701 429.563 66.9189 428.899 65.4412L427.895 65.7443C428.217 66.4832 428.521 67.3357 428.805 68.1503L425.717 68.7565C426.437 67.1652 427.138 65.1571 427.63 63.2626L426.323 62.8837C425.944 65.0623 425.073 67.4304 424.789 68.0366C424.504 68.6807 424.277 69.0975 423.993 69.1732C424.163 69.5142 424.334 70.1205 424.41 70.4046C424.77 70.1962 425.319 70.0257 429.146 69.2301C429.278 69.6847 429.354 70.0826 429.43 70.4236L430.51 69.9879ZM426.494 60.1368C426.816 59.2654 427.119 58.356 427.365 57.4467L426.02 57.1436C425.414 59.5685 424.391 61.9555 423.121 63.5089C423.443 63.6794 423.993 64.1341 424.239 64.3614C424.845 63.5657 425.433 62.5427 425.963 61.425H431.438C431.211 69.268 430.964 72.1475 430.434 72.7727C430.226 73.0379 430.055 73.0947 429.733 73.0947C429.335 73.0947 428.445 73.0947 427.441 73C427.687 73.3978 427.839 73.9851 427.858 74.4019C428.786 74.4587 429.714 74.4777 430.263 74.4208C430.87 74.3261 431.249 74.1745 431.646 73.6441C432.328 72.7348 432.537 69.7984 432.802 60.8567C432.821 60.6862 432.821 60.1368 432.821 60.1368H426.494ZM449.454 63.0163C450.212 61.9365 451.064 60.2315 451.727 58.716L450.704 58.2992L450.477 58.375H450.212V58.3939H436.345V59.739H449.738C449.302 60.743 448.753 61.7471 448.298 62.448L449.454 63.0163ZM442.861 62.808C442.028 62.1828 440.418 61.3303 439.148 60.8378L438.391 61.785C439.679 62.3344 441.289 63.2437 442.066 63.8878L442.861 62.808ZM440.759 65.4602C439.944 64.8539 438.334 64.0583 437.083 63.5657L436.326 64.5129C437.595 65.0434 439.186 65.8959 439.963 66.521L440.759 65.4602ZM444.244 70.6888C446.745 71.8065 449.284 73.2463 450.837 74.4019L451.727 73.3221C450.136 72.1854 447.465 70.7835 444.964 69.7037L444.244 70.6888ZM444.832 67.2788C445.229 65.4791 445.324 63.3763 445.4 60.8946H443.998C443.922 63.4521 443.847 65.5549 443.43 67.2788H435.511V68.6049H442.975C441.933 70.954 439.811 72.4696 435.246 73.3031C435.511 73.6062 435.852 74.1367 435.985 74.4966C441.119 73.4547 443.411 71.5602 444.434 68.6049H451.86V67.2788H444.832ZM460.631 64.6456C459.76 65.5549 458.453 66.521 457.335 67.2409C457.543 67.4872 457.865 68.0934 457.979 68.3397C459.172 67.5251 460.669 66.2558 461.654 65.1192L460.631 64.6456ZM464.818 68.7944V70.9919H460.309V68.7944H464.818ZM465.992 72.0338V67.7335H459.078V72.9053H460.309V72.0338H465.992ZM468.228 67.2788C467.375 66.54 465.727 65.3465 464.496 64.5129L463.7 65.3465C464.95 66.2369 466.58 67.4683 467.394 68.2639L468.228 67.2788ZM469.819 63.13H465.595C466.087 62.467 466.58 61.6524 467.053 60.8756L465.557 60.5536C465.235 61.3114 464.666 62.3533 464.155 63.13H455.421V74.4208H456.767V64.3046H468.512V72.8674C468.512 73.1705 468.398 73.2463 468.095 73.2652C467.792 73.2842 466.693 73.3031 465.519 73.2652C465.708 73.5683 465.879 74.004 465.955 74.345C467.565 74.345 468.512 74.3261 469.08 74.1556C469.63 73.9472 469.819 73.6252 469.819 72.8863V63.13ZM458.339 60.8567C458.756 61.5576 459.267 62.5049 459.513 63.0542L460.802 62.5427C460.555 61.9934 460.006 61.084 459.608 60.4399L458.339 60.8567ZM463.738 59.1896C463.53 58.5644 463.151 57.7498 462.829 57.0868L461.465 57.4467C461.73 57.9582 461.995 58.6213 462.204 59.1896H454.342V60.402H470.861V59.1896H463.738ZM485.316 62.8837H477.795V59.3033H485.316V62.8837ZM486.736 57.9582H476.431V64.2288H486.736V57.9582ZM478.988 67.5819V72.0717H475.029V67.5819H478.988ZM473.684 74.4587H475.029V73.4357H478.988V74.2882H480.371V66.2179H473.684V74.4587ZM483.8 72.0717V67.5819H488.1V72.0717H483.8ZM482.436 66.2179V74.4587H483.8V73.4357H488.1V74.3261H489.483V66.2179H482.436Z" fill="#3FAE2A"/>
<rect x="126" y="121" width="171.242" height="52.8862" rx="26.4431" fill="#3178C6"/>
<path d="M159.698 143.695H158.315V148.62C158.315 150.95 158.106 154.171 155.037 156.009C155.341 156.274 155.814 156.747 156.004 157.05C159.262 154.872 159.698 151.348 159.698 148.639V143.695ZM159.205 153.451C160.134 154.512 161.251 155.933 161.801 156.823L163.013 155.876C162.464 155.023 161.27 153.622 160.38 152.636L159.205 153.451ZM169.625 152.617C169.378 151.462 168.753 149.549 168.147 148.09L166.916 148.488C167.181 149.17 167.446 149.946 167.673 150.704L165.059 151.216C165.779 149.681 166.461 147.787 166.916 146.025L165.305 145.589C164.945 147.673 164.093 150.003 163.809 150.59C163.543 151.235 163.297 151.632 162.994 151.708C163.184 152.125 163.43 152.883 163.525 153.205C163.884 152.996 164.472 152.788 168.052 152.03C168.166 152.447 168.223 152.788 168.28 153.11L169.625 152.617ZM165.798 142.634C166.101 141.819 166.366 140.967 166.594 140.114L164.907 139.735C164.358 142.066 163.411 144.396 162.198 145.892V140.815H155.776V152.22H157.14V142.388H160.797V152.163H162.198V146.006C162.596 146.29 163.259 146.802 163.543 147.067C164.112 146.29 164.661 145.324 165.135 144.244H170.269C170.098 151.651 169.871 154.493 169.359 155.08C169.151 155.364 168.962 155.421 168.658 155.402C168.242 155.402 167.389 155.402 166.423 155.327C166.726 155.819 166.916 156.577 166.953 157.088C167.882 157.126 168.81 157.145 169.416 157.05C170.041 156.956 170.458 156.766 170.875 156.179C171.557 155.251 171.746 152.276 171.974 143.505C171.993 143.259 171.993 142.634 171.993 142.634H165.798ZM188.55 145.741C189.365 144.604 190.274 142.861 190.975 141.289L189.687 140.758L189.384 140.853H189.061V140.872H175.346V142.52H188.493C188.057 143.448 187.565 144.358 187.11 145.04L188.55 145.741ZM182.014 145.362C181.181 144.737 179.514 143.903 178.263 143.392L177.316 144.566C178.585 145.134 180.214 146.063 181.01 146.707L182.014 145.362ZM179.779 147.957C178.983 147.332 177.392 146.555 176.179 146.101L175.213 147.256C176.445 147.787 178.017 148.639 178.794 149.245L179.779 147.957ZM183.227 153.546C185.689 154.588 188.247 156.009 189.762 157.107L190.899 155.724C189.308 154.663 186.618 153.299 184.136 152.295L183.227 153.546ZM182.886 143.486C182.829 145.968 182.772 148.033 182.355 149.719H174.569V151.348H181.768C180.707 153.489 178.585 154.853 174.209 155.668C174.55 156.046 174.986 156.709 175.118 157.164C180.271 156.122 182.564 154.228 183.643 151.348H190.975V149.719H184.117C184.496 147.957 184.591 145.892 184.647 143.486H182.886ZM203.705 151.613V153.489H199.557V151.613H203.705ZM205.145 154.758V150.344H198.268C199.216 149.605 200.22 148.734 200.958 147.919L199.708 147.313C198.856 148.166 197.53 149.075 196.412 149.719C196.639 150.041 197.037 150.856 197.151 151.14C197.454 150.95 197.757 150.742 198.079 150.496V155.592H199.557V154.758H205.145ZM207.324 149.871C206.49 149.151 204.804 147.957 203.649 147.143L202.645 148.166C203.838 149.056 205.467 150.306 206.263 151.064L207.324 149.871ZM209.976 141.668H203.08C202.834 141.061 202.474 140.266 202.152 139.641L200.409 140.095C200.636 140.569 200.883 141.156 201.072 141.668H193.4V143.164H198.59L197.34 143.6C197.681 144.225 198.155 145.134 198.382 145.703H194.385V157.088H196.052V147.124H207.381V155.327C207.381 155.611 207.267 155.705 206.945 155.705C206.68 155.724 205.6 155.724 204.52 155.686C204.747 156.065 204.956 156.615 205.032 157.032C206.604 157.032 207.589 157.013 208.195 156.785C208.801 156.558 209.01 156.198 209.01 155.327V145.703H204.918C205.373 145.059 205.846 144.32 206.282 143.6L204.387 143.202C204.103 143.922 203.611 144.945 203.175 145.703H198.609L200.068 145.134C199.86 144.642 199.367 143.789 199.007 143.164H209.976V141.668ZM224.165 145.305H217.061V142.217H224.165V145.305ZM225.965 140.531H215.375V146.991H225.965V140.531ZM217.819 150.515V154.455H214.371V150.515H217.819ZM212.704 157.126H214.371V156.141H217.819V156.994H219.562V148.829H212.704V157.126ZM223.104 154.455V150.515H226.855V154.455H223.104ZM221.418 148.829V157.126H223.104V156.141H226.855V157.032H228.617V148.829H221.418ZM247.618 141.611H243.375C243.11 141.061 242.75 140.417 242.409 139.906L240.76 140.152C241.026 140.588 241.31 141.118 241.537 141.611H237.351V143.089H247.618V141.611ZM236.157 147.919L234.623 148.393V145.059H236.365V143.43H234.623V139.773H233.012V143.43H230.909V145.059H233.012V148.867C232.122 149.113 231.307 149.359 230.663 149.511L231.061 151.216L233.012 150.609V155.118C233.012 155.364 232.918 155.44 232.69 155.44C232.501 155.44 231.819 155.44 231.118 155.421C231.345 155.876 231.554 156.634 231.61 157.05C232.728 157.069 233.467 156.994 233.959 156.728C234.452 156.444 234.623 155.99 234.623 155.118V150.098C235.21 149.927 235.816 149.738 236.403 149.549L236.157 147.919ZM248.054 145.949H244.682C245.137 145.286 245.61 144.434 246.046 143.657L244.398 143.183C244.114 143.998 243.47 145.172 242.996 145.949H240.097L241.31 145.438C241.083 144.793 240.552 143.846 240.022 143.145L238.677 143.676C239.15 144.377 239.643 145.324 239.832 145.949H236.744V147.446H248.054V145.949ZM244.322 150.818C243.981 151.86 243.47 152.674 242.769 153.356C241.84 152.977 240.874 152.617 239.965 152.333C240.287 151.86 240.609 151.367 240.931 150.818H244.322ZM248.262 150.818V149.34H241.765C242.049 148.829 242.295 148.279 242.503 147.787L240.893 147.446C240.647 148.033 240.325 148.696 239.965 149.34H236.479V150.818H239.112C238.582 151.651 238.033 152.447 237.559 153.072C238.733 153.432 240.003 153.887 241.253 154.417C239.984 155.023 238.336 155.402 236.176 155.63C236.46 155.971 236.763 156.615 236.896 157.107C239.567 156.709 241.575 156.141 243.034 155.194C244.493 155.857 245.8 156.577 246.671 157.183L247.789 155.838C246.917 155.251 245.724 154.645 244.398 154.038C245.175 153.186 245.705 152.144 246.084 150.818H248.262ZM253.169 153.337V143.411H263.778V153.337H253.169ZM251.35 141.63V156.709H253.169V155.137H263.778V156.634H265.691V141.63H251.35Z" fill="white"/>
<path d="M334.873 143.402C334.285 142.625 332.997 141.413 331.974 140.579L331.046 141.432C332.069 142.303 333.3 143.573 333.888 144.387L334.873 143.402ZM338.283 147.418V148.479H344.478V147.418H341.863V145.486H343.985V144.425H341.863V142.834H340.708V144.425H338.699V145.486H340.708V147.418H338.283ZM342.659 151.093V153.367H339.798V151.093H342.659ZM343.758 154.428V150.033H338.699V155.28H339.798V154.428H343.758ZM346.448 140.996H336.275V148.006C336.275 149.805 336.199 151.908 335.687 153.84C335.536 153.556 335.365 153.158 335.271 152.893L333.907 153.935V146.073H329.89V147.418H332.543V153.935C332.543 154.92 331.861 155.659 331.482 155.962C331.728 156.17 332.183 156.663 332.353 156.909C332.618 156.606 333.073 156.208 335.574 154.238C335.29 155.11 334.93 155.943 334.399 156.701C334.683 156.834 335.195 157.212 335.422 157.44C337.26 154.863 337.525 150.923 337.525 148.024V142.265H345.178V155.735C345.178 156.019 345.065 156.114 344.8 156.133C344.534 156.133 343.644 156.152 342.659 156.095C342.848 156.455 343.057 157.042 343.114 157.402C344.459 157.402 345.273 157.383 345.785 157.156C346.277 156.909 346.448 156.53 346.448 155.754V140.996ZM358.212 150.336V147.191H363.308V150.336H358.212ZM352.207 150.336C352.264 149.635 352.283 148.934 352.283 148.309V147.191H356.81V150.336H352.207ZM356.81 142.834V145.865H352.283V142.834H356.81ZM363.308 145.865H358.212V142.834H363.308V145.865ZM364.691 141.489H350.9V148.309C350.9 150.942 350.71 154.276 348.626 156.625C348.929 156.796 349.498 157.269 349.706 157.553C351.146 155.943 351.79 153.784 352.074 151.681H356.81V157.269H358.212V151.681H363.308V155.526C363.308 155.886 363.176 156 362.797 156.019C362.456 156.019 361.167 156.038 359.841 155.981C360.031 156.36 360.258 156.966 360.315 157.345C362.096 157.364 363.194 157.345 363.839 157.118C364.445 156.871 364.691 156.455 364.691 155.545V141.489ZM372.951 143.591C372.345 142.758 371.056 141.47 370.052 140.541L369.086 141.432C370.109 142.398 371.359 143.724 371.947 144.596L372.951 143.591ZM372.458 154.049V146.073H367.893V147.418H371.094V154.162C371.094 154.996 370.45 155.564 370.09 155.792C370.336 156.095 370.677 156.644 370.81 156.985C371.113 156.606 371.682 156.227 375.622 153.48C375.47 153.196 375.3 152.609 375.205 152.23L372.458 154.049ZM384.999 141.754H374.41V143.137H380.206V155.375C380.206 155.735 380.055 155.848 379.695 155.867C379.297 155.886 377.914 155.905 376.531 155.848C376.778 156.227 377.024 156.928 377.1 157.345C378.88 157.345 380.055 157.307 380.737 157.061C381.419 156.834 381.646 156.341 381.646 155.394V143.137H384.999V141.754ZM390.076 149.767V147.74H394.547V149.767H390.076ZM390.076 144.614H394.547V146.604H390.076V144.614ZM400.666 146.604H395.968V144.614H400.666V146.604ZM400.666 149.767H395.968V147.74H400.666V149.767ZM403.716 152.761H395.968V150.961H402.087V143.421H398.923C399.511 142.625 400.193 141.64 400.742 140.75L399.245 140.238C398.791 141.186 398.014 142.512 397.351 143.421H392.785L393.562 143.023C393.183 142.246 392.312 141.091 391.516 140.238L390.342 140.807C391.024 141.583 391.762 142.663 392.179 143.421H388.694V150.961H394.547V152.761H386.913V154.068H394.547V157.44H395.968V154.068H403.716V152.761ZM414.382 144.33H415.727V142.909H418.607V144.349H419.971V142.909H422.604V141.716H419.971V140.163H418.607V141.716H415.727V140.163H414.382V141.716H411.635V142.909H414.382V144.33ZM411.73 149.54C411.389 148.953 409.968 146.566 409.475 145.846V145.107H411.427V143.781H409.475V140.144H408.13V143.781H405.8V145.107H408.13C407.619 147.665 406.539 150.677 405.44 152.249C405.687 152.59 406.028 153.196 406.179 153.613C406.88 152.495 407.581 150.771 408.13 148.934V157.44H409.475V147.74C409.987 148.725 410.574 149.938 410.839 150.582L411.73 149.54ZM413.719 148.1H420.274V149.445H413.719V148.1ZM413.719 145.751H420.274V147.096H413.719V145.751ZM422.585 153.272V152.079H417.375C417.47 151.586 417.565 151.056 417.621 150.506H421.619V144.69H412.412V150.506H416.239C416.163 151.056 416.087 151.605 415.973 152.079H411.218V153.272H415.557C414.837 154.712 413.492 155.716 410.726 156.341C410.972 156.606 411.332 157.137 411.446 157.44C414.742 156.644 416.257 155.318 417.015 153.31C417.962 155.375 419.705 156.777 422.13 157.44C422.32 157.08 422.717 156.549 423.021 156.284C420.88 155.83 419.27 154.788 418.341 153.272H422.585ZM430.447 150.468L428.363 151.34V146.016H430.428V144.671H428.363V140.371H427.037V144.671H424.782V146.016H427.037V151.889C426.052 152.287 425.161 152.647 424.46 152.912L425.01 154.314C426.639 153.575 428.78 152.628 430.75 151.7L430.447 150.468ZM436.111 144.671H439.029V148.82H436.035C436.092 148.138 436.111 147.456 436.111 146.755V144.671ZM441.681 150.165V148.82H440.355V143.345H436.111V140.352H434.766V143.345H431.337V144.671H434.766V146.755C434.766 147.456 434.747 148.138 434.671 148.82H430.769V150.165H434.482C433.97 152.552 432.625 154.769 429.234 156.417C429.556 156.663 429.992 157.156 430.182 157.497C433.724 155.716 435.183 153.348 435.751 150.733C436.736 153.878 438.441 156.246 441.018 157.497C441.245 157.118 441.681 156.549 442.003 156.246C439.464 155.223 437.778 153.007 436.888 150.165H441.681ZM449.637 148.403H445.659V144.444H449.637V148.403ZM445.659 154.2V149.654H449.637V154.2H445.659ZM447.25 140.106C447.118 140.996 446.777 142.265 446.493 143.175H444.371V156.966H445.659V155.47H450.926V143.175H447.781C448.103 142.36 448.444 141.318 448.766 140.39L447.25 140.106ZM460.189 143.118H454.525C454.847 142.227 455.112 141.318 455.34 140.39L453.995 140.068C453.388 142.663 452.365 145.278 451.096 146.945C451.399 147.134 452.005 147.513 452.252 147.74C452.915 146.85 453.502 145.694 454.032 144.425H458.844C458.598 151.965 458.314 154.844 457.689 155.507C457.499 155.754 457.291 155.792 456.912 155.792C456.476 155.792 455.34 155.792 454.108 155.678C454.373 156.076 454.544 156.644 454.582 157.061C455.643 157.118 456.723 157.156 457.386 157.08C458.03 157.023 458.465 156.852 458.882 156.322C459.64 155.394 459.886 152.476 460.189 143.838V143.118ZM457.196 151.643C456.59 150.525 455.283 148.706 454.222 147.361L453.123 148.006C454.165 149.369 455.434 151.245 456.003 152.382L457.196 151.643Z" fill="#545454"/>
<path d="M483.692 142.947V141.545H466.964V142.947H474.201V157.421H475.698V147.456C477.857 148.612 480.396 150.165 481.684 151.226L482.669 149.957C481.173 148.82 478.198 147.115 475.944 146.035L475.698 146.319V142.947H483.692ZM489.035 149.767V147.74H493.505V149.767H489.035ZM489.035 144.614H493.505V146.604H489.035V144.614ZM499.624 146.604H494.926V144.614H499.624V146.604ZM499.624 149.767H494.926V147.74H499.624V149.767ZM502.674 152.761H494.926V150.961H501.045V143.421H497.882C498.469 142.625 499.151 141.64 499.7 140.75L498.204 140.238C497.749 141.186 496.972 142.512 496.309 143.421H491.744L492.52 143.023C492.141 142.246 491.27 141.091 490.474 140.238L489.3 140.807C489.982 141.583 490.721 142.663 491.137 143.421H487.652V150.961H493.505V152.761H485.871V154.068H493.505V157.44H494.926V154.068H502.674V152.761Z" fill="#3FAE2A"/>
<rect x="173" y="204" width="171.242" height="52.8862" rx="26.4431" fill="#3178C6"/>
<path d="M226.457 226.032C225.85 225.217 224.505 223.929 223.501 223.038L222.308 224.156C223.331 225.103 224.638 226.448 225.225 227.301L226.457 226.032ZM225.926 236.243V228.57H221.247V230.256H224.24V236.546C224.24 237.398 223.596 237.986 223.217 238.251C223.52 238.592 223.937 239.331 224.07 239.728C224.411 239.331 225.036 238.876 229.09 236.091C228.901 235.712 228.673 234.992 228.578 234.5L225.926 236.243ZM238.411 224.251H227.896V226.032H233.315V237.682C233.315 238.042 233.182 238.156 232.822 238.175C232.405 238.175 231.022 238.194 229.734 238.137C230.037 238.63 230.359 239.501 230.454 240.032C232.216 240.032 233.428 239.994 234.167 239.672C234.925 239.387 235.171 238.8 235.171 237.701V226.032H238.411V224.251ZM243.696 232.189V230.484H247.712V232.189H243.696ZM243.696 227.415H247.712V229.101H243.696V227.415ZM253.737 229.101H249.531V227.415H253.737V229.101ZM253.737 232.189H249.531V230.484H253.737V232.189ZM257.109 235.22H249.531V233.647H255.536V225.975H252.581C253.149 225.217 253.755 224.308 254.305 223.455L252.373 222.849C251.956 223.796 251.236 225.066 250.592 225.975H246.216L247.049 225.558C246.67 224.8 245.799 223.645 245.06 222.811L243.544 223.531C244.17 224.251 244.852 225.236 245.249 225.975H241.972V233.647H247.712V235.22H240.248V236.849H247.712V240.107H249.531V236.849H257.109V235.22ZM267.604 226.922H269.271V225.634H271.847V226.922H273.552V225.634H275.958V224.175H273.552V222.754H271.847V224.175H269.271V222.754H267.604V224.175H265.103V225.634H267.604V226.922ZM265.255 232.226C264.933 231.658 263.512 229.404 263 228.684V227.945H264.838V226.316H263V222.735H261.333V226.316H259.117V227.945H261.333V228.153C260.803 230.54 259.818 233.268 258.738 234.746C259.022 235.201 259.439 235.977 259.628 236.489C260.234 235.523 260.841 234.083 261.333 232.53V240.126H263V230.957C263.455 231.867 263.947 232.871 264.175 233.496L265.255 232.226ZM267.395 230.844H273.344V231.961H267.395V230.844ZM267.395 228.551H273.344V229.631H267.395V228.551ZM275.977 236.072V234.595H271.014C271.089 234.159 271.146 233.723 271.203 233.231H275.049V227.263H265.747V233.231H269.479C269.422 233.723 269.366 234.159 269.252 234.595H264.724V236.072H268.721C268.021 237.322 266.713 238.194 264.137 238.724C264.44 239.065 264.876 239.709 265.027 240.145C268.21 239.35 269.763 238.099 270.521 236.281C271.468 238.175 273.079 239.482 275.371 240.126C275.579 239.653 276.072 239.009 276.451 238.649C274.518 238.27 273.041 237.379 272.15 236.072H275.977ZM283.801 232.833C283.176 233.117 282.513 233.382 281.888 233.647V228.854H283.877V227.187H281.888V222.982H280.259V227.187H278.099V228.854H280.259V234.329C279.33 234.708 278.478 235.049 277.796 235.276L278.478 237.057C280.145 236.299 282.248 235.333 284.218 234.386L283.801 232.833ZM289.541 227.471H292.08V231.279H289.484C289.522 230.673 289.541 230.048 289.541 229.442V227.471ZM294.997 232.946V231.279H293.728V225.823H289.541V222.944H287.836V225.823H284.71V227.471H287.836V229.423C287.836 230.029 287.817 230.673 287.76 231.279H284.18V232.946H287.514C286.984 235.22 285.658 237.285 282.437 238.819C282.835 239.103 283.384 239.766 283.631 240.164C287.022 238.516 288.48 236.243 289.106 233.761C290.072 236.678 291.644 238.933 294.107 240.145C294.353 239.672 294.921 238.971 295.319 238.592C292.932 237.607 291.341 235.542 290.47 232.946H294.997Z" fill="white"/>
<path d="M381.873 226.402C381.285 225.625 379.997 224.413 378.974 223.579L378.046 224.432C379.069 225.303 380.3 226.573 380.888 227.387L381.873 226.402ZM385.283 230.418V231.479H391.478V230.418H388.863V228.486H390.985V227.425H388.863V225.834H387.708V227.425H385.699V228.486H387.708V230.418H385.283ZM389.659 234.093V236.367H386.798V234.093H389.659ZM390.758 237.428V233.033H385.699V238.28H386.798V237.428H390.758ZM393.448 223.996H383.275V231.006C383.275 232.805 383.199 234.908 382.687 236.84C382.536 236.556 382.365 236.158 382.271 235.893L380.907 236.935V229.073H376.89V230.418H379.543V236.935C379.543 237.92 378.861 238.659 378.482 238.962C378.728 239.17 379.183 239.663 379.353 239.909C379.618 239.606 380.073 239.208 382.574 237.238C382.29 238.11 381.93 238.943 381.399 239.701C381.683 239.834 382.195 240.212 382.422 240.44C384.26 237.863 384.525 233.923 384.525 231.024V225.265H392.178V238.735C392.178 239.019 392.065 239.114 391.8 239.133C391.534 239.133 390.644 239.152 389.659 239.095C389.848 239.455 390.057 240.042 390.114 240.402C391.459 240.402 392.273 240.383 392.785 240.156C393.277 239.909 393.448 239.53 393.448 238.754V223.996ZM405.212 233.336V230.191H410.308V233.336H405.212ZM399.207 233.336C399.264 232.635 399.283 231.934 399.283 231.309V230.191H403.81V233.336H399.207ZM403.81 225.834V228.865H399.283V225.834H403.81ZM410.308 228.865H405.212V225.834H410.308V228.865ZM411.691 224.489H397.9V231.309C397.9 233.942 397.71 237.276 395.626 239.625C395.929 239.796 396.498 240.269 396.706 240.553C398.146 238.943 398.79 236.784 399.074 234.681H403.81V240.269H405.212V234.681H410.308V238.526C410.308 238.886 410.176 239 409.797 239.019C409.456 239.019 408.167 239.038 406.841 238.981C407.031 239.36 407.258 239.966 407.315 240.345C409.096 240.364 410.194 240.345 410.839 240.118C411.445 239.871 411.691 239.455 411.691 238.545V224.489ZM427.68 231.706C426.695 233.544 425.236 234.984 423.437 236.12C421.656 234.965 420.292 233.487 419.345 231.706H427.68ZM428.76 230.267L428.476 230.324H424.043V227.425H431.261V226.042H424.043V223.163H422.603V226.042H415.423V227.425H422.603V230.324H416.276V231.706H418.284L417.867 231.858C418.89 233.904 420.292 235.571 422.092 236.878C419.894 237.977 417.336 238.678 414.646 239.114C414.912 239.436 415.29 240.08 415.423 240.459C418.284 239.909 421.031 239.057 423.38 237.75C425.52 239.038 428.154 239.89 431.204 240.364C431.393 239.947 431.772 239.341 432.075 239C429.252 238.659 426.809 237.939 424.744 236.878C426.922 235.401 428.646 233.449 429.726 230.873L428.76 230.267ZM438.44 223.276C437.361 226.213 435.561 229.092 433.629 230.93C433.894 231.252 434.33 231.991 434.5 232.313C435.144 231.65 435.807 230.873 436.413 230.02V240.402H437.815V227.842C438.592 226.535 439.255 225.133 439.823 223.712L438.44 223.276ZM450.849 227.349H448.443V223.371H447.022V227.349H439.388V228.751H447.022V238.526C447.022 238.962 446.852 239.076 446.435 239.114C445.98 239.133 444.427 239.133 442.836 239.076C443.044 239.455 443.309 240.099 443.385 240.459C445.431 240.478 446.7 240.459 447.439 240.231C448.14 240.023 448.443 239.587 448.443 238.526V228.751H450.849V227.349ZM444.635 235.325C444.029 234.169 442.779 232.199 441.794 230.74L440.581 231.309C441.547 232.824 442.76 234.851 443.328 236.026L444.635 235.325ZM461.382 227.33H462.727V225.909H465.607V227.349H466.971V225.909H469.604V224.716H466.971V223.163H465.607V224.716H462.727V223.163H461.382V224.716H458.635V225.909H461.382V227.33ZM458.73 232.54C458.389 231.953 456.968 229.566 456.475 228.846V228.107H458.427V226.781H456.475V223.144H455.13V226.781H452.8V228.107H455.13C454.619 230.665 453.539 233.677 452.44 235.249C452.687 235.59 453.028 236.196 453.179 236.613C453.88 235.495 454.581 233.771 455.13 231.934V240.44H456.475V230.74C456.987 231.725 457.574 232.938 457.839 233.582L458.73 232.54ZM460.719 231.1H467.274V232.445H460.719V231.1ZM460.719 228.751H467.274V230.096H460.719V228.751ZM469.585 236.272V235.079H464.375C464.47 234.586 464.565 234.056 464.621 233.506H468.619V227.69H459.412V233.506H463.239C463.163 234.056 463.087 234.605 462.973 235.079H458.218V236.272H462.557C461.837 237.712 460.492 238.716 457.726 239.341C457.972 239.606 458.332 240.137 458.446 240.44C461.742 239.644 463.257 238.318 464.015 236.31C464.962 238.375 466.705 239.777 469.13 240.44C469.32 240.08 469.717 239.549 470.021 239.284C467.88 238.83 466.27 237.788 465.341 236.272H469.585ZM477.447 233.468L475.363 234.34V229.016H477.428V227.671H475.363V223.371H474.037V227.671H471.782V229.016H474.037V234.889C473.052 235.287 472.161 235.647 471.46 235.912L472.01 237.314C473.639 236.575 475.78 235.628 477.75 234.7L477.447 233.468ZM483.111 227.671H486.029V231.82H483.035C483.092 231.138 483.111 230.456 483.111 229.755V227.671ZM488.681 233.165V231.82H487.355V226.345H483.111V223.352H481.766V226.345H478.337V227.671H481.766V229.755C481.766 230.456 481.747 231.138 481.671 231.82H477.769V233.165H481.482C480.97 235.552 479.625 237.769 476.234 239.417C476.556 239.663 476.992 240.156 477.182 240.497C480.724 238.716 482.183 236.348 482.751 233.733C483.736 236.878 485.441 239.246 488.018 240.497C488.245 240.118 488.681 239.549 489.003 239.246C486.464 238.223 484.778 236.007 483.888 233.165H488.681ZM496.637 231.403H492.659V227.444H496.637V231.403ZM492.659 237.2V232.654H496.637V237.2H492.659ZM494.25 223.106C494.118 223.996 493.777 225.265 493.493 226.175H491.371V239.966H492.659V238.47H497.926V226.175H494.781C495.103 225.36 495.444 224.318 495.766 223.39L494.25 223.106ZM507.189 226.118H501.525C501.847 225.227 502.112 224.318 502.34 223.39L500.995 223.068C500.388 225.663 499.365 228.278 498.096 229.945C498.399 230.134 499.005 230.513 499.252 230.74C499.915 229.85 500.502 228.694 501.032 227.425H505.844C505.598 234.965 505.314 237.844 504.689 238.507C504.499 238.754 504.291 238.792 503.912 238.792C503.476 238.792 502.34 238.792 501.108 238.678C501.373 239.076 501.544 239.644 501.582 240.061C502.643 240.118 503.723 240.156 504.386 240.08C505.03 240.023 505.465 239.852 505.882 239.322C506.64 238.394 506.886 235.476 507.189 226.838V226.118ZM504.196 234.643C503.59 233.525 502.283 231.706 501.222 230.361L500.123 231.006C501.165 232.369 502.434 234.245 503.003 235.382L504.196 234.643Z" fill="#545454"/>
<path d="M520.159 231.536L517.886 232.199V227.937H520.178V226.61H517.886V223.163H516.484V226.61H513.756V227.937H516.484V232.597C515.366 232.919 514.343 233.203 513.529 233.411L513.889 234.775C514.665 234.567 515.556 234.283 516.484 233.999V238.754C516.484 239.038 516.37 239.114 516.124 239.114C515.897 239.133 515.082 239.133 514.23 239.114C514.438 239.493 514.646 240.08 514.703 240.44C515.954 240.459 516.73 240.421 517.204 240.175C517.715 239.947 517.886 239.568 517.886 238.754V233.582C518.701 233.336 519.534 233.07 520.349 232.805L520.159 231.536ZM522.565 236.784V226.08H528.324V236.784H522.565ZM521.182 224.735V239.89H522.565V238.129H528.324V239.758H529.764V224.735H521.182ZM535.542 229.168C535.618 228.713 535.713 228.24 535.788 227.747H538.516C538.478 228.24 538.384 228.713 538.175 229.168H535.542ZM539.842 225.379H542.836V226.724H539.842V225.379ZM546.984 225.379V226.724H544.181V225.379H546.984ZM542.836 229.168H539.577C539.71 228.713 539.786 228.24 539.823 227.747H542.836V229.168ZM535.372 237.844H536.717V233.79H545.886V237.712H547.287V232.597H536.035C537.683 231.934 538.611 231.1 539.141 230.172H542.836V232.142H544.181V230.172H547.988C547.913 230.702 547.837 230.968 547.742 231.081C547.628 231.176 547.496 231.195 547.287 231.195C547.079 231.195 546.568 231.195 545.961 231.119C546.094 231.403 546.227 231.82 546.246 232.085C546.909 232.123 547.572 232.142 547.894 232.104C548.292 232.104 548.576 232.01 548.822 231.763C549.087 231.479 549.239 230.854 549.371 229.642C549.371 229.452 549.39 229.168 549.39 229.168H544.181V227.747H548.273V224.356H544.181V223.163H542.836V224.356H539.842V223.163H538.554V224.356H533.894V225.379H538.554V226.724H535.163V226.743H534.633C534.5 227.861 534.273 229.244 534.083 230.172H537.493C536.698 231.006 535.315 231.725 532.966 232.275C533.193 232.521 533.534 233.051 533.667 233.355C534.292 233.222 534.879 233.051 535.372 232.862V237.844ZM540.771 234.567C540.164 237.39 538.592 238.678 532.681 239.265C532.909 239.568 533.174 240.118 533.269 240.459C539.558 239.701 541.472 238.034 542.173 234.567H540.771ZM541.661 237.863C544.067 238.545 547.25 239.682 548.841 240.459L549.618 239.341C547.932 238.564 544.73 237.522 542.4 236.916L541.661 237.863Z" fill="#3FAE2A"/>
<rect x="228" y="287" width="171.242" height="52.8862" rx="26.4431" fill="#3178C6"/>
<path d="M282.574 314.052L280.491 314.639V310.718H282.574V309.089H280.491V305.754H278.691V309.089H276.133V310.718H278.691V315.113C277.63 315.397 276.664 315.643 275.887 315.833L276.304 317.557L278.691 316.856V321.099C278.691 321.383 278.596 321.459 278.331 321.459C278.104 321.478 277.308 321.478 276.512 321.44C276.74 321.914 276.986 322.672 277.062 323.107C278.331 323.126 279.164 323.069 279.733 322.785C280.282 322.52 280.491 322.046 280.491 321.099V316.363C281.267 316.136 282.044 315.908 282.802 315.681L282.574 314.052ZM285.265 319.224V308.975H290.493V319.224H285.265ZM283.503 307.308V322.558H285.265V320.891H290.493V322.406H292.331V307.308H283.503ZM300.78 310.415C300.742 310.812 300.666 311.191 300.534 311.551H298.147C298.222 311.172 298.279 310.812 298.336 310.415H300.78ZM302.409 308.066H305.023V309.183H302.409V308.066ZM309.096 308.066V309.183H306.691V308.066H309.096ZM305.023 311.551H302.22C302.314 311.172 302.371 310.812 302.39 310.415H305.023V311.551ZM297.673 320.341H299.378V316.609H307.979V320.171H309.76V315.151H298.848C300.382 314.507 301.291 313.692 301.784 312.764H305.023V314.734H306.691V312.764H310.101C310.044 313.18 309.968 313.389 309.892 313.503C309.778 313.616 309.665 313.616 309.456 313.616C309.248 313.635 308.812 313.616 308.263 313.559C308.433 313.881 308.566 314.374 308.585 314.715C309.286 314.753 309.949 314.753 310.29 314.734C310.688 314.715 311.029 314.601 311.275 314.336C311.578 313.995 311.711 313.351 311.824 312.101C311.843 311.892 311.862 311.551 311.862 311.551H306.691V310.415H310.707V306.834H306.691V305.735H305.023V306.834H302.409V305.735H300.818V306.834H296.29V308.066H300.818V309.183H297.578V309.202H296.915C296.783 310.377 296.555 311.798 296.347 312.764H299.7C298.904 313.521 297.54 314.147 295.286 314.639C295.589 314.923 296.025 315.586 296.176 315.965C296.707 315.833 297.199 315.7 297.673 315.567V320.341ZM303.015 317.31C302.409 319.811 300.913 321.023 295.002 321.611C295.305 321.971 295.646 322.672 295.76 323.107C302.182 322.312 304.057 320.607 304.777 317.31H303.015ZM304.019 320.645C306.387 321.27 309.589 322.368 311.18 323.126L312.165 321.762C310.46 321.004 307.259 320 304.948 319.451L304.019 320.645ZM322.604 309.922H324.271V308.634H326.847V309.922H328.552V308.634H330.958V307.175H328.552V305.754H326.847V307.175H324.271V305.754H322.604V307.175H320.103V308.634H322.604V309.922ZM320.255 315.226C319.933 314.658 318.512 312.404 318 311.684V310.945H319.838V309.316H318V305.735H316.333V309.316H314.117V310.945H316.333V311.153C315.803 313.54 314.818 316.268 313.738 317.746C314.022 318.201 314.439 318.977 314.628 319.489C315.234 318.523 315.841 317.083 316.333 315.53V323.126H318V313.957C318.455 314.867 318.947 315.871 319.175 316.496L320.255 315.226ZM322.395 313.844H328.344V314.961H322.395V313.844ZM322.395 311.551H328.344V312.631H322.395V311.551ZM330.977 319.072V317.595H326.014C326.089 317.159 326.146 316.723 326.203 316.231H330.049V310.263H320.747V316.231H324.479C324.422 316.723 324.366 317.159 324.252 317.595H319.724V319.072H323.721C323.021 320.322 321.713 321.194 319.137 321.724C319.44 322.065 319.876 322.709 320.027 323.145C323.21 322.35 324.763 321.099 325.521 319.281C326.468 321.175 328.079 322.482 330.371 323.126C330.579 322.653 331.072 322.009 331.451 321.649C329.518 321.27 328.041 320.379 327.15 319.072H330.977ZM338.801 315.833C338.176 316.117 337.513 316.382 336.888 316.647V311.854H338.877V310.187H336.888V305.982H335.259V310.187H333.099V311.854H335.259V317.329C334.33 317.708 333.478 318.049 332.796 318.276L333.478 320.057C335.145 319.299 337.248 318.333 339.218 317.386L338.801 315.833ZM344.541 310.471H347.08V314.279H344.484C344.522 313.673 344.541 313.048 344.541 312.442V310.471ZM349.997 315.946V314.279H348.728V308.823H344.541V305.944H342.836V308.823H339.71V310.471H342.836V312.423C342.836 313.029 342.817 313.673 342.76 314.279H339.18V315.946H342.514C341.984 318.22 340.658 320.285 337.437 321.819C337.835 322.103 338.384 322.766 338.631 323.164C342.022 321.516 343.48 319.243 344.106 316.761C345.072 319.678 346.644 321.933 349.107 323.145C349.353 322.672 349.921 321.971 350.319 321.592C347.932 320.607 346.341 318.542 345.47 315.946H349.997Z" fill="white"/>
<path d="M442.783 300.011C441.533 302.682 439.298 305.069 436.93 306.547C437.195 306.793 437.593 307.399 437.763 307.665C439.695 306.338 441.571 304.444 442.973 302.284C444.432 304.179 446.591 306.206 448.505 307.494C448.656 307.115 448.959 306.547 449.224 306.225C447.292 305.069 444.962 302.985 443.636 301.167C443.768 300.92 443.901 300.693 444.015 300.466L442.783 300.011ZM446.25 305.997H439.885V307.21H446.25V305.997ZM444.091 313.064C443.996 311.87 443.636 310.033 443.295 308.593L442.177 308.744C442.518 310.184 442.84 312.06 442.935 313.272L444.091 313.064ZM438.521 309.275C439.089 310.715 439.582 312.571 439.752 313.821L440.908 313.499C440.737 312.268 440.207 310.411 439.639 308.991L438.521 309.275ZM437.858 309.237C437.555 308.687 436.229 306.547 435.736 305.846V305.031H437.706V303.724H435.736V300.144H434.429V303.724H432.004V305.031H434.296C433.804 307.532 432.743 310.449 431.682 312.003C431.928 312.325 432.25 312.95 432.402 313.348C433.141 312.173 433.88 310.336 434.429 308.384V317.44H435.736V307.665C436.229 308.574 436.778 309.654 437.005 310.241L437.858 309.237ZM446.894 308.593C446.25 310.62 445.038 313.499 444.053 315.299H437.517V316.549H448.713V315.299H445.227C446.212 313.518 447.33 310.961 448.145 308.934L446.894 308.593ZM459.151 314.219C460.117 315.166 461.216 316.493 461.747 317.307L462.637 316.682C462.126 315.867 460.97 314.598 460.023 313.689L459.151 314.219ZM455.893 301.261V313.045H457.011V302.341H461.065V312.988H462.22V301.261H455.893ZM466.312 300.39V315.83C466.312 316.114 466.199 316.208 465.933 316.208C465.668 316.227 464.797 316.227 463.793 316.208C463.963 316.549 464.153 317.061 464.209 317.383C465.517 317.402 466.331 317.364 466.824 317.156C467.278 316.947 467.468 316.606 467.468 315.811V300.39H466.312ZM463.736 301.849V313.102H464.853V301.849H463.736ZM458.393 303.686V310.336C458.393 312.59 458.052 314.939 454.889 316.549C455.097 316.739 455.438 317.175 455.571 317.421C458.943 315.716 459.492 312.855 459.492 310.336V303.686H458.393ZM451.555 301.356C452.615 301.943 453.942 302.834 454.586 303.44L455.438 302.322C454.775 301.735 453.411 300.901 452.388 300.352L451.555 301.356ZM450.74 306.433C451.763 307.001 453.146 307.854 453.828 308.422L454.642 307.305C453.942 306.755 452.578 305.96 451.536 305.448L450.74 306.433ZM451.119 316.474L452.388 317.212C453.184 315.489 454.112 313.158 454.794 311.188L453.657 310.449C452.919 312.571 451.858 314.996 451.119 316.474ZM474.098 312.116C473.094 313.48 471.522 314.882 470.025 315.811C470.366 316.019 470.878 316.511 471.124 316.758C472.602 315.716 474.288 314.106 475.405 312.59L474.098 312.116ZM481.127 312.742C482.566 313.935 484.328 315.602 485.143 316.72L486.355 315.867C485.503 314.807 483.703 313.158 482.263 312.041L481.127 312.742ZM478.418 299.973C476.372 302.644 472.753 305.145 469.457 306.566C469.817 306.888 470.177 307.38 470.404 307.721C471.408 307.248 472.45 306.642 473.473 305.978V307.21H477.717V309.597H470.764V310.923H477.717V315.754C477.717 316.038 477.622 316.114 477.3 316.133C476.997 316.133 475.936 316.152 474.78 316.114C475.008 316.474 475.273 317.061 475.349 317.459C476.826 317.478 477.773 317.44 478.361 317.212C478.967 316.985 479.175 316.587 479.175 315.754V310.923H486.128V309.597H479.175V307.21H483.248V305.922H473.549C475.311 304.766 476.978 303.402 478.342 301.924C480.691 304.501 483.305 306.13 486.393 307.532C486.583 307.096 486.999 306.604 487.321 306.319C484.158 305.031 481.43 303.459 479.175 300.996C479.289 300.845 479.403 300.731 479.516 300.579L478.418 299.973ZM497.892 304.482V313.348H499.086V305.619H503.879V313.31H505.129V304.482H501.586C501.833 303.895 502.079 303.194 502.325 302.531H505.83V301.28H497.57V302.531H501.056C500.867 303.156 500.601 303.914 500.374 304.482H497.892ZM490.296 303.137H495.96V304.823H497.248V301.962H494.16C493.914 301.451 493.535 300.75 493.194 300.219L491.944 300.522C492.19 300.939 492.455 301.489 492.683 301.962H489.064V304.823H490.296V303.137ZM494.842 312.704V315.564H491.527V312.704H494.842ZM490.277 317.307H491.527V316.72H494.842V317.269H496.131V311.567H490.277V317.307ZM495.752 305.012L495.486 305.069H492.607C492.796 304.69 493.005 304.349 493.175 303.97L491.925 303.743C491.357 305.012 490.277 306.528 488.666 307.608C488.913 307.797 489.292 308.214 489.5 308.479C490.466 307.797 491.224 307.001 491.868 306.168H494.748C494.331 306.85 493.762 307.513 493.118 308.062C492.607 307.778 492.058 307.513 491.603 307.286L490.712 308.119C491.148 308.346 491.641 308.593 492.114 308.877C491.053 309.616 489.841 310.222 488.629 310.62C488.837 310.885 489.102 311.51 489.197 311.87C490.637 311.321 492.058 310.544 493.308 309.521C494.501 310.222 495.638 310.904 496.377 311.415L497.324 310.43C496.585 309.957 495.449 309.313 494.274 308.669C495.183 307.759 495.96 306.698 496.509 305.524L495.752 305.012ZM500.942 306.679C500.848 312.514 500.601 315.091 496.509 316.53C496.737 316.758 497.097 317.212 497.229 317.534C501.662 315.924 502.079 312.931 502.174 306.679H500.942ZM501.776 314.352C503.026 315.28 504.599 316.587 505.394 317.402L506.171 316.417C505.394 315.621 503.746 314.39 502.534 313.499L501.776 314.352ZM521.099 303.535H511.305V302H521.099V303.535ZM521.099 306.092H511.305V304.558H521.099V306.092ZM522.501 300.92H509.922V307.172H522.501V300.92ZM517.102 313.064H523.354V311.813H517.102V309.71H524.585V308.441H507.952V309.71H515.719V315.413C514.09 314.977 512.877 314.106 512.138 312.401C512.328 311.794 512.498 311.169 512.631 310.506L511.21 310.317C510.699 313.083 509.505 315.204 507.535 316.474C507.838 316.701 508.388 317.231 508.577 317.478C509.808 316.568 510.793 315.394 511.532 313.916C513.067 316.474 515.473 317.08 519.28 317.08H524.433C524.509 316.663 524.736 316.057 524.926 315.735C523.96 315.754 520.038 315.754 519.337 315.754C518.542 315.754 517.784 315.716 517.102 315.64V313.064ZM534.474 309.805H535.876V304.027C536.387 303.573 536.861 303.061 537.297 302.55H543.359V301.223H527.048V302.55H535.402C533.223 304.842 529.832 306.679 526.479 307.778C526.782 308.081 527.256 308.725 527.464 309.047C529.87 308.138 532.371 306.831 534.474 305.221V309.805ZM539.911 311.586V315.28H530.552V311.586H539.911ZM529.132 317.459H530.552V316.549H539.911V317.421H541.407V310.336H529.132V317.459ZM536.671 305.334C538.85 306.225 541.445 307.74 542.809 308.839L543.813 307.778C542.43 306.736 539.835 305.278 537.675 304.387L536.671 305.334ZM555.71 302.663C555.388 301.962 554.725 300.901 554.119 300.087L552.736 300.504C553.304 301.318 553.968 302.455 554.252 303.156L555.71 302.663ZM557.889 315.659C557.131 315.659 556.999 315.545 556.999 314.939V309.483L559.651 309.332C560.087 309.824 560.465 310.26 560.75 310.658L561.981 309.843C560.977 308.498 558.874 306.547 557.131 305.221L555.995 305.903C556.79 306.547 557.681 307.324 558.476 308.119L549.591 308.517C550.785 307.38 552.016 305.997 553.115 304.539H562.322V303.175H545.992V304.539H551.221C550.122 306.054 548.853 307.418 548.398 307.835C547.886 308.328 547.47 308.687 547.091 308.744C547.261 309.142 547.489 309.881 547.583 310.184C548.019 310.051 548.549 309.976 551.183 309.805C550.842 313.064 549.932 315.129 545.784 316.246C546.106 316.53 546.522 317.118 546.674 317.478C551.258 316.133 552.338 313.594 552.698 309.71L555.502 309.559V314.958C555.502 316.53 555.976 317.004 557.718 317.004H560.56C562.17 317.004 562.587 316.227 562.739 313.31C562.341 313.196 561.735 312.95 561.413 312.666C561.318 315.223 561.185 315.659 560.446 315.659H557.889ZM568.233 302.436H578.273V306.149H568.233V302.436ZM573.897 311.719H580.243V310.411H573.897V307.494H579.732V301.072H566.85V307.494H572.476V315.166C570.904 314.56 569.71 313.424 568.952 311.434C569.161 310.639 569.312 309.843 569.426 309.066L567.929 308.896C567.664 311.605 566.755 314.788 564.519 316.511C564.804 316.701 565.277 317.175 565.505 317.459C566.85 316.417 567.778 314.882 568.403 313.196C570.203 316.474 573.101 317.193 577.117 317.193H581.285C581.361 316.796 581.588 316.17 581.797 315.83C581.001 315.848 577.781 315.848 577.193 315.848C576 315.848 574.901 315.773 573.897 315.564V311.719ZM438.578 332.334C438.313 334.949 437.706 337.089 436.873 338.775C436.058 338.112 435.225 337.506 434.429 336.938C434.808 335.612 435.225 334.001 435.603 332.334H438.578ZM439.184 330.97L438.938 331.027H435.869C436.134 329.739 436.38 328.451 436.532 327.276L435.149 327.163C434.997 328.356 434.789 329.701 434.524 331.027H431.947V332.334H434.239C433.804 334.267 433.33 336.123 432.857 337.468C433.898 338.188 435.073 339.079 436.134 339.969C435.054 341.579 433.652 342.659 431.947 343.303C432.25 343.606 432.61 344.118 432.819 344.478C434.599 343.682 436.058 342.545 437.214 340.916C437.972 341.617 438.635 342.28 439.108 342.867L440.055 341.693C439.563 341.087 438.824 340.405 437.972 339.685C439.089 337.563 439.79 334.797 440.055 331.141L439.184 330.97ZM442.404 341.219V330.535H447.046V341.219H442.404ZM441.078 329.19V343.966H442.404V342.564H447.046V343.701H448.429V329.19H441.078ZM454.434 334.324V332.372H458.697V334.324H454.434ZM454.434 329.284H458.697V331.217H454.434V329.284ZM464.456 331.217H460.155V329.284H464.456V331.217ZM464.456 334.324H460.155V332.372H464.456V334.324ZM467.676 338.434V337.127H460.155V335.536H465.952V328.053H453.013V335.536H458.697V337.127H451.176V338.434H457.522C455.855 340.234 453.165 341.863 450.702 342.659C451.005 342.943 451.46 343.493 451.649 343.815C454.112 342.886 456.878 341.087 458.697 339.022V344.459H460.155V338.927C462.012 340.935 464.797 342.773 467.203 343.739C467.411 343.398 467.847 342.848 468.169 342.564C465.782 341.769 463.073 340.177 461.33 338.434H467.676ZM486.45 329.891V328.489H470.272V329.891H478.645C476.769 333.13 473.53 336.275 469.798 338.15C470.082 338.472 470.537 339.022 470.745 339.382C473.378 337.999 475.69 336.047 477.603 333.869V344.402H479.1V331.974C479.573 331.273 480.028 330.591 480.445 329.891H486.45ZM479.478 333.964C481.714 335.441 484.518 337.677 485.863 339.116L486.98 338.037C485.597 336.597 482.718 334.475 480.52 333.054L479.478 333.964ZM492.455 329.436H502.496V333.149H492.455V329.436ZM498.12 338.719H504.466V337.411H498.12V334.494H503.955V328.072H491.072V334.494H496.699V342.166C495.126 341.56 493.933 340.424 493.175 338.434C493.384 337.639 493.535 336.843 493.649 336.066L492.152 335.896C491.887 338.605 490.978 341.788 488.742 343.511C489.026 343.701 489.5 344.175 489.727 344.459C491.072 343.417 492.001 341.882 492.626 340.196C494.426 343.474 497.324 344.193 501.34 344.193H505.508C505.584 343.796 505.811 343.17 506.019 342.83C505.224 342.848 502.003 342.848 501.416 342.848C500.223 342.848 499.124 342.773 498.12 342.564V338.719ZM509.751 345.027C511.741 344.326 513.029 342.773 513.029 340.727C513.029 339.401 512.461 338.548 511.419 338.548C510.642 338.548 509.979 339.022 509.979 339.912C509.979 340.802 510.623 341.257 511.4 341.257C511.513 341.257 511.608 341.257 511.722 341.238C511.627 342.526 510.793 343.417 509.335 344.023L509.751 345.027ZM537.562 335.536V339.23H532.807V335.536H537.562ZM538.869 340.499V334.267H531.519V341.844H532.807V340.499H538.869ZM542.828 330.402H534.379C534.853 329.493 535.345 328.413 535.762 327.409L534.038 327.106C533.792 328.072 533.299 329.379 532.826 330.402H527.654V344.44H529.037V331.766H541.426V342.564C541.426 342.924 541.313 343.019 540.972 343.038C540.574 343.057 539.267 343.057 537.903 343C538.111 343.379 538.338 344.042 538.414 344.44C540.119 344.44 541.275 344.421 541.957 344.193C542.62 343.966 542.828 343.493 542.828 342.564V330.402ZM547.564 330.156H560.655V332.391H562.076V328.849H555.332C555.028 328.261 554.612 327.541 554.233 326.992L552.869 327.333C553.153 327.788 553.456 328.356 553.721 328.849H546.181V332.391H547.564V330.156ZM549.932 338.662C551.41 338.169 552.831 337.582 554.157 336.862C555.521 337.601 557.018 338.188 558.628 338.662H549.932ZM550.444 342.602V339.855H557.927V342.602H550.444ZM551.429 332.997H557.15C556.373 333.869 555.35 334.646 554.176 335.365C553.058 334.683 552.092 333.926 551.353 333.073L551.429 332.997ZM558.363 331.823L558.116 331.88H552.49C552.793 331.501 553.096 331.141 553.361 330.762L551.846 330.497C550.899 331.937 549.061 333.585 546.466 334.74C546.788 334.968 547.204 335.422 547.413 335.744C548.53 335.195 549.516 334.57 550.368 333.907C551.069 334.702 551.903 335.422 552.85 336.085C550.576 337.203 547.924 338.018 545.405 338.453C545.651 338.756 545.954 339.325 546.087 339.685C547.072 339.476 548.076 339.249 549.08 338.946V344.44H550.444V343.815H557.927V344.421H559.348V338.851C560.2 339.079 561.091 339.268 561.981 339.382C562.189 338.984 562.549 338.378 562.871 338.056C560.181 337.715 557.643 337.033 555.54 336.047C557.074 335.043 558.382 333.831 559.31 332.429L558.363 331.823ZM568.289 335.157C568.308 334.797 568.308 334.475 568.308 334.153V331.387H578.159V335.157H568.289ZM573.613 330.061L574.484 329.796C574.257 329.057 573.764 327.92 573.329 327.049L571.965 327.409C572.343 328.242 572.76 329.322 572.988 330.061H566.869V334.153C566.869 336.995 566.622 340.916 564.33 343.701C564.671 343.852 565.296 344.307 565.524 344.553C567.399 342.318 568.043 339.192 568.252 336.483H578.159V337.715H579.58V330.061H573.613ZM599.964 328.091H598.619V331.311H595.759V327.163H594.414V331.311H591.799V328.091H590.492V332.562H599.964V328.091ZM587.935 330.061C587.688 329.322 587.139 328.186 586.628 327.333L585.434 327.712C585.908 328.583 586.457 329.758 586.684 330.516L587.935 330.061ZM589.886 330.686H583.577V331.993H589.886V330.686ZM586.116 339.647C586.04 337.79 585.661 335.062 585.245 332.903L584.165 333.092C584.563 335.233 584.923 337.999 584.979 339.855L586.116 339.647ZM588.048 340.12C588.503 338.112 588.977 335.214 589.299 332.96L588.067 332.732C587.859 335.024 587.404 338.359 586.95 340.386C585.623 340.689 584.392 340.992 583.445 341.2L583.748 342.564C585.529 342.148 587.821 341.541 590.019 340.973L589.867 339.666L588.048 340.12ZM600.589 335.214V333.964H589.678V335.214H594.281C594.167 335.782 594.054 336.407 593.94 336.938H590.284V344.44H591.553V338.15H593.22V344.269H594.338V338.15H596.081V344.212H597.198V338.15H598.922V343.152C598.922 343.303 598.884 343.36 598.714 343.36C598.581 343.379 598.089 343.379 597.558 343.36C597.71 343.682 597.899 344.137 597.956 344.497C598.79 344.497 599.32 344.478 599.699 344.269C600.097 344.061 600.192 343.758 600.192 343.17V336.938H595.304C595.493 336.407 595.683 335.801 595.853 335.214H600.589ZM616.711 333.263C616.219 334.608 615.461 335.801 614.57 336.805C613.547 335.972 612.505 335.138 611.596 334.437L610.63 335.252C611.577 335.991 612.619 336.881 613.661 337.752C612.43 338.908 610.99 339.761 609.512 340.272C609.796 340.556 610.137 341.068 610.308 341.428C611.88 340.784 613.396 339.855 614.665 338.643C615.821 339.666 616.863 340.632 617.545 341.39L618.624 340.405C617.905 339.647 616.806 338.681 615.593 337.658C616.844 336.218 617.848 334.418 618.416 332.259L617.564 331.937L617.298 331.993H610.194V329.72C613.263 329.568 616.711 329.209 619.022 328.583L617.867 327.466C615.783 328.034 611.994 328.394 608.811 328.545V332.656C608.811 334.968 608.603 338.093 606.784 340.31C607.106 340.461 607.713 340.859 607.959 341.106C609.74 338.908 610.137 335.744 610.194 333.263H616.711ZM606.746 330.781C606.159 330.023 604.966 328.735 604.094 327.845L602.976 328.545C603.867 329.493 605.022 330.838 605.572 331.614L606.746 330.781ZM606.254 334.172H602.465V335.517H604.871V340.878C604.075 341.143 603.147 341.882 602.2 342.848L603.147 344.137C603.98 343.057 604.833 342.015 605.439 342.015C605.875 342.015 606.481 342.564 607.315 343.019C608.66 343.72 610.308 343.928 612.562 343.928C614.457 343.928 617.791 343.815 619.212 343.72C619.25 343.303 619.477 342.621 619.647 342.242C617.734 342.47 614.836 342.602 612.6 342.602C610.535 342.602 608.849 342.489 607.618 341.825C607.012 341.503 606.614 341.219 606.254 341.011V334.172ZM632.151 337.866H627.566V333.547H632.151V337.866ZM626.221 332.278V339.116H633.534V332.278H626.221ZM623.493 342.091V329.341H636.281V342.091H623.493ZM622.072 327.939V344.44H623.493V343.417H636.281V344.44H637.777V327.939H622.072ZM647.003 330.762V329.417H643.271C643.574 328.811 643.839 328.186 644.029 327.56L642.797 327.2C642.248 328.943 641.282 330.61 640.164 331.709C640.391 332.012 640.77 332.694 640.884 332.978C641.471 332.353 642.04 331.614 642.551 330.762H647.003ZM644.559 333.926H646.719V332.656H641.452V333.926H643.252V336.483H640.638V337.771H643.252V341.503C643.252 342.318 642.703 342.848 642.381 343.038C642.608 343.322 642.93 343.871 643.025 344.212C643.328 343.89 643.839 343.606 646.984 341.844C646.889 341.541 646.776 341.011 646.738 340.632L644.559 341.769V337.771H647.136V336.483H644.559V333.926ZM654.865 337.355V339.287H649.731V337.355H654.865ZM649.731 342.451V340.443H654.865V342.451H649.731ZM648.443 344.421H649.731V343.625H654.865V344.326H656.21V336.161H648.443V344.421ZM650.924 330.876H653.539V333.357H650.924V330.876ZM654.827 333.357V330.876H657.062V329.625H654.827V327.144H653.539V329.625H650.924V327.144H649.655V329.625H647.799V330.876H649.655V333.357H647.344V334.646H657.479V333.357H654.827ZM673.828 331.88H667.747V329.265H673.828V331.88ZM675.211 328.034H666.421V333.111H675.211V328.034ZM664.148 330.478C663.56 329.701 662.272 328.508 661.268 327.655L660.34 328.545C661.344 329.436 662.594 330.686 663.181 331.482L664.148 330.478ZM663.276 341.276V333.035H659.222V334.38H661.912V341.2C661.912 341.977 661.495 342.413 661.23 342.602C661.458 342.886 661.836 343.549 661.969 343.89C662.234 343.549 662.708 343.189 665.72 341.087C665.587 340.802 665.417 340.272 665.322 339.912L663.276 341.276ZM676.48 339.401V338.131H671.195C671.309 337.506 671.365 336.824 671.422 336.085H675.742V334.816H665.909V336.085H670.077C670.02 336.824 669.945 337.506 669.85 338.131H665.265V339.401H669.547C668.922 341.295 667.614 342.545 664.735 343.322C665.038 343.568 665.379 344.118 665.531 344.459C668.429 343.587 669.869 342.242 670.646 340.31C671.687 342.337 673.355 343.777 675.685 344.497C675.855 344.118 676.272 343.568 676.594 343.322C674.207 342.716 672.483 341.333 671.593 339.401H676.48ZM690.12 329.606C689.855 328.943 689.287 327.939 688.737 327.144L687.544 327.636C688.017 328.413 688.605 329.493 688.851 330.156L690.12 329.606ZM682.183 327.219C681.216 330.08 679.663 332.903 677.958 334.74C678.204 335.062 678.602 335.744 678.735 336.047C679.341 335.328 679.966 334.513 680.534 333.604V344.516H681.842V331.33C682.448 330.137 682.997 328.868 683.433 327.598L682.183 327.219ZM692.621 339.552V342.545H685.517V339.552H692.621ZM684.285 344.459H685.517V343.72H692.621V344.402H693.871V338.378H684.285V344.459ZM684.551 336.786H693.682V335.631H684.551V336.786ZM693.682 332.978H684.551V334.134H693.682V332.978ZM683.187 330.269V331.463H695.178V330.269H683.187ZM701.297 335.214H710.031V336.729H701.297V335.214ZM701.297 332.619H710.031V334.134H701.297V332.619ZM701.297 330.023H710.031V331.539H701.297V330.023ZM704.177 338.434C705.143 339.325 706.223 340.575 706.697 341.409L707.833 340.708C707.341 339.912 706.261 338.7 705.295 337.866H711.433V328.905H705.787C706.09 328.432 706.412 327.826 706.678 327.238L705.048 326.954C704.897 327.504 704.613 328.299 704.329 328.905H699.933V337.866H705.181L704.177 338.434ZM698.437 343.549C699.119 342.47 699.782 340.802 700.293 339.647L699.081 339.116C698.626 340.291 697.887 341.901 697.149 342.943L698.437 343.549ZM704.063 342.811C702.832 342.811 702.624 342.716 702.624 342.204V339.135H701.222V342.223C701.222 343.72 701.79 344.118 703.988 344.118H708.307C710.144 344.118 710.599 343.549 710.789 341.143C710.391 341.068 709.803 340.859 709.481 340.613C709.387 342.526 709.216 342.811 708.212 342.811H704.063ZM710.637 339.344C711.508 340.518 712.418 342.129 712.74 343.17L714.047 342.564C713.706 341.522 712.778 339.95 711.887 338.813L710.637 339.344Z" fill="#545454"/>
<path d="M733.988 327.674L733.591 326.954C732.378 327.504 731.241 328.811 731.241 330.497C731.241 331.539 731.904 332.296 732.719 332.296C733.572 332.296 734.007 331.652 734.007 331.065C734.007 330.383 733.534 329.853 732.833 329.853C732.624 329.853 732.416 329.909 732.302 330.004C732.302 329.171 732.965 328.186 733.988 327.674ZM737.626 327.674L737.228 326.954C736.015 327.504 734.86 328.811 734.86 330.497C734.86 331.539 735.542 332.296 736.356 332.296C737.209 332.296 737.645 331.652 737.645 331.065C737.645 330.383 737.171 329.853 736.451 329.853C736.243 329.853 736.053 329.909 735.94 330.004C735.94 329.171 736.603 328.186 737.626 327.674ZM743.555 339.116C742.551 340.48 740.979 341.882 739.482 342.811C739.823 343.019 740.335 343.511 740.581 343.758C742.059 342.716 743.745 341.106 744.862 339.59L743.555 339.116ZM750.584 339.742C752.023 340.935 753.785 342.602 754.6 343.72L755.812 342.867C754.96 341.807 753.16 340.158 751.72 339.041L750.584 339.742ZM747.875 326.973C745.829 329.644 742.21 332.145 738.914 333.566C739.274 333.888 739.634 334.38 739.861 334.721C740.865 334.248 741.907 333.642 742.93 332.978V334.21H747.174V336.597H740.221V337.923H747.174V342.754C747.174 343.038 747.079 343.114 746.757 343.133C746.454 343.133 745.393 343.152 744.237 343.114C744.465 343.474 744.73 344.061 744.806 344.459C746.283 344.478 747.23 344.44 747.818 344.212C748.424 343.985 748.632 343.587 748.632 342.754V337.923H755.585V336.597H748.632V334.21H752.705V332.922H743.006C744.768 331.766 746.435 330.402 747.799 328.924C750.148 331.501 752.762 333.13 755.85 334.532C756.04 334.096 756.456 333.604 756.778 333.319C753.615 332.031 750.887 330.459 748.632 327.996C748.746 327.845 748.86 327.731 748.973 327.579L747.875 326.973ZM767.349 331.482V340.348H768.543V332.619H773.336V340.31H774.586V331.482H771.043C771.29 330.895 771.536 330.194 771.782 329.531H775.287V328.28H767.027V329.531H770.513C770.324 330.156 770.058 330.914 769.831 331.482H767.349ZM759.753 330.137H765.417V331.823H766.705V328.962H763.617C763.371 328.451 762.992 327.75 762.651 327.219L761.401 327.522C761.647 327.939 761.912 328.489 762.14 328.962H758.521V331.823H759.753V330.137ZM764.299 339.704V342.564H760.984V339.704H764.299ZM759.734 344.307H760.984V343.72H764.299V344.269H765.587V338.567H759.734V344.307ZM765.209 332.012L764.943 332.069H762.064C762.253 331.69 762.462 331.349 762.632 330.97L761.382 330.743C760.813 332.012 759.734 333.528 758.123 334.608C758.37 334.797 758.749 335.214 758.957 335.479C759.923 334.797 760.681 334.001 761.325 333.168H764.204C763.788 333.85 763.219 334.513 762.575 335.062C762.064 334.778 761.514 334.513 761.06 334.286L760.169 335.119C760.605 335.346 761.098 335.593 761.571 335.877C760.51 336.616 759.298 337.222 758.085 337.62C758.294 337.885 758.559 338.51 758.654 338.87C760.094 338.321 761.514 337.544 762.765 336.521C763.958 337.222 765.095 337.904 765.834 338.415L766.781 337.43C766.042 336.957 764.905 336.313 763.731 335.669C764.64 334.759 765.417 333.698 765.966 332.524L765.209 332.012ZM770.399 333.679C770.305 339.514 770.058 342.091 765.966 343.53C766.194 343.758 766.554 344.212 766.686 344.534C771.119 342.924 771.536 339.931 771.631 333.679H770.399ZM771.233 341.352C772.483 342.28 774.056 343.587 774.851 344.402L775.628 343.417C774.851 342.621 773.203 341.39 771.991 340.499L771.233 341.352ZM793.796 329.891V328.489H777.617V329.891H785.99C784.115 333.13 780.875 336.275 777.143 338.15C777.428 338.472 777.882 339.022 778.091 339.382C780.724 337.999 783.035 336.047 784.949 333.869V344.402H786.445V331.974C786.919 331.273 787.373 330.591 787.79 329.891H793.796ZM786.824 333.964C789.059 335.441 791.863 337.677 793.208 339.116L794.326 338.037C792.943 336.597 790.063 334.475 787.866 333.054L786.824 333.964ZM799.801 329.436H809.841V333.149H799.801V329.436ZM805.465 338.719H811.812V337.411H805.465V334.494H811.3V328.072H798.418V334.494H804.044V342.166C802.472 341.56 801.279 340.424 800.521 338.434C800.729 337.639 800.881 336.843 800.994 336.066L799.498 335.896C799.233 338.605 798.323 341.788 796.088 343.511C796.372 343.701 796.846 344.175 797.073 344.459C798.418 343.417 799.346 341.882 799.971 340.196C801.771 343.474 804.67 344.193 808.686 344.193H812.853C812.929 343.796 813.157 343.17 813.365 342.83C812.569 342.848 809.349 342.848 808.762 342.848C807.568 342.848 806.469 342.773 805.465 342.564V338.719ZM818.48 331.652L818.878 332.372C820.09 331.804 821.246 330.516 821.246 328.83C821.246 327.788 820.564 327.03 819.749 327.03C818.897 327.03 818.461 327.655 818.461 328.261C818.461 328.943 818.935 329.474 819.636 329.474C819.844 329.474 820.052 329.398 820.166 329.322C820.166 330.156 819.503 331.141 818.48 331.652ZM814.843 331.652L815.24 332.372C816.453 331.804 817.608 330.516 817.608 328.83C817.608 327.788 816.926 327.03 816.112 327.03C815.259 327.03 814.824 327.655 814.824 328.261C814.824 328.943 815.297 329.474 816.017 329.474C816.226 329.474 816.415 329.398 816.529 329.322C816.529 330.156 815.866 331.141 814.843 331.652Z" fill="#FF8A00"/>
<path d="M208.939 117.061C209.525 117.646 210.475 117.646 211.061 117.061L220.607 107.515C221.192 106.929 221.192 105.979 220.607 105.393C220.021 104.808 219.071 104.808 218.485 105.393L210 113.879L201.515 105.393C200.929 104.808 199.979 104.808 199.393 105.393C198.808 105.979 198.808 106.929 199.393 107.515L208.939 117.061ZM208.5 95L208.5 116L211.5 116L211.5 95L208.5 95Z" fill="#3178C6"/>
<path d="M257.939 199.061C258.525 199.646 259.475 199.646 260.061 199.061L269.607 189.515C270.192 188.929 270.192 187.979 269.607 187.393C269.021 186.808 268.071 186.808 267.485 187.393L259 195.879L250.515 187.393C249.929 186.808 248.979 186.808 248.393 187.393C247.808 187.979 247.808 188.929 248.393 189.515L257.939 199.061ZM257.5 177L257.5 198L260.5 198L260.5 177L257.5 177Z" fill="#3178C6"/>
<path d="M311.939 283.061C312.525 283.646 313.475 283.646 314.061 283.061L323.607 273.515C324.192 272.929 324.192 271.979 323.607 271.393C323.021 270.808 322.071 270.808 321.485 271.393L313 279.879L304.515 271.393C303.929 270.808 302.979 270.808 302.393 271.393C301.808 271.979 301.808 272.929 302.393 273.515L311.939 283.061ZM311.5 261L311.5 282L314.5 282L314.5 261L311.5 261Z" fill="#3178C6"/>
<path d="M786.5 312C880.5 134.5 637 75 545.5 67" stroke="#FF8A00" stroke-width="3" stroke-linecap="round" stroke-linejoin="round"/>
<path d="M516.018 63.8665C515.392 64.409 515.324 65.3564 515.866 65.9824L524.708 76.1842C525.251 76.8102 526.198 76.8779 526.824 76.3353C527.45 75.7928 527.518 74.8454 526.975 74.2194L519.116 65.1511L528.184 57.292C528.81 56.7494 528.878 55.8021 528.335 55.176C527.793 54.55 526.845 54.4823 526.219 55.0249L516.018 63.8665ZM545.107 65.5038L517.107 63.5038L516.893 66.4962L544.893 68.4962L545.107 65.5038Z" fill="#FF8A00"/>
</svg>
