<svg width="206" height="206" viewBox="0 0 206 206" fill="none" xmlns="http://www.w3.org/2000/svg">
<g clip-path="url(#clip0_302_142)">
<g clip-path="url(#clip1_302_142)">
<path d="M160.156 166.688L158.312 41.3125C158.312 36.15 154.256 32.0938 149.094 32.0938H47.6875C42.525 32.0938 38.4688 36.15 38.4688 41.3125C38.4688 41.3125 38.4688 174.984 38.6531 175.538C39.3906 179.963 43.0781 183.281 47.6875 183.281H64.2812V190.656L75.3438 185.125L86.4062 190.656V183.281H167.531L160.156 166.688Z" fill="#D9DEEA"/>
<path d="M167.162 155.625H56.5375C49.1625 155.625 47.3187 161.156 47.3187 161.156V35.7812C47.3187 30.6188 51.375 26.5625 56.5375 26.5625H157.944C163.106 26.5625 167.162 30.6188 167.162 35.7812V155.625Z" fill="#3178C6"/>
<path d="M47.6875 164.844H47.3187C46.3969 164.659 45.8438 163.922 45.8438 163V35.7812C45.8438 29.5125 50.4531 24.7188 56.5375 24.7188H157.944C164.213 24.7188 169.375 29.6969 169.375 35.7812V155.625C169.375 156.731 168.638 157.469 167.531 157.469H60.225C52.2969 157.469 49.3469 163.738 49.3469 163.738C48.9781 164.475 48.425 164.844 47.6875 164.844ZM56.5375 28.4062C52.6656 28.4062 49.5312 31.725 49.5312 35.7812V157.653C51.7438 155.625 55.2469 153.781 60.225 153.781H165.688V35.7812C165.688 31.9094 162 28.4062 157.944 28.4062H56.5375Z" fill="#3178C6"/>
<path d="M57 25H55.1667C50.0333 25 46 29.0986 46 34.3151V161C46 161 47.8333 155.411 55.1667 155.411H57V25Z" fill="#246CBA"/>
<path d="M167.162 155.625H56.5375C51.375 155.625 47.3187 159.681 47.3187 164.844V168.531C47.3187 173.694 51.375 177.75 56.5375 177.75H167.162C167.162 177.75 161.631 174.062 161.631 166.688C161.631 159.312 167.162 155.625 167.162 155.625Z" fill="#EAEAEA"/>
<path d="M56.5375 164.844H161.816C162.553 158.759 167.162 155.625 167.162 155.625H56.5375C51.375 155.625 47.3187 159.681 47.3187 164.844V168.531C47.3187 169.453 47.5031 170.375 47.8718 171.297C48.9781 167.609 52.4812 164.844 56.5375 164.844V164.844Z" fill="#D4D6D6"/>
<path d="M167.531 179.594H56.5375C50.4531 179.594 45.8438 174.8 45.8438 168.531V164.844C45.8438 158.575 50.6375 153.781 56.5375 153.781H167.531C168.269 153.781 169.006 154.334 169.375 155.072C169.559 155.809 169.375 156.731 168.638 157.1C168.453 157.284 163.844 160.419 163.844 166.688C163.844 172.956 168.453 176.091 168.638 176.275C169.375 176.644 169.559 177.566 169.375 178.303C169.006 179.041 168.269 179.594 167.531 179.594ZM56.5375 157.469C52.6656 157.469 49.5313 160.787 49.5313 164.844V168.531C49.5313 172.588 52.6656 175.906 56.5375 175.906H163.106C161.631 173.878 160.156 170.744 160.156 166.688C160.156 162.631 161.631 159.497 163.106 157.469H56.5375Z" fill="#246CBA"/>
<path d="M151.154 167H58.8462C57.7385 167 57 166.8 57 166.5C57 166.2 57.9231 166 58.8462 166H151.154C152.262 166 153 166.2 153 166.5C153 166.8 152.077 167 151.154 167Z" fill="#246CBA"/>
<path d="M95.2562 185.125L84.1937 179.594L73.1312 185.125V166.688H95.2562V185.125Z" fill="#6FCF97"/>
<path opacity="0.5" d="M158.313 104C158.313 103.078 157.575 102.156 156.469 102.156C155.363 102.156 154.625 102.894 154.625 104V122.438C154.625 123.544 155.363 124.281 156.469 124.281C157.391 124.281 158.313 123.544 158.313 122.438V104ZM156.469 92.9375C155.363 92.9375 154.625 92.2 154.625 91.0938V45.9219C154.625 41.8656 154.256 39.4688 148.172 39.4688H95.625C94.5188 39.4688 93.7813 38.7313 93.7813 37.625C93.7813 36.5187 94.5188 35.7812 95.625 35.7812H148.172C157.022 35.7812 158.313 40.9437 158.313 45.9219V91.0938C158.313 92.2 157.575 92.9375 156.469 92.9375ZM84.3782 39.4688H73.5C72.3938 39.4688 71.4719 38.7313 71.4719 37.625C71.4719 36.5187 72.3938 35.7812 73.5 35.7812H84.3782C85.4844 35.7812 86.4063 36.5187 86.4063 37.625C86.4063 38.7313 85.4844 39.4688 84.3782 39.4688Z" fill="white"/>
<path d="M95.125 99.6875H74.8438C73.7375 99.6875 73 98.95 73 97.8438C73 96.7375 73.7375 96 74.8438 96H95.125C96.2313 96 96.9688 96.7375 96.9688 97.8438C96.9688 98.95 96.2313 99.6875 95.125 99.6875ZM124.625 99.6875H103.975C102.869 99.6875 102.131 98.95 102.131 97.8438C102.131 96.7375 103.053 96 103.975 96H124.625C125.731 96 126.469 96.7375 126.469 97.8438C126.469 98.95 125.547 99.6875 124.625 99.6875ZM106.188 110.75H74.8438C73.7375 110.75 73 110.013 73 108.906C73 107.8 73.7375 107.062 74.8438 107.062H106.188C107.294 107.062 108.031 107.8 108.031 108.906C108.031 110.013 107.294 110.75 106.188 110.75Z" fill="white"/>
<path d="M124.219 15.6562C120.162 15.6562 116.844 12.3375 116.844 8.28125C116.844 4.225 120.162 0.90625 124.219 0.90625C128.275 0.90625 131.594 4.225 131.594 8.28125C131.594 12.3375 128.275 15.6562 124.219 15.6562ZM124.219 4.40937C122.006 4.40937 120.347 6.25312 120.347 8.28125C120.347 10.4938 122.191 12.1531 124.219 12.1531C126.431 12.1531 128.091 10.3094 128.091 8.28125C128.091 6.06875 126.431 4.40937 124.219 4.40937ZM183.734 171.031C180.231 171.031 177.281 168.081 177.281 164.578C177.281 161.075 180.231 158.125 183.734 158.125C187.237 158.125 190.187 161.075 190.187 164.578C190.187 168.081 187.237 171.031 183.734 171.031ZM183.734 161.075C181.891 161.075 180.231 162.55 180.231 164.578C180.231 166.422 181.706 168.081 183.734 168.081C185.578 168.081 187.237 166.606 187.237 164.578C187.237 162.734 185.578 161.075 183.734 161.075ZM28.5625 117.909C28.5625 117.172 27.825 116.434 26.7187 116.25L23.2156 115.697C22.2937 115.513 21.1875 114.591 21.1875 113.669L20.6344 110.166C20.45 109.244 19.7125 108.322 18.975 108.322C18.2375 108.322 17.5 109.059 17.3156 110.166L16.7625 113.669C16.5781 114.591 15.6562 115.697 14.7344 115.697L11.6 116.25C10.6781 116.434 9.75623 117.172 9.75623 117.909C9.75623 118.647 10.4937 119.384 11.6 119.569L15.1031 120.122C16.025 120.306 17.1312 121.228 17.1312 122.15L17.6844 125.653C17.8687 126.575 18.6062 127.497 19.3437 127.497C20.0812 127.497 20.8187 126.759 21.0031 125.653L21.5562 121.781C21.7406 120.859 22.6625 119.938 23.5843 119.753L26.9031 119.569C27.825 119.2 28.5625 118.647 28.5625 117.909ZM203.562 69.775C203.562 69.0375 202.825 68.3 201.719 68.1156L198.216 67.5625C197.294 67.3781 196.187 66.4563 196.187 65.5344L195.634 62.0312C195.45 61.1094 194.712 60.1875 193.975 60.1875C193.237 60.1875 192.5 60.925 192.316 62.0312L191.762 65.5344C191.578 66.4563 190.656 67.5625 189.734 67.5625L186.231 68.1156C185.309 68.3 184.387 69.0375 184.387 69.775C184.387 70.5125 185.125 71.25 186.231 71.4344L189.734 71.9875C190.656 72.1719 191.762 73.0938 191.762 74.0156L192.316 77.5188C192.5 78.4406 193.237 79.3625 193.975 79.3625C194.712 79.3625 195.45 78.625 195.634 77.5188L196.187 73.6469C196.372 72.725 197.294 71.8031 198.216 71.6188L201.534 71.4344C202.825 71.0656 203.562 70.3281 203.562 69.775Z" fill="#FAAD14"/>
<path d="M83 64.5H77C76.2044 64.5 75.4413 64.8161 74.8787 65.3787C74.3161 65.9413 74 66.7044 74 67.5V85.5H77V78H83V85.5H86V67.5C86 66.7044 85.6839 65.9413 85.1213 65.3787C84.5587 64.8161 83.7956 64.5 83 64.5ZM77 75V67.5H83V75H77Z" fill="white"/>
<path d="M104 67.5H108.5V82.5H104V85.5H116V82.5H111.5V67.5H116V64.5H104V67.5Z" fill="white"/>
<path d="M92 85.5H89V64.5H98C98.7956 64.5 99.5587 64.8161 100.121 65.3787C100.684 65.9413 101 66.7044 101 67.5V75C101 75.7956 100.684 76.5587 100.121 77.1213C99.5587 77.6839 98.7956 78 98 78H92V85.5ZM92 75H98V67.5H92V75Z" fill="white"/>
</g>
</g>
<defs>
<clipPath id="clip0_302_142">
<rect width="206" height="206" fill="white"/>
</clipPath>
<clipPath id="clip1_302_142">
<rect width="236" height="236" fill="white" transform="translate(-15 -22)"/>
</clipPath>
</defs>
</svg>
