<svg width="200" height="202" viewBox="0 0 200 202" fill="none" xmlns="http://www.w3.org/2000/svg">
<path fill-rule="evenodd" clip-rule="evenodd" d="M173.294 131.17C179.936 120.837 183.789 108.541 183.789 95.344C183.789 58.6095 153.735 28.759 117.005 29.0015C80.7592 29.2406 51.4148 58.5523 51.1179 94.7888C50.8178 131.428 80.5117 161.522 117.148 161.688C130.218 161.746 142.412 158.02 152.706 151.549L174.278 158.591C178.18 159.865 181.858 156.13 180.526 152.248L173.294 131.17Z" fill="#3178C6"/>
<path d="M30.1423 94.7324C35.934 94.7324 40.629 90.0368 40.629 84.2445C40.629 78.4522 35.934 73.7567 30.1423 73.7567C24.3507 73.7567 19.6556 78.4522 19.6556 84.2445C19.6556 90.0368 24.3507 94.7324 30.1423 94.7324Z" fill="#6FCF97"/>
<path d="M70.898 101H74.156L75.614 94.412C75.83 93.368 76.01 92.342 76.19 91.316H76.262C76.424 92.342 76.622 93.368 76.838 94.412L78.332 101H81.644L84.11 87.662H81.59L80.528 94.178C80.33 95.564 80.132 96.986 79.934 98.426H79.844C79.556 96.986 79.286 95.546 78.998 94.178L77.468 87.662H75.182L73.634 94.178C73.346 95.564 73.058 96.986 72.788 98.426H72.716C72.518 96.986 72.302 95.582 72.104 94.178L71.042 87.662H68.342L70.898 101ZM90.2847 101.252C91.5267 101.252 92.8047 100.82 93.7947 100.136L92.8947 98.516C92.1747 98.966 91.4547 99.218 90.6267 99.218C89.1327 99.218 88.0527 98.354 87.8367 96.698H94.0467C94.1187 96.464 94.1727 95.978 94.1727 95.474C94.1727 92.702 92.7327 90.668 89.9607 90.668C87.5667 90.668 85.2627 92.702 85.2627 95.96C85.2627 99.29 87.4587 101.252 90.2847 101.252ZM87.8007 94.934C87.9987 93.476 88.9347 92.72 89.9967 92.72C91.2927 92.72 91.9047 93.584 91.9047 94.934H87.8007ZM101.41 101.252C103.624 101.252 105.694 99.254 105.694 95.78C105.694 92.702 104.2 90.668 101.716 90.668C100.726 90.668 99.7177 91.154 98.9257 91.874L98.9977 90.254V86.636H96.3517V101H98.4217L98.6557 99.938H98.7277C99.5377 100.784 100.51 101.252 101.41 101.252ZM100.816 99.074C100.276 99.074 99.6277 98.876 98.9977 98.318V93.89C99.6817 93.188 100.294 92.846 100.978 92.846C102.364 92.846 102.976 93.908 102.976 95.834C102.976 98.03 102.04 99.074 100.816 99.074ZM112.13 101.252C115.208 101.252 117.026 99.398 117.026 97.22C117.026 95.294 115.964 94.268 114.344 93.602L112.598 92.864C111.464 92.414 110.528 92.072 110.528 91.118C110.528 90.236 111.266 89.714 112.436 89.714C113.534 89.714 114.416 90.11 115.262 90.812L116.612 89.138C115.532 88.04 113.984 87.428 112.436 87.428C109.736 87.428 107.828 89.102 107.828 91.28C107.828 93.224 109.178 94.304 110.528 94.862L112.31 95.618C113.498 96.122 114.308 96.428 114.308 97.418C114.308 98.354 113.57 98.948 112.184 98.948C111.014 98.948 109.754 98.354 108.8 97.472L107.27 99.308C108.566 100.55 110.348 101.252 112.13 101.252ZM123.38 101.252C125.9 101.252 128.222 99.308 128.222 95.96C128.222 92.612 125.9 90.668 123.38 90.668C120.86 90.668 118.538 92.612 118.538 95.96C118.538 99.308 120.86 101.252 123.38 101.252ZM123.38 99.092C122.012 99.092 121.238 97.868 121.238 95.96C121.238 94.07 122.012 92.828 123.38 92.828C124.748 92.828 125.522 94.07 125.522 95.96C125.522 97.868 124.748 99.092 123.38 99.092ZM134.72 101.252C135.836 101.252 137.06 100.874 138.032 100.028L136.97 98.282C136.412 98.75 135.728 99.092 135.008 99.092C133.568 99.092 132.506 97.868 132.506 95.96C132.506 94.07 133.55 92.828 135.098 92.828C135.656 92.828 136.124 93.062 136.628 93.494L137.888 91.784C137.15 91.154 136.196 90.668 134.954 90.668C132.218 90.668 129.806 92.612 129.806 95.96C129.806 99.308 131.93 101.252 134.72 101.252ZM139.928 101H142.538V98.444L143.96 96.824L146.408 101H149.27L145.49 95.078L148.946 90.92H146.048L142.61 95.258H142.538V86.636H139.928V101ZM154.691 101.252C155.933 101.252 157.211 100.82 158.201 100.136L157.301 98.516C156.581 98.966 155.861 99.218 155.033 99.218C153.539 99.218 152.459 98.354 152.243 96.698H158.453C158.525 96.464 158.579 95.978 158.579 95.474C158.579 92.702 157.139 90.668 154.367 90.668C151.973 90.668 149.669 92.702 149.669 95.96C149.669 99.29 151.865 101.252 154.691 101.252ZM152.207 94.934C152.405 93.476 153.341 92.72 154.403 92.72C155.699 92.72 156.311 93.584 156.311 94.934H152.207ZM164.237 101.252C165.119 101.252 165.821 101.054 166.361 100.874L165.929 98.948C165.659 99.056 165.263 99.164 164.939 99.164C164.039 99.164 163.571 98.624 163.571 97.472V93.008H166.055V90.92H163.571V88.202H161.375L161.069 90.92L159.503 91.046V93.008H160.925V97.472C160.925 99.722 161.843 101.252 164.237 101.252Z" fill="white"/>
<path fill-rule="evenodd" clip-rule="evenodd" d="M22.3278 152.387C18.4825 146.405 16.2516 139.286 16.2516 131.646C16.2516 110.379 33.6515 93.0968 54.9159 93.2372C75.9005 93.3757 92.8893 110.346 93.0613 131.325C93.235 152.537 76.0437 169.96 54.8334 170.056C47.2666 170.089 40.2067 167.932 34.2473 164.186L21.7578 168.263C19.4991 169 17.3697 166.838 18.141 164.591L22.3278 152.387Z" fill="#E4EBF7"/>
<path d="M32.638 138H35.302V132.24H40.342V138H42.988V124.662H40.342V129.918H35.302V124.662H32.638V138ZM48.907 138H51.571V126.894H55.351V124.662H45.163V126.894H48.907V138ZM60.157 138H62.821V126.894H66.601V124.662H56.413V126.894H60.157V138ZM68.761 138H71.425V133.266H73.207C76.069 133.266 78.355 131.898 78.355 128.856C78.355 125.706 76.087 124.662 73.135 124.662H68.761V138ZM71.425 131.16V126.786H72.937C74.773 126.786 75.745 127.308 75.745 128.856C75.745 130.386 74.863 131.16 73.027 131.16H71.425Z" fill="#3178C6"/>
</svg>
