<svg width="206" height="206" viewBox="0 0 206 206" fill="none" xmlns="http://www.w3.org/2000/svg">
<path d="M187.557 78.9479H18.5239V151.732H187.557V78.9479Z" fill="#253368"/>
<path d="M20.0188 189.216L102.928 144.417" stroke="white" stroke-width="5.4"/>
<path d="M186.243 189.419L103.333 144.011" stroke="white" stroke-width="5.4"/>
<path d="M147.813 19.1729H74.2996C72.0001 19.1729 70.1359 21.0311 70.1359 23.3232V136.592C70.1359 138.884 72.0001 140.742 74.2996 140.742H165.727C168.027 140.742 169.891 138.884 169.891 136.592V41.3494L147.813 19.1729Z" fill="#3178C6"/>
<path d="M147.813 19L147.847 37.2077C147.847 39.4999 149.712 41.358 152.011 41.358H169.891" fill="#E4EBF7"/>
<path d="M114.509 30.2715H41.1637C38.8641 30.2715 37 32.1297 37 34.4218V147.69C37 149.983 38.8641 151.841 41.1637 151.841H132.765C135.064 151.841 136.928 149.983 136.928 147.69V54.5214H120.928C118.629 54.5214 114.509 52.6641 114.509 50.3711V30.2715Z" fill="#E4EBF7"/>
<path d="M67.2791 41.3269H50.783C49.2062 41.3269 47.9279 42.6052 47.9279 44.182V60.6067C47.9279 62.1836 49.2062 63.4618 50.783 63.4618H67.2791C68.8559 63.4618 70.1342 62.1836 70.1342 60.6067V44.182C70.1342 42.6052 68.8559 41.3269 67.2791 41.3269Z" fill="#3178C6"/>
<path d="M124.613 74.5293H48.9647C48.3921 74.5293 47.9279 74.9935 47.9279 75.5661V79.0263C47.9279 79.5989 48.3921 80.063 48.9647 80.063H124.613C125.186 80.063 125.65 79.5989 125.65 79.0263V75.5661C125.65 74.9935 125.186 74.5293 124.613 74.5293Z" fill="#3178C6"/>
<path d="M124.613 91.1115H48.9647C48.3921 91.1115 47.9279 91.5757 47.9279 92.1483V95.6085C47.9279 96.1811 48.3921 96.6453 48.9647 96.6453H124.613C125.186 96.6453 125.65 96.1811 125.65 95.6085V92.1483C125.65 91.5757 125.186 91.1115 124.613 91.1115Z" fill="#FF7946"/>
<path d="M124.613 107.713H48.9647C48.3921 107.713 47.9279 108.177 47.9279 108.749V112.21C47.9279 112.782 48.3921 113.246 48.9647 113.246H124.613C125.186 113.246 125.65 112.782 125.65 112.21V108.749C125.65 108.177 125.186 107.713 124.613 107.713Z" fill="#FAAD14"/>
<path d="M114.509 30.2715V50.3711C114.509 52.6632 116.373 54.5214 118.672 54.5214H136.928" fill="white"/>
<path d="M107.579 143.641C104.787 144.573 101.723 144.179 99.2573 142.571L18.3971 78.9406V186.134C18.3971 188.508 20.7355 190.432 23.2355 190.432H183.127C185.631 190.432 187.662 188.508 187.662 186.134V78.9406L110.446 142.062C109.59 142.752 108.62 143.286 107.579 143.641Z" fill="#FAAD14"/>
<path d="M79.7656 165.219H76.2188V175H74.2578V165.219H70.7422V163.625H79.7656V165.219ZM87.0859 172.07C87.0859 171.57 86.9089 171.185 86.5547 170.914C86.2057 170.643 85.5729 170.37 84.6562 170.094C83.7396 169.818 83.0104 169.51 82.4688 169.172C81.4323 168.521 80.9141 167.672 80.9141 166.625C80.9141 165.708 81.2865 164.953 82.0312 164.359C82.7812 163.766 83.7526 163.469 84.9453 163.469C85.737 163.469 86.4427 163.615 87.0625 163.906C87.6823 164.198 88.1693 164.615 88.5234 165.156C88.8776 165.693 89.0547 166.289 89.0547 166.945H87.0859C87.0859 166.352 86.8984 165.888 86.5234 165.555C86.1536 165.216 85.6224 165.047 84.9297 165.047C84.2839 165.047 83.7812 165.185 83.4219 165.461C83.0677 165.737 82.8906 166.122 82.8906 166.617C82.8906 167.034 83.0833 167.383 83.4688 167.664C83.8542 167.94 84.4896 168.211 85.375 168.477C86.2604 168.737 86.9714 169.036 87.5078 169.375C88.0443 169.708 88.4375 170.094 88.6875 170.531C88.9375 170.964 89.0625 171.471 89.0625 172.055C89.0625 173.003 88.6979 173.758 87.9688 174.32C87.2448 174.878 86.2604 175.156 85.0156 175.156C84.1927 175.156 83.4349 175.005 82.7422 174.703C82.0547 174.396 81.5182 173.974 81.1328 173.438C80.7526 172.901 80.5625 172.276 80.5625 171.562H82.5391C82.5391 172.208 82.7526 172.708 83.1797 173.062C83.6068 173.417 84.2188 173.594 85.0156 173.594C85.7031 173.594 86.2188 173.456 86.5625 173.18C86.9115 172.898 87.0859 172.529 87.0859 172.07ZM90.7969 175V163.625H94.6953C95.9818 163.625 96.9609 163.883 97.6328 164.398C98.3047 164.914 98.6406 165.682 98.6406 166.703C98.6406 167.224 98.5 167.693 98.2188 168.109C97.9375 168.526 97.526 168.849 96.9844 169.078C97.599 169.245 98.0729 169.56 98.4062 170.023C98.7448 170.482 98.9141 171.034 98.9141 171.68C98.9141 172.747 98.5703 173.568 97.8828 174.141C97.2005 174.714 96.2214 175 94.9453 175H90.7969ZM92.7734 169.867V173.422H94.9688C95.5885 173.422 96.0729 173.268 96.4219 172.961C96.7708 172.654 96.9453 172.227 96.9453 171.68C96.9453 170.497 96.3411 169.893 95.1328 169.867H92.7734ZM92.7734 168.414H94.7109C95.3255 168.414 95.8047 168.276 96.1484 168C96.4974 167.719 96.6719 167.323 96.6719 166.812C96.6719 166.25 96.5104 165.844 96.1875 165.594C95.8698 165.344 95.3724 165.219 94.6953 165.219H92.7734V168.414ZM105.828 174.172C105.271 174.828 104.479 175.156 103.453 175.156C102.536 175.156 101.841 174.888 101.367 174.352C100.898 173.815 100.664 173.039 100.664 172.023V166.547H102.562V172C102.562 173.073 103.008 173.609 103.898 173.609C104.82 173.609 105.443 173.279 105.766 172.617V166.547H107.664V175H105.875L105.828 174.172ZM110.266 175V167.953H108.977V166.547H110.266V165.773C110.266 164.836 110.526 164.112 111.047 163.602C111.568 163.091 112.297 162.836 113.234 162.836C113.568 162.836 113.922 162.883 114.297 162.977L114.25 164.461C114.042 164.419 113.799 164.398 113.523 164.398C112.617 164.398 112.164 164.865 112.164 165.797V166.547H113.883V167.953H112.164V175H110.266ZM115.938 175V167.953H114.648V166.547H115.938V165.773C115.938 164.836 116.198 164.112 116.719 163.602C117.24 163.091 117.969 162.836 118.906 162.836C119.24 162.836 119.594 162.883 119.969 162.977L119.922 164.461C119.714 164.419 119.471 164.398 119.195 164.398C118.289 164.398 117.836 164.865 117.836 165.797V166.547H119.555V167.953H117.836V175H115.938ZM124.477 175.156C123.273 175.156 122.297 174.779 121.547 174.023C120.802 173.263 120.43 172.253 120.43 170.992V170.758C120.43 169.914 120.591 169.161 120.914 168.5C121.242 167.833 121.701 167.315 122.289 166.945C122.878 166.576 123.534 166.391 124.258 166.391C125.409 166.391 126.297 166.758 126.922 167.492C127.552 168.227 127.867 169.266 127.867 170.609V171.375H122.344C122.401 172.073 122.633 172.625 123.039 173.031C123.451 173.438 123.966 173.641 124.586 173.641C125.456 173.641 126.164 173.289 126.711 172.586L127.734 173.562C127.396 174.068 126.943 174.461 126.375 174.742C125.812 175.018 125.18 175.156 124.477 175.156ZM124.25 167.914C123.729 167.914 123.307 168.096 122.984 168.461C122.667 168.826 122.464 169.333 122.375 169.984H125.992V169.844C125.951 169.208 125.781 168.729 125.484 168.406C125.188 168.078 124.776 167.914 124.25 167.914ZM133.773 168.281C133.523 168.24 133.266 168.219 133 168.219C132.13 168.219 131.544 168.552 131.242 169.219V175H129.344V166.547H131.156L131.203 167.492C131.661 166.758 132.297 166.391 133.109 166.391C133.38 166.391 133.604 166.427 133.781 166.5L133.773 168.281Z" fill="#C08238"/>
</svg>
