<svg width="203" height="203" viewBox="0 0 203 203" fill="none" xmlns="http://www.w3.org/2000/svg">
<path d="M13.9166 162.425C16.0187 162.425 17.7229 164.129 17.7229 166.232V185.263H36.5162C38.6184 185.263 40.3225 186.967 40.3225 189.069C40.3225 191.171 38.6184 192.875 36.5162 192.875H17.7229C13.5186 192.875 10.1104 189.467 10.1104 185.263V166.232C10.1104 164.129 11.8145 162.425 13.9166 162.425ZM166.405 192.875C164.302 192.875 162.598 191.171 162.598 189.069C162.598 186.967 164.302 185.263 166.405 185.263H185.198L185.198 166.232C185.198 164.129 186.902 162.425 189.004 162.425C191.106 162.425 192.81 164.129 192.81 166.232V185.263C192.81 189.467 189.402 192.875 185.198 192.875H166.405ZM36.5162 10.3086C38.6184 10.3086 40.3225 12.0127 40.3225 14.1148C40.3225 16.217 38.6184 17.9211 36.5162 17.9211H17.7229V36.9523C17.7229 39.0545 16.0187 40.7586 13.9166 40.7586C11.8145 40.7586 10.1104 39.0545 10.1104 36.9523V17.9211C10.1104 13.7589 13.4508 10.3768 17.597 10.3096L17.7229 10.3086L36.5162 10.3086Z" fill="#3178C6"/>
<path d="M192.81 36.9523C192.81 39.0545 191.106 40.7586 189.004 40.7586C186.902 40.7586 185.198 39.0545 185.198 36.9523V17.9211H166.404C164.302 17.9211 162.598 16.217 162.598 14.1148C162.598 12.0127 164.302 10.3086 166.404 10.3086L186.467 10.3086C189.97 10.3086 192.81 13.1488 192.81 16.6523V36.9523Z" fill="#3178C6"/>
<path fill-rule="evenodd" clip-rule="evenodd" d="M118.913 144.053V124.765H101.37H99.5157H81.973V144.053C81.973 145.755 80.9111 147.276 79.3145 147.868C42.7373 161.431 38.5665 171 38.5665 171H99.8324H101.054H162.32C162.32 171 158.149 161.431 121.572 147.868C119.975 147.276 118.913 145.755 118.913 144.053Z" fill="#253368"/>
<path fill-rule="evenodd" clip-rule="evenodd" d="M75.3843 110.539C70.4067 112.708 66.2039 105.837 64.7819 102.9C62.2386 97.6484 64.179 91.6213 66.7325 90.3445C69.0684 89.1766 71.4973 90.6849 71.4973 90.6849C71.4973 90.6849 75.6395 94.5853 76.6021 102.833C77.1782 107.769 75.3843 110.539 75.3843 110.539Z" fill="#3178C6"/>
<path fill-rule="evenodd" clip-rule="evenodd" d="M125.118 110.539C130.095 112.708 134.298 105.837 135.72 102.9C138.263 97.6484 136.323 91.6213 133.77 90.3445C131.434 89.1766 129.005 90.6849 129.005 90.6849C129.005 90.6849 124.863 94.5853 123.9 102.833C123.324 107.769 125.118 110.539 125.118 110.539Z" fill="#3178C6"/>
<path fill-rule="evenodd" clip-rule="evenodd" d="M70.8094 93.7674C72.2628 104.404 72.5647 104.138 74.9719 114.669C76.0662 119.457 86.3726 135.199 100.752 135.199C114.195 135.199 123.947 119.839 125.039 114.942C127.341 104.623 127.617 104.408 128.864 93.7674C133.607 53.3101 99.9551 54.753 99.9551 54.753C99.9551 54.753 65.4768 54.7414 70.8094 93.7674Z" fill="#FAAD14"/>
<path fill-rule="evenodd" clip-rule="evenodd" d="M122.716 67.0761C124.227 73.6175 124.806 82.7137 124.806 82.7137L126.81 85.7682L128.848 96.2056C129.92 91.5154 130.804 81.9646 130.804 80.7135C130.804 60.5164 120.763 46.2515 101.064 46.2515C78.2486 46.2515 68.5981 59.9981 68.5981 80.6866C68.5981 88.9708 71.1024 96.4399 71.1024 96.4399L72.2982 85.7682C72.2982 85.7682 74.0076 83.0569 74.1238 82.6383C74.5585 81.0733 74.7774 73.1153 76.2464 67.0488C76.2464 67.0488 121.801 67.0761 122.716 67.0761Z" fill="#4E5C93"/>
<path fill-rule="evenodd" clip-rule="evenodd" d="M122.716 67.2977C122.716 67.2977 128.628 75.0356 130.541 81.7299C131.584 73.0359 131.8 66.1758 131.237 61.3856C130.889 58.4298 130.367 54.3435 124.759 47.3012C122.831 44.8794 122.673 48.8662 122.673 48.8662C122.673 48.8662 122.369 45.9104 117.848 42.7803C113.563 39.8144 115.239 43.6498 115.239 43.6498C115.239 43.6498 113.154 41.6628 110.371 38.781C107.588 35.8993 103.672 34.2965 101.85 34.0862C100.277 33.9047 97.6364 36.8044 92.9825 38.4333C86.0271 40.8676 82.455 45.8821 82.1257 46.0786C82.3659 44.6049 82.7244 41.777 79.0719 45.2146C75.9531 48.15 72.8467 52.9342 72.6818 53.0955C72.7135 51.725 72.5475 49.3944 70.7256 52.5177C68.2913 56.6909 67.422 61.2118 67.422 61.2118C66.3905 65.0913 68.813 83.121 68.813 83.121C70.8996 74.4269 76.3767 67.3846 76.3767 67.3846C76.3767 67.3846 87.2009 66.8631 100.633 68.6887C110.545 66.8631 122.716 67.2977 122.716 67.2977Z" fill="#253368"/>
<path d="M94.1869 112.856H106.315" stroke="#D48806" stroke-width="1.41562" stroke-linecap="round" stroke-linejoin="round"/>
<path d="M98.0325 117.281H102.47" stroke="#D48806" stroke-width="1.41562" stroke-linecap="round" stroke-linejoin="round"/>
<path d="M61.846 71.2335H79.1159" stroke="white" stroke-width="1.5671" stroke-linecap="round" stroke-linejoin="round"/>
<path fill-rule="evenodd" clip-rule="evenodd" d="M87.1979 71.4865C87.1979 73.7183 85.3887 75.5275 83.1569 75.5275C80.9251 75.5275 79.1158 73.7183 79.1158 71.4865C79.1158 69.2547 80.9251 67.4455 83.1569 67.4455C85.3887 67.4455 87.1979 69.2547 87.1979 71.4865Z" stroke="white" stroke-width="1.5671" stroke-linecap="round" stroke-linejoin="round"/>
<path fill-rule="evenodd" clip-rule="evenodd" d="M135.7 64.0827H65.1864C63.0749 64.0827 61.3146 65.6985 61.1345 67.8022L58.0641 103.635C58.0641 105.966 59.9534 107.856 62.2842 107.856L90.5861 106.339C92.5236 106.236 94.1179 104.778 94.3939 102.857L95.1124 97.8581C95.4001 95.8562 97.1153 94.3698 99.1378 94.3698H101.748C103.771 94.3698 105.486 95.8562 105.774 97.8581L106.492 102.857C106.768 104.778 108.362 106.236 110.3 106.339L138.602 107.856C140.933 107.856 142.822 105.966 142.822 103.635L139.752 67.8022C139.572 65.6985 137.811 64.0827 135.7 64.0827Z" fill="#E4EBF7"/>
<path d="M68.1664 83.1435C68.1664 83.1435 95.5097 68.5983 132.72 83.1435" stroke="#253368" stroke-width="3.2117" stroke-linecap="round" stroke-linejoin="round"/>
<path fill-rule="evenodd" clip-rule="evenodd" d="M170.564 121.193H144.376C143.524 121.193 142.813 121.825 142.694 122.669C141.915 128.172 136.897 131.001 134.705 131.955C134.086 132.225 133.684 132.834 133.684 133.509V155.903C133.684 170.558 157.47 179.896 157.47 179.896C157.47 179.896 181.257 170.558 181.257 155.903V133.509C181.257 132.834 180.854 132.225 180.235 131.955C178.043 131.001 173.025 128.172 172.247 122.669C172.127 121.825 171.416 121.263 170.564 121.263V121.193Z" fill="#E4EBF7"/>
<path fill-rule="evenodd" clip-rule="evenodd" d="M168.363 125.555C168.685 126.553 169.118 127.515 169.656 128.433C170.448 129.783 171.472 131.042 172.701 132.173C174.08 133.442 175.537 134.392 176.803 135.078V155.782C176.803 161.387 171.435 166.35 166.932 169.528C163.272 172.111 159.544 173.967 157.467 174.917C155.424 173.984 151.779 172.17 148.139 169.62C145.06 167.463 142.639 165.237 140.943 163.004C140.02 161.789 139.316 160.57 138.85 159.382C138.371 158.16 138.138 156.983 138.138 155.782V135.078C139.404 134.392 140.861 133.442 142.239 132.173C143.468 131.042 144.492 129.784 145.284 128.433C145.823 127.515 146.255 126.553 146.578 125.555H168.363Z" fill="#6FCF97"/>
<path fill-rule="evenodd" clip-rule="evenodd" d="M155.213 156.69L154 155.442L165.757 143.31C166.159 142.897 166.811 142.897 167.213 143.31L167.698 143.809C168.101 144.222 168.101 144.893 167.698 145.306L156.669 156.69C156.267 157.103 155.615 157.103 155.213 156.69Z" fill="white"/>
<path fill-rule="evenodd" clip-rule="evenodd" d="M158 155.562L156.756 156.714C156.344 157.095 155.675 157.095 155.263 156.714L150.309 152.129C149.897 151.747 149.897 151.128 150.309 150.747L150.807 150.286C151.219 149.905 151.887 149.905 152.3 150.286L158 155.562Z" fill="white"/>
</svg>
