<svg width="205" height="200" viewBox="0 0 205 200" fill="none" xmlns="http://www.w3.org/2000/svg">
<path fill-rule="evenodd" clip-rule="evenodd" d="M89.17 159.551H112.092V141.541H89.17V159.551Z" fill="#253368"/>
<path fill-rule="evenodd" clip-rule="evenodd" d="M125.982 165.719H76.0437C74.009 165.719 72.3597 164.069 72.3597 162.035C72.3597 160 74.009 158.351 76.0437 158.351H125.982C128.016 158.351 129.665 160 129.665 162.035C129.665 164.069 128.016 165.719 125.982 165.719Z" fill="#CCD7EE"/>
<path fill-rule="evenodd" clip-rule="evenodd" d="M177.645 142.71H22.5202C18.712 142.71 15.625 139.623 15.625 135.815V41.2702C15.625 37.462 18.712 34.375 22.5202 34.375H177.645C181.453 34.375 184.54 37.462 184.54 41.2702V135.815C184.54 139.623 181.453 142.71 177.645 142.71Z" fill="#CCD7EE"/>
<path fill-rule="evenodd" clip-rule="evenodd" d="M174.468 137.111H24.9152C23.2659 137.111 21.9289 135.747 21.9289 134.066V44.9056C21.9289 43.2241 23.2659 41.8607 24.9152 41.8607H174.468C176.117 41.8607 177.454 43.2241 177.454 44.9056V134.066C177.454 135.747 176.117 137.111 174.468 137.111Z" fill="#70778F"/>
<path d="M149.072 87.8008H111.009C109.75 87.8008 108.73 88.8207 108.73 90.0789V164.023C108.73 165.281 109.75 166.301 111.009 166.301H149.072C150.33 166.301 151.35 165.281 151.35 164.023V90.0789C151.35 88.8207 150.33 87.8008 149.072 87.8008Z" fill="#9BB9D9"/>
<path d="M111.755 93.4012H148.231C148.748 93.4012 149.167 93.8202 149.167 94.3371V159.765C149.167 160.282 148.748 160.701 148.231 160.701H111.755C111.238 160.701 110.819 160.282 110.819 159.765V94.3371C110.819 93.8202 111.238 93.4012 111.755 93.4012Z" fill="#CCD7EE"/>
<path d="M125.532 91.3129C125.846 91.3129 126.101 91.0579 126.101 90.7434C126.101 90.4288 125.846 90.1738 125.532 90.1738C125.217 90.1738 124.962 90.4288 124.962 90.7434C124.962 91.0579 125.217 91.3129 125.532 91.3129Z" fill="#3E3E3E"/>
<path d="M133.348 90.2688H127.871C127.628 90.2688 127.43 90.4664 127.43 90.7101V90.8715C127.43 91.1153 127.628 91.3129 127.871 91.3129H133.348C133.592 91.3129 133.79 91.1153 133.79 90.8715V90.7101C133.79 90.4664 133.592 90.2688 133.348 90.2688Z" fill="#3E3E3E"/>
<path d="M123.75 129.313C123.75 129.611 123.631 129.898 123.42 130.109C123.21 130.32 122.923 130.438 122.625 130.438C122.327 130.438 122.04 130.32 121.83 130.109C121.619 129.898 121.5 129.611 121.5 129.313V124.251C121.5 123.952 121.619 123.666 121.83 123.455C122.04 123.244 122.327 123.126 122.625 123.126C122.923 123.126 123.21 123.244 123.42 123.455C123.631 123.666 123.75 123.952 123.75 124.251V129.313Z" fill="#7CB342"/>
<path d="M139.5 129.313C139.5 129.611 139.381 129.898 139.17 130.109C138.96 130.32 138.673 130.438 138.375 130.438C138.077 130.438 137.79 130.32 137.58 130.109C137.369 129.898 137.25 129.611 137.25 129.313V124.251C137.25 123.952 137.369 123.666 137.58 123.455C137.79 123.244 138.077 123.126 138.375 123.126C138.673 123.126 138.96 123.244 139.17 123.455C139.381 123.666 139.5 123.952 139.5 124.251V129.313Z" fill="#7CB342"/>
<path d="M129.375 135.5C129.375 135.798 129.256 136.085 129.045 136.295C128.835 136.506 128.548 136.625 128.25 136.625C127.952 136.625 127.665 136.506 127.455 136.295C127.244 136.085 127.125 135.798 127.125 135.5V130.438C127.125 130.139 127.244 129.853 127.455 129.642C127.665 129.431 127.952 129.312 128.25 129.312C128.548 129.312 128.835 129.431 129.045 129.642C129.256 129.853 129.375 130.139 129.375 130.438V135.5Z" fill="#7CB342"/>
<path d="M133.875 135.5C133.875 135.798 133.756 136.085 133.545 136.295C133.335 136.506 133.048 136.625 132.75 136.625C132.452 136.625 132.165 136.506 131.955 136.295C131.744 136.085 131.625 135.798 131.625 135.5V130.438C131.625 130.139 131.744 129.853 131.955 129.642C132.165 129.431 132.452 129.312 132.75 129.312C133.048 129.312 133.335 129.431 133.545 129.642C133.756 129.853 133.875 130.139 133.875 130.438V135.5Z" fill="#7CB342"/>
<path d="M124.875 123.126V131.563C124.875 131.861 124.994 132.147 125.205 132.358C125.415 132.569 125.702 132.688 126 132.688H135C135.298 132.688 135.585 132.569 135.795 132.358C136.006 132.147 136.125 131.861 136.125 131.563V123.126H124.875Z" fill="#7CB342"/>
<path d="M130.5 117.5C127.125 117.5 125.069 119.55 124.875 122H136.125C135.93 119.55 133.875 117.5 130.5 117.5ZM128.25 120.649C128.101 120.649 127.958 120.59 127.852 120.484C127.747 120.379 127.688 120.236 127.688 120.086C127.688 119.937 127.747 119.794 127.852 119.689C127.958 119.583 128.101 119.524 128.25 119.524C128.399 119.524 128.542 119.583 128.648 119.689C128.753 119.794 128.812 119.937 128.812 120.086C128.812 120.236 128.753 120.379 128.648 120.484C128.542 120.59 128.399 120.649 128.25 120.649ZM132.75 120.649C132.601 120.649 132.458 120.59 132.352 120.484C132.247 120.379 132.188 120.236 132.188 120.086C132.188 119.937 132.247 119.794 132.352 119.689C132.458 119.583 132.601 119.524 132.75 119.524C132.899 119.524 133.042 119.583 133.148 119.689C133.253 119.794 133.312 119.937 133.312 120.086C133.312 120.236 133.253 120.379 133.148 120.484C133.042 120.59 132.899 120.649 132.75 120.649Z" fill="#7CB342"/>
<path d="M133.875 116.938L132.938 118.343" stroke="#7CB342" stroke-width="2" stroke-linecap="round"/>
<path d="M127.125 116.938L127.875 118.109" stroke="#7CB342" stroke-width="2" stroke-linecap="round"/>
<path d="M179.072 87.8008H141.009C139.75 87.8008 138.73 88.8207 138.73 90.0789V164.023C138.73 165.281 139.75 166.301 141.009 166.301H179.072C180.33 166.301 181.35 165.281 181.35 164.023V90.0789C181.35 88.8207 180.33 87.8008 179.072 87.8008Z" fill="#3178C6"/>
<path d="M141.755 93.4012H178.231C178.748 93.4012 179.167 93.8202 179.167 94.3371V159.765C179.167 160.282 178.748 160.701 178.231 160.701H141.755C141.238 160.701 140.819 160.282 140.819 159.765V94.3371C140.819 93.8202 141.238 93.4012 141.755 93.4012Z" fill="#CCD7EE"/>
<path d="M155.532 91.3129C155.846 91.3129 156.101 91.0579 156.101 90.7434C156.101 90.4288 155.846 90.1738 155.532 90.1738C155.217 90.1738 154.962 90.4288 154.962 90.7434C154.962 91.0579 155.217 91.3129 155.532 91.3129Z" fill="white"/>
<path d="M163.348 90.2688H157.871C157.628 90.2688 157.43 90.4664 157.43 90.7101V90.8715C157.43 91.1153 157.628 91.3129 157.871 91.3129H163.348C163.592 91.3129 163.79 91.1153 163.79 90.8715V90.7101C163.79 90.4664 163.592 90.2688 163.348 90.2688Z" fill="white"/>
<path d="M164.705 123.984C164.697 122.59 165.316 121.54 166.565 120.766C165.866 119.744 164.809 119.182 163.415 119.074C162.095 118.968 160.651 119.859 160.122 119.859C159.563 119.859 158.286 119.111 157.28 119.111C155.205 119.144 153 120.799 153 124.166C153 125.161 153.178 126.189 153.535 127.247C154.011 128.64 155.73 132.055 157.522 131.999C158.46 131.977 159.123 131.321 160.342 131.321C161.526 131.321 162.139 131.999 163.185 131.999C164.993 131.973 166.547 128.869 167 127.472C164.575 126.305 164.705 124.055 164.705 123.984V123.984ZM162.6 117.752C163.615 116.522 163.523 115.403 163.493 115C162.596 115.053 161.558 115.623 160.967 116.324C160.316 117.076 159.934 118.006 160.016 119.054C160.985 119.129 161.871 118.621 162.6 117.752V117.752Z" fill="#7F8992"/>
<path d="M163.003 54.5064C162.353 55.2706 162.048 56.9823 162.709 58.7245C163.369 60.4668 164.384 60.0898 165.014 61.8626C165.847 64.206 165.461 67.3543 165.461 67.3543C165.461 67.3543 166.466 70.2683 167.167 67.1709C168.721 61.3532 163.003 55.943 163.003 54.5064V54.5064Z" fill="url(#paint0_radial)"/>
<path d="M155.041 78.6638C161.734 78.6638 167.147 73.2026 167.147 66.4577C167.147 59.7128 161.723 54.2619 155.041 54.2619C148.358 54.2619 142.945 59.723 142.945 66.4577C142.934 73.2026 148.358 78.6638 155.041 78.6638Z" fill="url(#paint1_radial)"/>
<path d="M164.11 73.9872C163.846 74.1706 163.572 74.3336 163.288 74.4864C163.663 73.926 164.019 73.3555 164.334 72.7645C164.587 72.4792 164.831 72.2042 165.024 71.8985C165.116 71.7457 165.227 71.5725 165.339 71.3585C166.02 70.1257 166.771 68.1389 166.791 66.1011V65.9483C166.791 65.4389 166.741 64.9193 166.639 64.42C166.649 64.4608 166.649 64.5015 166.659 64.5423C166.649 64.5117 166.649 64.4811 166.639 64.4506C166.649 64.5015 166.659 64.5626 166.67 64.6136C166.812 65.7955 166.71 66.9468 166.212 67.8026C166.202 67.8128 166.192 67.823 166.192 67.8434C166.446 66.5494 166.538 65.123 166.253 63.6966C166.253 63.6966 166.141 63.0038 165.288 60.8947C164.801 59.6823 163.927 58.6838 163.166 57.9604C162.495 57.1249 161.876 56.5645 161.541 56.2079C160.84 55.4642 160.545 54.9038 160.423 54.5472C160.322 54.4962 158.971 53.1819 158.87 53.131C158.28 54.0479 156.442 56.9008 157.316 59.56C157.712 60.7725 158.717 62.0257 159.773 62.7287C159.824 62.7796 160.403 63.4113 160.677 64.8377C160.962 66.3151 160.809 67.4562 160.23 69.1577C159.54 70.6453 157.773 72.1226 156.117 72.2755C152.583 72.6015 151.283 70.4925 151.283 70.4925C152.542 71.0019 153.944 70.8898 154.797 70.3702C155.65 69.8404 156.168 69.443 156.595 69.5959C157.011 69.7487 157.336 69.3004 157.041 68.8317C156.574 68.1083 155.721 67.7415 154.878 67.8842C154.025 68.0268 153.233 68.7094 152.116 68.0472C152.045 68.0064 151.973 67.9555 151.902 67.9045C151.831 67.8536 152.146 67.9759 152.065 67.9249C151.852 67.8026 151.455 67.5479 151.364 67.4562C151.344 67.4359 151.537 67.5174 151.516 67.497C150.47 66.6309 150.602 66.04 150.633 65.6732C150.663 65.3777 150.846 65.0008 151.171 64.8479C151.323 64.9294 151.425 65.0008 151.425 65.0008C151.425 65.0008 151.354 64.8683 151.323 64.797C151.334 64.7868 151.344 64.797 151.364 64.7868C151.496 64.8479 151.77 65.0109 151.923 65.1026C152.116 65.2351 152.177 65.3574 152.177 65.3574C152.177 65.3574 152.227 65.3268 152.187 65.2147C152.177 65.1638 152.116 65.0109 151.923 64.8581H151.933C152.045 64.9193 152.156 65.0008 152.258 65.0823C152.309 64.8887 152.41 64.6849 152.39 64.3181C152.38 64.0634 152.38 63.9921 152.339 63.8902C152.298 63.8087 152.359 63.7679 152.43 63.8596C152.42 63.7883 152.4 63.717 152.37 63.6559V63.6457C152.461 63.34 154.228 62.5351 154.36 62.4434C154.573 62.2906 154.746 62.097 154.878 61.8728C154.98 61.72 155.051 61.4959 155.071 61.1596C155.081 60.9151 154.97 60.7521 153.172 60.5687C152.684 60.5177 152.39 60.1611 152.227 59.8351C152.197 59.7638 152.166 59.7026 152.136 59.6313C152.105 59.56 152.085 59.4785 152.065 59.397C152.359 58.5513 152.847 57.8381 153.578 57.2981C153.619 57.2574 153.416 57.3083 153.456 57.2676C153.507 57.2268 153.802 57.1045 153.862 57.074C153.934 57.0434 153.568 56.8804 153.243 56.9211C152.918 56.9619 152.847 57.0026 152.664 57.074C152.735 57.0026 152.969 56.9008 152.918 56.9109C152.562 56.9619 152.126 57.1759 151.75 57.4102C151.75 57.3694 151.76 57.3287 151.77 57.2879C151.598 57.3593 151.161 57.6649 151.039 57.9196C151.049 57.8687 151.049 57.8177 151.049 57.7668C150.917 57.8789 150.795 58.0011 150.694 58.1438L150.633 58.1642C149.617 57.7566 148.713 57.726 147.962 57.9094C147.799 57.7464 147.718 57.8687 147.332 57.0332C147.302 56.9823 147.352 57.0842 147.332 57.0332C147.271 56.8702 147.373 57.2472 147.332 57.0332C146.702 57.5426 145.87 58.1132 145.463 58.5106C145.463 58.531 145.93 58.3781 145.463 58.5106C145.301 58.5615 145.311 58.6532 145.291 59.5396C145.28 59.6109 145.291 59.6823 145.28 59.7434C144.955 60.1509 144.742 60.4974 144.661 60.6808C144.245 61.394 143.787 62.5147 143.351 64.2774C143.544 63.7985 143.777 63.34 144.052 62.9019C143.686 63.8393 143.33 65.3166 143.259 67.5785C143.351 67.1098 143.462 66.6513 143.605 66.1928C143.513 68.0777 143.838 69.9525 144.549 71.6947C144.803 72.3162 145.22 73.2638 145.941 74.303C148.195 76.677 151.364 78.1543 154.878 78.1543C158.545 78.1543 161.845 76.5445 164.11 73.9872V73.9872Z" fill="url(#paint2_linear)"/>
<path d="M161.388 75.7091C165.827 75.1894 167.797 70.6045 165.268 70.5128C162.993 70.4415 159.286 75.9536 161.388 75.7091V75.7091Z" fill="url(#paint3_radial)"/>
<path d="M165.593 69.5755C168.65 67.7924 167.848 63.9411 167.848 63.9411C167.848 63.9411 166.67 65.3166 165.867 67.5072C165.085 69.6774 163.755 70.6555 165.593 69.5755Z" fill="url(#paint4_radial)"/>
<path d="M155.894 77.9913C160.159 79.3566 163.816 75.9841 161.561 74.8634C159.509 73.8547 153.873 77.3494 155.894 77.9913Z" fill="url(#paint5_radial)"/>
<path d="M165.918 71.2159C166.019 71.0732 166.162 70.6045 166.284 70.3906C167.035 69.1679 167.045 68.2 167.045 68.1796C167.502 65.9075 167.462 64.9702 167.177 63.2585C166.954 61.8728 165.969 59.886 165.116 58.9385C164.242 57.9502 164.851 58.2762 164.009 57.5528C163.267 56.7275 162.536 55.9023 162.15 55.5762C159.306 53.1921 159.367 52.6826 159.428 52.6011L159.387 52.6419C159.357 52.5094 159.326 52.3974 159.326 52.3974C159.326 52.3974 157.762 53.946 157.437 56.5441C157.224 58.2355 157.854 60.0083 158.778 61.1392C159.255 61.7302 159.794 62.26 160.383 62.7287C161.073 63.7272 161.459 64.96 161.459 66.2845C161.459 69.606 158.778 72.2857 155.467 72.2857C155.02 72.2857 154.563 72.2347 154.126 72.1328C152.562 71.8374 151.669 71.0426 151.212 70.5026C150.958 70.197 150.846 69.9728 150.846 69.9728C152.248 70.4721 153.791 70.3702 154.736 69.8506C155.68 69.3208 156.259 68.9336 156.726 69.0864C157.184 69.2392 157.549 68.7909 157.224 68.3325C156.899 67.874 156.066 67.2117 154.827 67.3951C153.883 67.5377 153.009 68.2102 151.77 67.5581C151.689 67.5174 151.608 67.4664 151.537 67.4257C151.455 67.3747 151.801 67.497 151.719 67.446C151.476 67.3238 151.049 67.0691 150.937 66.9774C150.917 66.957 151.12 67.0385 151.11 67.0181C149.952 66.1623 150.094 65.5815 150.125 65.2147C150.155 64.9192 150.369 64.5525 150.724 64.3996C150.897 64.4811 150.998 64.5525 150.998 64.5525C150.998 64.5525 150.927 64.42 150.887 64.3487C150.897 64.3385 150.917 64.3487 150.927 64.3385C151.069 64.3996 151.384 64.5525 151.547 64.6543C151.76 64.7868 151.831 64.9091 151.831 64.9091C151.831 64.9091 151.892 64.8785 151.841 64.7664C151.821 64.7155 151.76 64.5626 151.547 64.4098H151.557C151.679 64.4709 151.801 64.5525 151.912 64.634C151.973 64.4404 152.075 64.2366 152.055 63.8698C152.044 63.6151 152.044 63.5438 151.994 63.4521C151.953 63.3706 152.014 63.3298 152.095 63.4215C152.085 63.3502 152.055 63.2891 152.024 63.2177V63.2075C152.126 62.9019 154.086 62.1072 154.228 62.0155C154.462 61.8728 154.655 61.6792 154.807 61.4551C154.919 61.3023 155 61.0781 155.02 60.7419C155.03 60.5891 154.98 60.477 154.462 60.3547C154.147 60.2834 153.669 60.2223 152.918 60.1509C152.38 60.1 152.055 59.7536 151.872 59.4275C151.841 59.3562 151.801 59.2951 151.77 59.234C151.74 59.1626 151.709 59.0811 151.689 59.0098C152.014 58.154 152.603 57.4306 153.365 56.9313C153.405 56.8906 153.192 56.9415 153.233 56.9008C153.284 56.86 153.619 56.7377 153.68 56.7072C153.761 56.6766 153.355 56.5238 152.989 56.5543C152.623 56.5951 152.552 56.6257 152.349 56.7072C152.43 56.6358 152.684 56.5441 152.623 56.5441C152.258 56.5849 151.77 56.7887 151.354 57.023C151.354 56.9823 151.364 56.9415 151.374 56.9008C151.181 56.9721 150.704 57.2777 150.562 57.5324C150.572 57.4815 150.572 57.4306 150.572 57.3898C150.43 57.5019 150.287 57.6241 150.176 57.7668L150.166 57.777C149.038 57.3694 148.043 57.3389 147.21 57.5223C147.027 57.3592 146.733 57.1045 146.316 56.2792C146.286 56.2283 146.276 56.3811 146.255 56.3302C146.093 55.9532 145.991 55.3317 146.012 54.9038C146.012 54.9038 145.676 55.0566 145.402 55.6985C145.351 55.8106 145.321 55.8819 145.28 55.943C145.26 55.9634 145.311 55.7291 145.311 55.7494C145.26 55.8309 145.138 55.943 145.087 56.0958C145.047 56.2079 144.996 56.2691 144.966 56.4015L144.955 56.4117C144.955 56.3709 144.966 56.2487 144.955 56.2691C144.823 56.534 144.712 56.8091 144.62 57.0841C144.468 57.5732 144.295 58.2457 144.265 59.1219C144.255 59.183 144.265 59.2645 144.255 59.3257C143.899 59.7332 143.655 60.0796 143.564 60.2528C143.107 60.966 142.599 62.0664 142.112 63.8189C142.325 63.34 142.589 62.8815 142.894 62.4536C142.487 63.3808 142.091 64.8479 142.01 67.0894C142.112 66.6208 142.234 66.1623 142.386 65.714C142.315 67.2117 142.487 69.0762 143.432 71.1751C143.991 72.4079 145.28 74.9143 148.439 76.8706C148.439 76.8706 149.516 77.6755 151.354 78.2766C151.486 78.3275 151.628 78.3785 151.77 78.4192C151.73 78.3989 151.679 78.3785 151.638 78.3683C152.867 78.7351 154.137 78.9287 155.426 78.9287C160.2 78.9287 161.612 77.003 161.612 77.003L161.601 77.0132C161.673 76.9521 161.734 76.8808 161.794 76.8196C161.043 77.5328 159.316 77.5838 158.676 77.5328C159.773 77.2068 160.494 76.9317 161.896 76.4019C162.059 76.3408 162.231 76.2694 162.404 76.1879L162.455 76.1574C162.485 76.137 162.526 76.1268 162.556 76.1064C163.237 75.7804 163.887 75.383 164.476 74.9042C165.887 73.7732 166.192 72.6728 166.355 71.9494C166.334 72.0208 166.263 72.1838 166.212 72.2857C165.847 73.06 165.044 73.5491 164.171 73.9566C164.587 73.4064 164.973 72.8358 165.329 72.2449C165.613 71.9596 165.694 71.5113 165.918 71.2159V71.2159Z" fill="url(#paint6_radial)"/>
<path d="M164.202 73.9159C164.78 73.2842 165.288 72.5506 165.684 71.7253C166.69 69.606 168.244 66.0706 167.025 62.3925C166.06 59.4785 164.73 57.8891 163.044 56.3302C160.302 53.8034 159.54 52.6725 159.54 52C159.54 52 156.371 55.5355 157.742 59.234C159.113 62.9325 161.927 62.7898 163.785 66.6411C165.979 71.1751 162.018 76.1268 158.738 77.5125C158.941 77.4717 166.02 75.8619 166.395 71.7966C166.375 71.8679 166.213 72.9989 164.202 73.9159V73.9159Z" fill="url(#paint7_radial)"/>
<path d="M155.02 60.7419C155.03 60.4974 154.909 60.3445 152.928 60.1509C152.116 60.0796 151.801 59.3257 151.709 58.9996C151.425 59.7536 151.303 60.5483 151.364 61.506C151.405 62.1377 151.831 62.8102 152.024 63.1974C152.024 63.1974 152.065 63.1362 152.085 63.1158C152.461 62.7185 154.045 62.1174 154.198 62.0358C154.37 61.934 155 61.4755 155.02 60.7419V60.7419Z" fill="url(#paint8_linear)"/>
<path d="M146.316 56.2792C146.286 56.2283 146.276 56.3811 146.255 56.3302C146.093 55.9532 145.991 55.3419 146.022 54.9038C146.022 54.9038 145.687 55.0566 145.412 55.6985C145.362 55.8106 145.331 55.8819 145.291 55.943C145.27 55.9634 145.321 55.7291 145.321 55.7494C145.27 55.8309 145.148 55.943 145.098 56.0857C145.057 56.1977 145.006 56.2691 144.976 56.4117C144.966 56.4525 144.986 56.2385 144.976 56.2691C144.326 57.5223 144.204 59.4174 144.275 59.3359C145.656 57.8585 147.23 57.5121 147.23 57.5121C147.037 57.3898 146.672 57.023 146.316 56.2792Z" fill="url(#paint9_linear)"/>
<path d="M151.537 71.7049C149.637 70.8898 147.474 69.7385 147.555 67.1302C147.667 63.6966 150.755 64.369 150.755 64.369C150.643 64.3996 150.328 64.6238 150.216 64.8581C150.105 65.1536 149.891 65.826 150.531 66.529C151.547 67.6294 148.449 69.1373 153.223 71.9902C153.345 72.0513 152.105 71.9494 151.537 71.7049V71.7049Z" fill="url(#paint10_linear)"/>
<path d="M150.866 69.9932C152.217 70.4619 153.781 70.3804 154.726 69.8608C155.355 69.5042 156.168 68.9438 156.655 69.0864C156.229 68.9132 155.904 68.8317 155.508 68.8215C155.437 68.8215 155.366 68.8215 155.295 68.8113C155.152 68.8113 155.01 68.8215 154.868 68.8317C154.624 68.8521 154.36 69.0049 154.116 68.9845C154.106 68.9845 154.35 68.8826 154.33 68.8826C154.198 68.9132 154.055 68.9132 153.913 68.9336C153.822 68.9438 153.741 68.954 153.639 68.9642C150.826 69.1985 148.459 67.4359 148.459 67.4359C148.256 68.1083 149.363 69.4634 150.866 69.9932Z" fill="url(#paint11_linear)"/>
<path d="M164.191 73.9362C167.035 71.1343 168.467 67.7415 167.858 63.9208C167.858 63.9208 168.102 65.877 167.177 67.874C167.624 65.9177 167.675 63.4928 166.497 60.9762C164.933 57.6242 162.353 55.8513 161.368 55.1177C159.875 53.997 159.255 52.866 159.245 52.6317C158.798 53.5487 157.448 56.6868 159.103 59.3868C160.647 61.9238 163.084 62.6675 164.78 64.9906C167.929 69.28 164.191 73.9362 164.191 73.9362Z" fill="url(#paint12_linear)"/>
<path d="M163.785 66.6513C162.79 64.5932 161.551 63.6966 160.383 62.7287C160.515 62.9223 160.555 62.9834 160.627 63.1159C161.663 64.2162 163.176 66.906 162.079 70.2887C159.997 76.6464 151.689 73.6509 150.816 72.8155C151.171 76.4936 157.305 78.2562 161.307 75.8721C163.572 73.6917 165.41 70.0238 163.785 66.6513V66.6513Z" fill="url(#paint13_linear)"/>
<path d="M46.9786 53.0035C46.9786 53.0035 54.6283 52.6616 58.684 60.3208H46.3277C46.3277 60.3208 43.9958 60.2459 42.0038 63.0638C41.4316 64.2466 40.8166 65.4649 41.5068 67.866C40.5125 66.1881 36.2281 58.7569 36.2281 58.7569C36.2281 58.7569 39.2501 53.3063 46.9785 53.0035H46.9786Z" fill="#EF3F36"/>
<path d="M58.2869 72.4473C58.2869 72.4473 54.757 79.2194 46.0737 78.8846C47.1467 77.0356 52.2536 68.2258 52.2536 68.2258C52.2536 68.2258 53.4875 66.2522 52.0319 63.1244C51.2915 62.0379 50.5369 60.9015 48.1051 60.2958C50.0614 60.2781 58.6625 60.2958 58.6625 60.2958C58.6625 60.2958 61.8847 65.6288 58.2869 72.4473Z" fill="#FCD900"/>
<path d="M35.7238 72.5007C35.7238 72.5007 31.6003 66.0705 36.2352 58.7462C37.3045 60.5951 42.4115 69.405 42.4115 69.405C42.4115 69.405 43.5131 71.457 46.957 71.7632C48.2696 71.6671 49.6357 71.5851 51.3811 69.7933C50.4189 71.489 46.1022 78.8988 46.1022 78.8988C46.1022 78.8988 39.8508 79.0128 35.7237 72.5007H35.7238Z" fill="#61BC5B"/>
<path d="M46.0702 78.9487L47.8082 71.7241C47.8082 71.7241 49.718 71.5744 51.3203 69.8253C50.326 71.5674 46.0702 78.9487 46.0702 78.9487V78.9487Z" fill="#5AB055"/>
<path d="M41.1563 66.0562C41.1563 62.8715 43.7492 60.2887 46.9464 60.2887C50.1436 60.2887 52.7365 62.8715 52.7365 66.0562C52.7365 69.2411 50.1436 71.8238 46.9464 71.8238C43.7492 71.8202 41.1563 69.2411 41.1563 66.0562V66.0562Z" fill="white"/>
<path d="M42.1254 66.0562C42.1254 63.4059 44.282 61.2541 46.9464 61.2541C49.6071 61.2541 51.7672 63.4023 51.7672 66.0562C51.7672 68.7067 49.6108 70.8585 46.9464 70.8585C44.2855 70.8585 42.1254 68.7067 42.1254 66.0562V66.0562Z" fill="url(#paint14_linear)"/>
<path d="M58.6589 60.2994L51.5026 62.3906C51.5026 62.3906 50.4226 60.8123 48.1015 60.2994C50.115 60.2887 58.6589 60.2994 58.6589 60.2994V60.2994Z" fill="#EACA05"/>
<path d="M41.3673 67.6024C40.3623 65.8675 36.2281 58.7569 36.2281 58.7569L41.5282 63.9794C41.5282 63.9794 40.9846 65.0945 41.1885 66.6904L41.3672 67.6024H41.3673Z" fill="#DF3A32"/>
<g filter="url(#filter0_d)">
<path d="M82.6298 78.2595C89.605 78.2595 95.2595 72.605 95.2595 65.6298C95.2595 58.6545 89.605 53 82.6298 53C75.6545 53 70 58.6545 70 65.6298C70 72.605 75.6545 78.2595 82.6298 78.2595Z" fill="url(#paint15_linear)"/>
</g>
<path d="M82.6298 77.3123C89.0819 77.3123 94.3123 72.0819 94.3123 65.6298C94.3123 59.1777 89.0819 53.9472 82.6298 53.9472C76.1777 53.9472 70.9472 59.1777 70.9472 65.6298C70.9472 72.0819 76.1777 77.3123 82.6298 77.3123Z" fill="url(#paint16_radial)"/>
<path d="M82.6495 56.7889C82.5706 56.7889 82.5015 56.7298 82.5015 56.6508V54.5886C82.5015 54.5097 82.5706 54.4505 82.6495 54.4505C82.7285 54.4505 82.7975 54.5097 82.7975 54.5886V56.6508C82.7876 56.7298 82.7285 56.7889 82.6495 56.7889Z" fill="#F3F3F3"/>
<path d="M82.6495 56.7988C82.5607 56.7988 82.4917 56.7298 82.4917 56.6508V54.5886C82.4917 54.5097 82.5607 54.4406 82.6495 54.4406C82.7383 54.4406 82.8074 54.5097 82.8074 54.5886V56.6508C82.8074 56.7298 82.7285 56.7988 82.6495 56.7988ZM82.6495 54.4603C82.5805 54.4603 82.5114 54.5195 82.5114 54.5886V56.6508C82.5114 56.7199 82.5706 56.7792 82.6495 56.7792C82.7186 56.7792 82.7876 56.7199 82.7876 56.6508V54.5886C82.7779 54.5195 82.7186 54.4603 82.6495 54.4603V54.4603Z" fill="white"/>
<path d="M83.6363 55.6838C83.5573 55.6739 83.4982 55.6148 83.4982 55.5358L83.5672 54.6181C83.577 54.5393 83.6462 54.48 83.7251 54.4899C83.804 54.4998 83.8632 54.5591 83.8632 54.638L83.7942 55.5556C83.7843 55.6345 83.7152 55.6937 83.6363 55.6839V55.6838Z" fill="#F3F3F3"/>
<path d="M83.6363 55.6937C83.5475 55.6838 83.4883 55.6148 83.4883 55.5358L83.5574 54.6182C83.5672 54.5393 83.6363 54.4703 83.7251 54.48C83.8138 54.4899 83.8731 54.5591 83.8731 54.6379L83.804 55.5556C83.7942 55.6444 83.7251 55.7036 83.6363 55.6937ZM83.7251 54.4998C83.656 54.4998 83.5869 54.5492 83.5869 54.6183L83.5178 55.5359C83.5178 55.6049 83.5672 55.6642 83.6462 55.674C83.7152 55.674 83.7843 55.6247 83.7843 55.5556L83.8533 54.6379C83.8533 54.5689 83.7942 54.5097 83.725 54.4998H83.7251Z" fill="white"/>
<path d="M84.3764 56.9666C84.2973 56.9468 84.248 56.8777 84.2579 56.7988L84.6625 54.776C84.6822 54.6972 84.7513 54.6478 84.8302 54.6675C84.9091 54.6873 84.9584 54.7564 84.9486 54.8353L84.544 56.8581C84.5341 56.927 84.4552 56.9764 84.3762 56.9666H84.3764Z" fill="#F3F3F3"/>
<path d="M84.3764 56.9764C84.2874 56.9567 84.2381 56.8777 84.248 56.7988L84.6526 54.776C84.6723 54.6972 84.7513 54.6379 84.84 54.6577C84.9288 54.6774 84.9782 54.7563 84.9683 54.8353L84.5638 56.8581C84.544 56.9369 84.4651 56.9863 84.3764 56.9764ZM84.84 54.6774C84.7709 54.6675 84.7019 54.707 84.6821 54.7761L84.2777 56.7989C84.2678 56.8679 84.3072 56.9369 84.3861 56.9568C84.4552 56.9666 84.5242 56.927 84.544 56.858L84.9486 54.8353C84.9584 54.7563 84.9091 54.6972 84.84 54.6774V54.6774Z" fill="white"/>
<path d="M85.5603 56.0785C85.5415 56.074 85.5238 56.0658 85.5082 56.0544C85.4925 56.043 85.4793 56.0287 85.4692 56.0122C85.4592 55.9957 85.4524 55.9773 85.4494 55.9583C85.4465 55.9392 85.4473 55.9197 85.4518 55.9009L85.6985 55.0129C85.7182 54.934 85.7971 54.8945 85.876 54.9142C85.955 54.934 86.0044 55.0129 85.9846 55.0918L85.7379 55.9799C85.7182 56.0587 85.6392 56.0983 85.5603 56.0785Z" fill="#F3F3F3"/>
<path d="M85.5603 56.0884C85.4814 56.0686 85.4222 55.9798 85.4518 55.901L85.6985 55.0128C85.7182 54.934 85.807 54.8846 85.8859 54.9044C85.9648 54.9241 86.024 55.0129 85.9945 55.0918L85.7478 55.9799C85.728 56.0588 85.6491 56.1082 85.5604 56.0884H85.5603ZM85.8859 54.934C85.8169 54.9142 85.7379 54.9538 85.7182 55.0228L85.4716 55.9108C85.4518 55.9798 85.4912 56.049 85.5702 56.0686C85.6392 56.0884 85.7182 56.049 85.7379 55.9799L85.9846 55.0918C85.9945 55.0228 85.9551 54.9538 85.8859 54.9339V54.934Z" fill="white"/>
<path d="M86.0438 57.4698C85.9648 57.4402 85.9353 57.3514 85.9648 57.2823L86.7542 55.378C86.7837 55.3089 86.8727 55.2694 86.9416 55.3089C87.0207 55.3384 87.0503 55.4274 87.0207 55.4963L86.2313 57.4007C86.2018 57.4698 86.1128 57.5092 86.0439 57.4698H86.0438Z" fill="#F3F3F3"/>
<path d="M86.0438 57.4797C86.0059 57.4652 85.9752 57.4363 85.9586 57.3993C85.9419 57.3623 85.9406 57.3203 85.955 57.2823L86.7443 55.3779C86.774 55.299 86.8628 55.2694 86.9516 55.299C86.9895 55.3135 87.0202 55.3424 87.0368 55.3794C87.0534 55.4164 87.0547 55.4584 87.0404 55.4964L86.2511 57.4007C86.2115 57.4797 86.1227 57.5191 86.0438 57.4797ZM86.9417 55.3188C86.8727 55.2892 86.7937 55.3188 86.7641 55.3878L85.9747 57.2922C85.9452 57.3612 85.9846 57.4303 86.0537 57.4599C86.1227 57.4895 86.2017 57.4599 86.2313 57.3909L87.0207 55.4865C87.0404 55.4272 87.0108 55.3483 86.9417 55.3188V55.3188Z" fill="white"/>
<path d="M87.3759 56.8383C87.3068 56.7988 87.2771 56.7199 87.3068 56.6508L87.7212 55.8319C87.7606 55.7628 87.8396 55.7331 87.9186 55.7726C87.9877 55.8122 88.0172 55.8911 87.9877 55.9601L87.5731 56.7791C87.5337 56.8481 87.4548 56.8779 87.3758 56.8383H87.3759Z" fill="#F3F3F3"/>
<path d="M87.3759 56.8482C87.2969 56.8087 87.2673 56.7199 87.3068 56.6409L87.7212 55.822C87.7606 55.743 87.8495 55.7135 87.9284 55.7529C88.0073 55.7924 88.0369 55.8812 87.9974 55.9601L87.5831 56.779C87.5436 56.858 87.4548 56.8876 87.3758 56.8481L87.3759 56.8482ZM87.9186 55.7726C87.8494 55.7431 87.7705 55.7628 87.741 55.8318L87.3265 56.6508C87.297 56.71 87.3265 56.7889 87.3857 56.8284C87.4548 56.858 87.5337 56.8383 87.5633 56.7693L87.9778 55.9503C88.0073 55.8911 87.9778 55.8122 87.9186 55.7726Z" fill="white"/>
<path d="M87.5732 58.2986C87.5042 58.2493 87.4844 58.1605 87.5337 58.1013L88.6783 56.3942C88.7177 56.3252 88.8066 56.3153 88.8756 56.3548C88.9448 56.4041 88.9644 56.4929 88.9151 56.5521L87.7705 58.2592C87.7311 58.3282 87.6423 58.348 87.5732 58.2986Z" fill="#F3F3F3"/>
<path d="M87.5732 58.3085C87.5042 58.2592 87.4844 58.1605 87.5239 58.0914L88.6684 56.3844C88.7177 56.3153 88.8065 56.2956 88.8855 56.345C88.9545 56.3942 88.9743 56.4929 88.9349 56.562L87.7903 58.2691C87.741 58.3381 87.6423 58.3578 87.5732 58.3085ZM88.8756 56.3647C88.8165 56.3252 88.7276 56.3351 88.6882 56.3942L87.5436 58.1013C87.5042 58.1604 87.5238 58.2394 87.5831 58.2788C87.6423 58.3184 87.7311 58.3085 87.7705 58.2493L88.9151 56.5521C88.9545 56.4929 88.9349 56.4041 88.8756 56.3647V56.3647Z" fill="white"/>
<path d="M89.0137 57.9335C88.9546 57.8841 88.9349 57.7953 88.9842 57.7362L89.5565 57.0158C89.6058 56.9568 89.6946 56.9468 89.7538 56.9962C89.8131 57.0455 89.8327 57.1343 89.7833 57.1935L89.2111 57.9138C89.1618 57.973 89.073 57.9828 89.0138 57.9335H89.0137Z" fill="#F3F3F3"/>
<path d="M89.0039 57.9434C88.9349 57.894 88.925 57.7953 88.9744 57.7263L89.5466 57.0061C89.5959 56.9369 89.6946 56.927 89.7637 56.9863C89.8327 57.0356 89.8426 57.1343 89.7932 57.2034L89.221 57.9237C89.1717 57.9927 89.073 58.0026 89.0039 57.9434V57.9434ZM89.7439 57.006C89.6848 56.9567 89.6058 56.9666 89.5565 57.0257L88.9842 57.746C88.9448 57.8052 88.9546 57.8842 89.0137 57.9335C89.073 57.9829 89.1519 57.973 89.2012 57.9138L89.7735 57.1935C89.8131 57.1343 89.8031 57.0455 89.744 57.0061L89.7439 57.006Z" fill="white"/>
<path d="M88.9151 59.4136C88.8559 59.3544 88.8559 59.2656 88.9151 59.2162L90.3754 57.7658C90.4347 57.7066 90.5234 57.7164 90.5728 57.7658C90.6221 57.8151 90.632 57.9138 90.5728 57.9631L89.1224 59.4136C89.0631 59.4727 88.9743 59.4727 88.9151 59.4136V59.4136Z" fill="#F3F3F3"/>
<path d="M88.9052 59.4235C88.8768 59.3945 88.8608 59.3555 88.8608 59.3149C88.8608 59.2743 88.8768 59.2354 88.9052 59.2064L90.3655 57.7559C90.3945 57.7274 90.4335 57.7115 90.4741 57.7115C90.5147 57.7115 90.5537 57.7274 90.5827 57.7559C90.6111 57.7849 90.6271 57.8239 90.6271 57.8645C90.6271 57.905 90.6111 57.944 90.5827 57.973L89.1223 59.4234C89.0933 59.4518 89.0544 59.4678 89.0138 59.4678C88.9732 59.4678 88.9342 59.4518 88.9052 59.4234V59.4235ZM90.5728 57.7658C90.5235 57.7164 90.4347 57.7164 90.3854 57.7658L88.925 59.2162C88.8756 59.2656 88.8756 59.3544 88.925 59.4037C88.9743 59.4531 89.0631 59.4531 89.1124 59.4037L90.5728 57.9533C90.6221 57.9039 90.6221 57.825 90.5728 57.7658Z" fill="white"/>
<path d="M90.3951 59.3346C90.3459 59.2755 90.3459 59.1867 90.405 59.1373L91.1056 58.5453C91.1648 58.496 91.2536 58.5058 91.303 58.565C91.3523 58.6242 91.3523 58.713 91.2931 58.7623L90.5925 59.3544C90.5333 59.4037 90.4444 59.3938 90.3951 59.3346Z" fill="#F3F3F3"/>
<path d="M90.3853 59.3445C90.3261 59.2755 90.336 59.1768 90.3952 59.1275L91.0957 58.5354C91.1549 58.4762 91.2536 58.4861 91.3127 58.5552C91.372 58.6242 91.3621 58.7229 91.303 58.7722L90.6023 59.3643C90.5432 59.4234 90.4445 59.4136 90.3854 59.3445H90.3853ZM91.2931 58.5651C91.2437 58.5059 91.1648 58.5059 91.1057 58.5453L90.405 59.1374C90.3557 59.1867 90.3459 59.2656 90.3952 59.3248C90.4445 59.384 90.5235 59.384 90.5826 59.3445L91.2832 58.7525C91.3424 58.7032 91.3424 58.6242 91.2931 58.5651Z" fill="white"/>
<path d="M90.0005 60.7555C89.9512 60.6864 89.9709 60.5976 90.04 60.5581L91.7568 59.4136C91.8259 59.3741 91.9147 59.3938 91.9541 59.4531C92.0035 59.5222 91.9838 59.611 91.9147 59.6504L90.1979 60.7949C90.1386 60.8344 90.0498 60.8147 90.0005 60.7555V60.7555Z" fill="#F3F3F3"/>
<path d="M89.9906 60.7555C89.9413 60.6864 89.9611 60.5877 90.0301 60.5384L91.7469 59.3938C91.816 59.3445 91.9147 59.3643 91.964 59.4432C92.0134 59.5123 91.9935 59.611 91.9246 59.6602L90.2077 60.8049C90.1386 60.8543 90.04 60.8345 89.9906 60.7556V60.7555ZM91.9442 59.463C91.9048 59.4037 91.8259 59.3839 91.7667 59.4235L90.0498 60.568C89.9907 60.6075 89.9708 60.6864 90.0202 60.7555C90.0596 60.8147 90.1386 60.8344 90.1979 60.795L91.9147 59.6504C91.9739 59.6011 91.9838 59.5221 91.9442 59.463Z" fill="white"/>
<path d="M91.4707 60.9628C91.4312 60.8936 91.451 60.8049 91.52 60.7654L92.3193 60.3115C92.3883 60.272 92.4771 60.3016 92.5165 60.3706C92.5561 60.4398 92.5363 60.5285 92.4672 60.568L91.668 61.022C91.5989 61.0614 91.5101 61.0318 91.4706 60.9627L91.4707 60.9628Z" fill="#F3F3F3"/>
<path d="M91.4608 60.9726C91.4213 60.8936 91.4411 60.8048 91.5101 60.7654L92.3094 60.3115C92.3784 60.272 92.4771 60.3016 92.5165 60.3706C92.5561 60.4496 92.5363 60.5385 92.4672 60.5779L91.668 61.0318C91.599 61.0713 91.5003 61.0416 91.4608 60.9726V60.9726ZM92.5067 60.3806C92.4672 60.3115 92.3883 60.2918 92.3291 60.3312L91.5299 60.7851C91.4707 60.8246 91.451 60.9035 91.4805 60.9627C91.52 61.0317 91.599 61.0515 91.6581 61.0121L92.4574 60.5581C92.5165 60.5286 92.5363 60.4496 92.5067 60.3806V60.3806Z" fill="white"/>
<path d="M90.8096 62.2751C90.7801 62.1961 90.8096 62.1172 90.8885 62.0876L92.7929 61.2983C92.8619 61.2686 92.9507 61.3081 92.9803 61.3771C93.0099 61.4561 92.9803 61.535 92.9013 61.5645L90.9971 62.3539C90.9279 62.3835 90.8392 62.3539 90.8096 62.2751Z" fill="#F3F3F3"/>
<path d="M90.7997 62.2848C90.7702 62.206 90.7997 62.1172 90.8786 62.0777L92.783 61.2883C92.8209 61.274 92.863 61.2753 92.9 61.292C92.937 61.3086 92.9658 61.3392 92.9803 61.3771C93.0099 61.456 92.9803 61.5449 92.9013 61.5843L90.9971 62.3736C90.9592 62.388 90.9171 62.3867 90.8801 62.3701C90.8431 62.3534 90.8142 62.3228 90.7997 62.2849V62.2848ZM92.9606 61.387C92.931 61.3179 92.852 61.2883 92.7929 61.3081L90.8885 62.0974C90.8195 62.127 90.7898 62.206 90.8195 62.275C90.849 62.3441 90.9279 62.3737 90.9872 62.354L92.8915 61.5646C92.9606 61.5351 92.9903 61.456 92.9606 61.387Z" fill="white"/>
<path d="M92.2008 62.7684C92.1713 62.6894 92.2107 62.6105 92.2896 62.5809L93.1579 62.2947C93.227 62.2651 93.3158 62.3144 93.3355 62.3835C93.3651 62.4624 93.3257 62.5414 93.2467 62.571L92.3784 62.8572C92.3094 62.8868 92.2304 62.8473 92.2008 62.7683V62.7684Z" fill="#F3F3F3"/>
<path d="M92.1909 62.7782C92.1614 62.6993 92.2008 62.6104 92.2897 62.5809L93.1579 62.2947C93.2368 62.2652 93.3257 62.3145 93.3553 62.3935C93.3848 62.4723 93.3454 62.5611 93.2565 62.5908L92.3883 62.877C92.3094 62.8966 92.2206 62.8571 92.1909 62.7782ZM93.3355 62.4034C93.3158 62.3342 93.2368 62.2947 93.1678 62.3145L92.2995 62.6007C92.2304 62.6203 92.2008 62.6993 92.2206 62.7684C92.2403 62.8375 92.3193 62.8769 92.3883 62.8571L93.2566 62.571C93.3257 62.5415 93.3553 62.4723 93.3355 62.4033V62.4034Z" fill="white"/>
<path d="M91.3128 63.9426C91.2931 63.8636 91.3424 63.7847 91.4213 63.7748L93.4441 63.3801C93.523 63.3604 93.5921 63.4196 93.6118 63.4985C93.6315 63.5774 93.5822 63.6564 93.5033 63.6663L91.4805 64.0609C91.4016 64.0708 91.3226 64.0215 91.3127 63.9426H91.3128Z" fill="#F3F3F3"/>
<path d="M91.2931 63.9426C91.2733 63.8538 91.3325 63.7748 91.4114 63.7551L93.4342 63.3604C93.5132 63.3406 93.5921 63.3999 93.6118 63.4887C93.6315 63.5774 93.5724 63.6564 93.4934 63.6761L91.4706 64.0708C91.3918 64.0906 91.3127 64.0314 91.2931 63.9425V63.9426ZM93.5921 63.4985C93.5822 63.4294 93.5132 63.3801 93.4441 63.39L91.4213 63.7847C91.3523 63.7946 91.303 63.8734 91.3226 63.9426C91.3325 64.0116 91.4016 64.0609 91.4707 64.051L93.4934 63.6564C93.5625 63.6366 93.6118 63.5675 93.5921 63.4985Z" fill="white"/>
<path d="M92.5758 64.7023C92.5659 64.6234 92.6152 64.5543 92.6942 64.5444L93.6019 64.4358C93.6808 64.4261 93.75 64.4852 93.7598 64.5642C93.7696 64.6431 93.7203 64.7122 93.6414 64.722L92.7336 64.8305C92.6645 64.8404 92.5856 64.7812 92.5757 64.7023H92.5758Z" fill="#F3F3F3"/>
<path d="M92.5659 64.7023C92.5561 64.6135 92.6152 64.5345 92.6942 64.5247L93.6019 64.4162C93.6808 64.4063 93.7598 64.4655 93.7696 64.5543C93.7795 64.6431 93.7203 64.7221 93.6414 64.7319L92.7336 64.8404C92.6548 64.8503 92.5757 64.7911 92.5659 64.7023ZM93.7598 64.5642C93.75 64.4951 93.6809 64.4358 93.6118 64.4457L92.7041 64.5543C92.635 64.5642 92.5856 64.6332 92.5955 64.7023C92.6054 64.7714 92.6744 64.8306 92.7435 64.8208L93.6513 64.7122C93.7203 64.7023 93.7696 64.6332 93.7599 64.5642H93.7598Z" fill="white"/>
<path d="M91.4707 65.6594C91.4707 65.5805 91.5298 65.5114 91.6088 65.5114H93.6711C93.75 65.5114 93.8092 65.5805 93.8092 65.6594C93.8092 65.7383 93.75 65.8074 93.6711 65.8074H91.6088C91.5299 65.8074 91.4707 65.7383 91.4707 65.6594Z" fill="#F3F3F3"/>
<path d="M91.4608 65.6594C91.4608 65.5706 91.5299 65.5015 91.6088 65.5015H93.671C93.75 65.5015 93.819 65.5706 93.819 65.6594C93.819 65.7482 93.75 65.8173 93.671 65.8173H91.6088C91.5299 65.8173 91.4608 65.7482 91.4608 65.6594ZM93.7993 65.6693C93.7993 65.6002 93.7401 65.5312 93.6709 65.5312H91.6089C91.5399 65.5312 91.4806 65.5902 91.4806 65.6693C91.4806 65.7383 91.5399 65.8074 91.6089 65.8074H93.6711C93.7402 65.7975 93.7994 65.7383 93.7994 65.6693H93.7993Z" fill="white"/>
<path d="M92.5659 66.6559C92.5757 66.577 92.635 66.5178 92.7139 66.5178L93.6316 66.5869C93.7105 66.5968 93.7696 66.6658 93.7598 66.7448C93.75 66.8237 93.6907 66.8829 93.6118 66.8829L92.6942 66.8138C92.6251 66.8039 92.5658 66.7349 92.5658 66.6559H92.5659Z" fill="#F3F3F3"/>
<path d="M92.5561 66.6559C92.5659 66.5671 92.635 66.5079 92.7139 66.5079L93.6316 66.577C93.7105 66.5869 93.7795 66.6559 93.7696 66.7448C93.7599 66.8336 93.6907 66.8928 93.6118 66.8928L92.6942 66.8237C92.6152 66.8138 92.5561 66.7349 92.5561 66.6559ZM93.7599 66.7448C93.7696 66.6757 93.7105 66.6066 93.6414 66.6066L92.7237 66.5376C92.6548 66.5376 92.5955 66.5869 92.5856 66.6659C92.5758 66.7349 92.635 66.8039 92.7041 66.8039L93.6218 66.873C93.6907 66.873 93.75 66.8139 93.7599 66.7448V66.7448Z" fill="white"/>
<path d="M91.2931 67.3763C91.3128 67.2973 91.3819 67.2479 91.4608 67.2579L93.4835 67.6625C93.5625 67.6821 93.6119 67.7512 93.5921 67.8301C93.5724 67.909 93.5033 67.9584 93.4244 67.9486L91.4016 67.544C91.3325 67.5341 91.2832 67.4552 91.2931 67.3763V67.3763Z" fill="#F3F3F3"/>
<path d="M91.2832 67.3762C91.303 67.2874 91.3819 67.2381 91.4608 67.2479L93.4835 67.6526C93.5625 67.6722 93.6217 67.7512 93.6019 67.84C93.5822 67.9288 93.5033 67.9782 93.4244 67.9683L91.4016 67.5638C91.3226 67.544 91.2733 67.4651 91.2832 67.3764V67.3762ZM93.5822 67.84C93.5921 67.7709 93.5527 67.7019 93.4835 67.6821L91.4607 67.2776C91.3918 67.2678 91.3226 67.3072 91.3029 67.3861C91.2931 67.4552 91.3325 67.5242 91.4017 67.544L93.4244 67.9486C93.5033 67.9584 93.5625 67.909 93.5822 67.84Z" fill="white"/>
<path d="M92.1811 68.5603C92.1857 68.5415 92.1939 68.5238 92.2052 68.5082C92.2166 68.4926 92.2309 68.4793 92.2474 68.4693C92.2639 68.4592 92.2822 68.4525 92.3013 68.4495C92.3204 68.4465 92.3399 68.4473 92.3587 68.4518L93.2467 68.6984C93.3257 68.7182 93.3651 68.7972 93.3454 68.876C93.3409 68.8948 93.3327 68.9126 93.3213 68.9282C93.31 68.9438 93.2956 68.9571 93.2791 68.9672C93.2626 68.9772 93.2443 68.984 93.2252 68.987C93.2061 68.99 93.1866 68.9892 93.1678 68.9846L92.2797 68.7379C92.2008 68.7182 92.1614 68.6392 92.181 68.5603H92.1811Z" fill="#F3F3F3"/>
<path d="M92.1712 68.5603C92.1909 68.4814 92.2797 68.4222 92.3587 68.4518L93.2467 68.6984C93.3257 68.7182 93.3751 68.807 93.3553 68.8859C93.3355 68.9649 93.2467 69.024 93.1678 68.9945L92.2797 68.7478C92.2008 68.7281 92.1514 68.6491 92.1713 68.5604L92.1712 68.5603ZM93.3257 68.8859C93.3454 68.8169 93.3059 68.7379 93.2368 68.7182L92.3488 68.4715C92.2797 68.4517 92.2107 68.4913 92.1909 68.5702C92.1713 68.6392 92.2107 68.7182 92.2797 68.7379L93.1678 68.9846C93.2368 68.9945 93.3059 68.9551 93.3257 68.8859Z" fill="white"/>
<path d="M90.7898 69.0339C90.8194 68.955 90.9083 68.9253 90.9772 68.955L92.8817 69.7443C92.9507 69.7739 92.9902 69.8628 92.9606 69.9317C92.931 70.0108 92.8422 70.0403 92.7731 70.0108L90.8688 69.2214C90.7898 69.1919 90.7602 69.103 90.7898 69.034V69.0339Z" fill="#F3F3F3"/>
<path d="M90.78 69.024C90.7944 68.9861 90.8233 68.9555 90.8603 68.9388C90.8973 68.9222 90.9394 68.9209 90.9773 68.9352L92.8817 69.7246C92.9606 69.7542 92.9902 69.843 92.9606 69.9318C92.9462 69.9698 92.9173 70.0004 92.8803 70.017C92.8433 70.0337 92.8012 70.035 92.7632 70.0207L90.8589 69.2313C90.78 69.1918 90.7504 69.103 90.78 69.024ZM92.9409 69.922C92.9704 69.8529 92.9409 69.774 92.8718 69.7443L90.9675 68.955C90.8984 68.9254 90.8293 68.9648 90.7997 69.0339C90.7702 69.103 90.7997 69.1819 90.8688 69.2115L92.7731 70.0009C92.8422 70.0207 92.9211 69.991 92.9409 69.922Z" fill="white"/>
<path d="M91.4312 70.3659C91.4707 70.2969 91.5496 70.2672 91.6186 70.2969L92.4376 70.7113C92.5067 70.7409 92.5363 70.8297 92.4969 70.9086C92.4574 70.9777 92.3784 71.0074 92.3094 70.9777L91.4905 70.5633C91.4213 70.5238 91.3917 70.435 91.4312 70.3659Z" fill="#F3F3F3"/>
<path d="M91.4213 70.3561C91.4608 70.2771 91.5497 70.2476 91.6286 70.287L92.4475 70.7014C92.5264 70.741 92.5561 70.8298 92.5165 70.9086C92.4771 70.9875 92.3882 71.0172 92.3094 70.9777L91.4905 70.5633C91.4114 70.5338 91.3819 70.435 91.4213 70.3561V70.3561ZM92.487 70.8987C92.5165 70.8297 92.4968 70.7507 92.4277 70.7212L91.6088 70.3068C91.5496 70.2772 91.4707 70.3068 91.4312 70.3659C91.4017 70.435 91.4213 70.5139 91.4904 70.5436L92.3093 70.958C92.3784 70.9875 92.4574 70.9679 92.487 70.8987Z" fill="white"/>
<path d="M89.9807 70.5534C90.0301 70.4844 90.109 70.4646 90.1781 70.5139L91.8949 71.6586C91.964 71.698 91.9739 71.7869 91.9345 71.8558C91.8851 71.925 91.8061 71.9447 91.7371 71.8954L90.0202 70.7507C89.9512 70.7014 89.9314 70.6126 89.9807 70.5534Z" fill="#F3F3F3"/>
<path d="M89.9708 70.5436C90.0202 70.4745 90.1189 70.4548 90.188 70.4943L91.9048 71.6388C91.9739 71.6881 91.9936 71.7769 91.9442 71.8559C91.8949 71.925 91.7962 71.9447 91.7273 71.9053L90.0103 70.7606C89.9314 70.7113 89.9215 70.6126 89.9708 70.5436ZM91.9147 71.846C91.9541 71.7869 91.9442 71.698 91.8852 71.6586L90.1682 70.5139C90.109 70.4745 90.0301 70.4943 89.9906 70.5535C89.9512 70.6126 89.9611 70.7015 90.0201 70.7409L91.7371 71.8855C91.7962 71.925 91.8752 71.9053 91.9147 71.8461V71.846Z" fill="white"/>
<path d="M90.3459 71.9842C90.3952 71.9249 90.484 71.9053 90.5431 71.9547L91.2634 72.517C91.3226 72.5663 91.3325 72.6551 91.2832 72.7144C91.2339 72.7734 91.1451 72.7933 91.0858 72.7439L90.3655 72.1815C90.3064 72.1322 90.2965 72.0434 90.3459 71.9842V71.9842Z" fill="#F3F3F3"/>
<path d="M90.336 71.9743C90.3853 71.9052 90.484 71.8953 90.553 71.9447L91.2733 72.5071C91.3424 72.5564 91.3523 72.6551 91.3029 72.7241C91.2536 72.7933 91.1549 72.8031 91.0859 72.7538L90.3655 72.1913C90.2965 72.142 90.2867 72.0433 90.336 71.9743ZM91.2832 72.7143C91.3325 72.6551 91.3226 72.5761 91.2634 72.5268L90.5431 71.9644C90.484 71.925 90.405 71.9349 90.3557 71.9939C90.3063 72.0532 90.3162 72.1322 90.3754 72.1815L91.0957 72.7439C91.1549 72.7834 91.2338 72.7734 91.2831 72.7143H91.2832Z" fill="white"/>
<path d="M88.8756 71.8855C88.9349 71.8263 89.0237 71.8263 89.073 71.8855L90.5333 73.3359C90.5925 73.3951 90.5827 73.484 90.5333 73.5333C90.4742 73.5924 90.3853 73.5924 90.336 73.5333L88.8756 72.0829C88.8263 72.0335 88.8263 71.9348 88.8756 71.8855V71.8855Z" fill="#F3F3F3"/>
<path d="M88.8756 71.8756C88.9046 71.8471 88.9436 71.8312 88.9842 71.8312C89.0248 71.8312 89.0638 71.8471 89.0928 71.8756L90.553 73.326C90.5815 73.355 90.5975 73.394 90.5975 73.4346C90.5975 73.4752 90.5815 73.5142 90.553 73.5432C90.5241 73.5716 90.4851 73.5876 90.4445 73.5876C90.4039 73.5876 90.3649 73.5716 90.336 73.5432L88.8756 72.0928C88.8065 72.0335 88.8065 71.9349 88.8756 71.8756ZM90.5333 73.5234C90.5827 73.4741 90.5827 73.3853 90.5333 73.336L89.073 71.8855C89.0237 71.8362 88.9349 71.8362 88.8856 71.8855C88.8362 71.9348 88.8362 72.0236 88.8856 72.0729L90.3459 73.5234C90.3951 73.5827 90.4742 73.5827 90.5333 73.5234Z" fill="white"/>
<path d="M88.9644 73.3556C89.0237 73.3063 89.1124 73.3063 89.1618 73.3655L89.7638 74.0562C89.813 74.1155 89.8032 74.2043 89.7439 74.2536C89.6848 74.3029 89.5959 74.3029 89.5466 74.2437L88.9447 73.553C88.8954 73.5037 88.9052 73.4149 88.9644 73.3556V73.3556Z" fill="#F3F3F3"/>
<path d="M88.9546 73.3556C89.0237 73.2966 89.1125 73.3063 89.1716 73.3655L89.7735 74.0562C89.8327 74.1154 89.8228 74.214 89.7538 74.2733C89.6847 74.3325 89.5959 74.3226 89.5367 74.2634L88.9348 73.5728C88.8855 73.5037 88.8855 73.405 88.9545 73.3556H88.9546ZM89.744 74.2536C89.8031 74.2043 89.8031 74.1252 89.7637 74.0662L89.1617 73.3754C89.1124 73.3261 89.0335 73.3162 88.9743 73.3655C88.9151 73.4149 88.9151 73.4938 88.9545 73.5529L89.5565 74.2437C89.6058 74.3029 89.6848 74.3029 89.7439 74.2536H89.744Z" fill="white"/>
<path d="M87.5436 72.9807C87.6126 72.9314 87.7014 72.9512 87.741 73.0202L88.8854 74.7272C88.9249 74.7962 88.9051 74.8851 88.846 74.9246C88.7769 74.9739 88.6881 74.9541 88.6486 74.8851L87.5041 73.178C87.4645 73.109 87.4843 73.0201 87.5435 72.9807H87.5436Z" fill="#F3F3F3"/>
<path d="M87.5436 72.9708C87.6126 72.9215 87.7113 72.9413 87.7606 73.0104L88.9052 74.7174C88.9545 74.7864 88.9348 74.8851 88.8559 74.9344C88.7868 74.9838 88.6882 74.964 88.6388 74.8949L87.4943 73.1879C87.445 73.109 87.4647 73.0202 87.5436 72.9709V72.9708ZM88.8461 74.9147C88.9052 74.8752 88.925 74.7962 88.8855 74.7371L87.741 73.03C87.7014 72.9709 87.6225 72.961 87.5536 73.0005C87.4943 73.0399 87.4745 73.1188 87.514 73.1781L88.6586 74.8851C88.6981 74.9344 88.7869 74.9541 88.846 74.9146L88.8461 74.9147Z" fill="white"/>
<path d="M87.3364 74.441C87.4055 74.4016 87.4943 74.4213 87.5337 74.4904L87.9877 75.2896C88.0271 75.3587 87.9974 75.4475 87.9284 75.4869C87.8593 75.5264 87.7705 75.5067 87.7311 75.4376L87.2772 74.6384C87.2476 74.5693 87.2673 74.4805 87.3363 74.4411L87.3364 74.441Z" fill="#F3F3F3"/>
<path d="M87.3364 74.4312C87.4153 74.3917 87.5042 74.4114 87.5436 74.4805L87.9974 75.2797C88.0369 75.3488 88.0172 75.4475 87.9384 75.4869C87.8593 75.5264 87.7705 75.5067 87.7311 75.4376L87.2772 74.6384C87.2377 74.5693 87.2575 74.4805 87.3363 74.4312H87.3364ZM87.9284 75.4771C87.9876 75.4376 88.0172 75.3587 87.9778 75.2995L87.5239 74.5002C87.4844 74.4411 87.4055 74.4213 87.3463 74.4508C87.287 74.4904 87.2575 74.5693 87.2969 74.6285L87.7508 75.4277C87.7804 75.4869 87.8692 75.5165 87.9284 75.477V75.4771Z" fill="white"/>
<path d="M86.024 73.7898C86.103 73.7603 86.1819 73.7898 86.2115 73.8589L87.0108 75.7632C87.0403 75.8323 87.0009 75.9211 86.9318 75.9506C86.8628 75.9803 86.774 75.9506 86.7444 75.8816L85.9452 73.9773C85.9156 73.9082 85.955 73.8195 86.024 73.7898Z" fill="#F3F3F3"/>
<path d="M86.024 73.7799C86.103 73.7504 86.1918 73.7799 86.2313 73.8589L87.0305 75.7632C87.0448 75.8012 87.0435 75.8432 87.0269 75.8802C87.0102 75.9172 86.9796 75.9461 86.9417 75.9605C86.8628 75.9901 86.774 75.9605 86.7346 75.8816L85.9353 73.9773C85.9057 73.9082 85.9452 73.8195 86.024 73.7799V73.7799ZM86.922 75.9409C86.991 75.9112 87.0207 75.8323 86.991 75.7731L86.1918 73.8688C86.1622 73.7997 86.0833 73.7701 86.0142 73.7997C85.9452 73.8292 85.9155 73.9082 85.9452 73.9675L86.7443 75.8718C86.7839 75.9409 86.8529 75.9704 86.922 75.9409Z" fill="white"/>
<path d="M85.5405 75.1909C85.6196 75.1614 85.6984 75.2008 85.728 75.2797L86.0142 76.148C86.0438 76.2171 85.9945 76.3059 85.9254 76.3257C85.8465 76.3552 85.7676 76.3158 85.738 76.2369L85.4518 75.3686C85.4223 75.2995 85.4617 75.2206 85.5406 75.1909H85.5405Z" fill="#F3F3F3"/>
<path d="M85.5308 75.181C85.5687 75.1667 85.6108 75.168 85.6477 75.1847C85.6847 75.2013 85.7136 75.2319 85.728 75.2698L86.0142 76.1381C86.0438 76.2171 85.9945 76.3059 85.9154 76.3355C85.8775 76.3498 85.8354 76.3485 85.7985 76.3319C85.7615 76.3152 85.7326 76.2846 85.7182 76.2467L85.4321 75.3784C85.4123 75.2995 85.4518 75.2107 85.5308 75.181ZM85.9156 76.3157C85.9846 76.296 86.024 76.2171 86.0044 76.148L85.7182 75.2797C85.6985 75.2107 85.6196 75.181 85.5505 75.2008C85.4814 75.2205 85.4419 75.2995 85.4617 75.3685L85.7478 76.2368C85.7528 76.2536 85.7613 76.2691 85.7727 76.2823C85.7842 76.2956 85.7982 76.3063 85.8141 76.3137C85.8299 76.3212 85.8471 76.3252 85.8646 76.3255C85.8821 76.3259 85.8994 76.3226 85.9156 76.3158V76.3157Z" fill="white"/>
<path d="M84.3764 74.2931C84.4552 74.2733 84.5342 74.3226 84.544 74.4015L84.9584 76.4243C84.9782 76.5032 84.9189 76.5723 84.84 76.592C84.7612 76.6118 84.6821 76.5625 84.6723 76.4835L84.2578 74.4607C84.248 74.3917 84.2973 74.3127 84.3762 74.293L84.3764 74.2931Z" fill="#F3F3F3"/>
<path d="M84.3764 74.2831C84.4651 74.2634 84.544 74.3226 84.5638 74.4016L84.9782 76.4244C84.998 76.5032 84.9387 76.592 84.8597 76.6019C84.7709 76.6216 84.692 76.5625 84.6723 76.4835L84.2578 74.4607C84.2381 74.3818 84.2875 74.3029 84.3762 74.2832L84.3764 74.2831ZM84.84 76.5821C84.9091 76.5723 84.9584 76.5032 84.9486 76.4242L84.5341 74.4016C84.5243 74.3325 84.4454 74.2832 84.3762 74.3029C84.3072 74.3127 84.2579 74.3818 84.2678 74.4607L84.6822 76.4835C84.7019 76.5526 84.7709 76.592 84.8401 76.5822L84.84 76.5821Z" fill="white"/>
<path d="M83.6264 75.5757C83.7053 75.5658 83.7744 75.6152 83.7942 75.6942L83.9125 76.6019C83.9224 76.6808 83.8632 76.7499 83.7842 76.7597C83.7053 76.7696 83.6363 76.7203 83.6165 76.6414L83.4982 75.7336C83.4883 75.6546 83.5475 75.5856 83.6264 75.5757Z" fill="#F3F3F3"/>
<path d="M83.6264 75.5658C83.7152 75.5561 83.7942 75.6152 83.804 75.6942L83.9224 76.6019C83.9323 76.6808 83.8731 76.7598 83.7843 76.7696C83.6955 76.7795 83.6165 76.7203 83.6066 76.6413L83.4883 75.7336C83.4784 75.6546 83.5376 75.5757 83.6264 75.5658ZM83.7744 76.7499C83.8435 76.7401 83.9027 76.6709 83.8929 76.6019L83.7744 75.6942C83.7645 75.6251 83.6955 75.5757 83.6264 75.5856C83.5573 75.5955 83.4981 75.6645 83.508 75.7336L83.6264 76.6414C83.6363 76.7105 83.7053 76.7598 83.7744 76.7499Z" fill="white"/>
<path d="M82.6101 74.4706C82.6891 74.4706 82.7581 74.5299 82.7581 74.6088V76.671C82.7581 76.7499 82.6891 76.8092 82.6101 76.8092C82.5312 76.8092 82.4621 76.7499 82.4621 76.671V74.6088C82.472 74.5299 82.5312 74.4706 82.6101 74.4706Z" fill="#F3F3F3"/>
<path d="M82.6101 74.4607C82.6989 74.4607 82.768 74.5298 82.768 74.6087V76.671C82.768 76.7499 82.6989 76.8189 82.6101 76.8189C82.5213 76.8189 82.4522 76.7499 82.4522 76.671V74.6088C82.4522 74.5299 82.5312 74.4607 82.6101 74.4607ZM82.6101 76.7993C82.6792 76.7993 82.7482 76.7401 82.7482 76.671V74.6088C82.7482 74.5397 82.6891 74.4805 82.6101 74.4805C82.5411 74.4805 82.472 74.5397 82.472 74.6088V76.671C82.4818 76.7401 82.5411 76.7993 82.6101 76.7993Z" fill="white"/>
<path d="M81.6234 75.5757C81.7023 75.5856 81.7615 75.6448 81.7615 75.7237L81.6924 76.6414C81.6826 76.7203 81.6135 76.7795 81.5345 76.7697C81.4556 76.7597 81.3964 76.7006 81.3964 76.6216L81.4655 75.7039C81.4754 75.6251 81.5444 75.5658 81.6234 75.5757Z" fill="#F3F3F3"/>
<path d="M81.6234 75.5658C81.7122 75.5757 81.7714 75.6448 81.7714 75.7237L81.7023 76.6414C81.6924 76.7203 81.6234 76.7894 81.5346 76.7795C81.4458 76.7696 81.3866 76.7006 81.3866 76.6217L81.4556 75.704C81.4655 75.6152 81.5346 75.5561 81.6234 75.5658ZM81.5346 76.7598C81.6036 76.7598 81.6728 76.7105 81.6728 76.6414L81.7418 75.7237C81.7418 75.6547 81.6924 75.5955 81.6135 75.5856C81.5444 75.5856 81.4754 75.6349 81.4754 75.7041L81.4063 76.6217C81.4063 76.6907 81.4655 76.75 81.5347 76.7598H81.5346Z" fill="white"/>
<path d="M80.8834 74.2931C80.9623 74.3127 81.0116 74.3818 81.0018 74.4607L80.5972 76.4835C80.5774 76.5625 80.5084 76.6119 80.4294 76.592C80.3505 76.5724 80.3012 76.5033 80.3111 76.4243L80.7157 74.4016C80.7255 74.3325 80.8045 74.2832 80.8834 74.2931Z" fill="#F3F3F3"/>
<path d="M80.8834 74.2831C80.9721 74.3029 81.0215 74.3819 81.0116 74.4607L80.6071 76.4835C80.5873 76.5625 80.5084 76.6216 80.4197 76.6019C80.3309 76.5821 80.2815 76.5032 80.2913 76.4242L80.6959 74.4016C80.7157 74.3226 80.7946 74.2732 80.8833 74.2832L80.8834 74.2831ZM80.4197 76.5821C80.4887 76.592 80.5578 76.5526 80.5775 76.4835L80.982 74.4607C80.9919 74.3917 80.9525 74.3226 80.8735 74.3029C80.8045 74.2931 80.7354 74.3325 80.7157 74.4017L80.3111 76.4242C80.3012 76.5032 80.3505 76.5625 80.4197 76.5821V76.5821Z" fill="white"/>
<path d="M79.6993 75.1811C79.7783 75.2008 79.8276 75.2798 79.8078 75.3587L79.5611 76.2467C79.5415 76.3257 79.4626 76.3651 79.3836 76.3454C79.3648 76.3409 79.3471 76.3327 79.3315 76.3214C79.3158 76.31 79.3026 76.2956 79.2925 76.2791C79.2824 76.2626 79.2757 76.2443 79.2727 76.2252C79.2697 76.2061 79.2705 76.1866 79.275 76.1678L79.5217 75.2798C79.5415 75.2008 79.6204 75.1614 79.6994 75.1811H79.6993Z" fill="#F3F3F3"/>
<path d="M79.6993 75.1712C79.7783 75.1909 79.8375 75.2797 79.8078 75.3586L79.5611 76.2467C79.5415 76.3256 79.4527 76.375 79.3737 76.3552C79.2948 76.3355 79.2356 76.2467 79.2652 76.1678L79.5119 75.2797C79.5316 75.2008 79.6105 75.1514 79.6993 75.1711V75.1712ZM79.3737 76.3256C79.4428 76.3454 79.5217 76.3059 79.5415 76.2368L79.7881 75.3488C79.8078 75.2797 79.7684 75.2107 79.6895 75.1909C79.6204 75.1711 79.5415 75.2107 79.5217 75.2797L79.275 76.1678C79.2652 76.2368 79.3046 76.3059 79.3737 76.3256Z" fill="white"/>
<path d="M79.2159 73.7898C79.2948 73.8194 79.3243 73.9082 79.2948 73.9772L78.5054 75.8816C78.4759 75.9507 78.387 75.9902 78.318 75.9507C78.2489 75.9112 78.2094 75.8323 78.239 75.7632L79.0284 73.8589C79.0579 73.7898 79.1468 73.7503 79.2158 73.7898H79.2159Z" fill="#F3F3F3"/>
<path d="M79.2159 73.7799C79.2538 73.7944 79.2844 73.8233 79.3011 73.8603C79.3177 73.8973 79.319 73.9394 79.3047 73.9773L78.5153 75.8816C78.4857 75.9605 78.3969 75.9902 78.308 75.9605C78.2702 75.9461 78.2395 75.9172 78.2229 75.8802C78.2062 75.8432 78.2049 75.8012 78.2192 75.7632L79.0086 73.8589C79.0481 73.7799 79.1369 73.7405 79.2159 73.7799V73.7799ZM78.3179 75.9409C78.387 75.9704 78.4659 75.9409 78.4956 75.8718L79.2849 73.9675C79.3145 73.8984 79.275 73.8292 79.206 73.7997C79.1369 73.7702 79.058 73.7997 79.0284 73.8688L78.239 75.7731C78.2192 75.8323 78.2489 75.9112 78.3179 75.9409Z" fill="white"/>
<path d="M77.8838 74.4213C77.9529 74.4607 77.9824 74.5397 77.9529 74.6087L77.5384 75.4277C77.4989 75.4968 77.42 75.5264 77.3411 75.4869C77.272 75.4475 77.2425 75.3686 77.272 75.2995L77.6865 74.4806C77.726 74.4114 77.8049 74.3818 77.8838 74.4213Z" fill="#F3F3F3"/>
<path d="M77.8838 74.4114C77.9628 74.4509 77.9923 74.5398 77.9529 74.6186L77.5384 75.4376C77.4989 75.5165 77.4101 75.5462 77.3313 75.5067C77.2523 75.4673 77.2227 75.3783 77.2622 75.2995L77.6766 74.4806C77.7161 74.4016 77.8049 74.372 77.8838 74.4114ZM77.3412 75.487C77.4102 75.5165 77.4892 75.4968 77.5187 75.4277L77.9331 74.6088C77.9627 74.5496 77.9331 74.4706 77.874 74.4312C77.8049 74.4017 77.726 74.4213 77.6963 74.4904L77.2819 75.3093C77.2523 75.3686 77.2819 75.4475 77.3412 75.4869V75.487Z" fill="white"/>
<path d="M77.6864 72.961C77.7555 73.0103 77.7753 73.0992 77.726 73.1583L76.5813 74.8654C76.5419 74.9343 76.453 74.9442 76.384 74.9048C76.315 74.8554 76.2952 74.7667 76.3445 74.7074L77.4892 73.0004C77.5286 72.9314 77.6174 72.9116 77.6864 72.9609V72.961Z" fill="#F3F3F3"/>
<path d="M77.6864 72.9511C77.7555 73.0005 77.7753 73.0992 77.7357 73.1682L76.5912 74.8753C76.5419 74.9442 76.4531 74.964 76.3742 74.9147C76.3051 74.8653 76.2854 74.7667 76.3248 74.6975L77.4694 72.9906C77.5187 72.9215 77.6174 72.9018 77.6864 72.9511V72.9511ZM76.384 74.8949C76.4431 74.9344 76.532 74.9245 76.5715 74.8654L77.7161 73.1583C77.7555 73.0992 77.7358 73.0202 77.6766 72.9807C77.6174 72.9413 77.5286 72.9512 77.4892 73.0103L76.3445 74.7074C76.3051 74.7667 76.3248 74.8554 76.384 74.8948V74.8949Z" fill="white"/>
<path d="M76.2458 73.3261C76.3051 73.3754 76.3248 73.4642 76.2755 73.5234L75.7032 74.2437C75.6539 74.3029 75.565 74.3127 75.5059 74.2634C75.4467 74.2141 75.4269 74.1253 75.4763 74.066L76.0485 73.3457C76.0978 73.2867 76.1867 73.2767 76.2458 73.3261Z" fill="#F3F3F3"/>
<path d="M76.2557 73.3162C76.3248 73.3655 76.3346 73.4642 76.2852 73.5333L75.713 74.2536C75.6637 74.3226 75.565 74.3325 75.496 74.2733C75.4269 74.2239 75.4171 74.1253 75.4665 74.0562L76.0387 73.336C76.088 73.2668 76.1867 73.257 76.2557 73.3162ZM75.5158 74.2536C75.5748 74.3029 75.6539 74.2931 75.7032 74.2338L76.2755 73.5135C76.315 73.4544 76.305 73.3754 76.2459 73.3261C76.1867 73.2767 76.1077 73.2866 76.0584 73.3458L75.4861 74.0661C75.4467 74.1253 75.4566 74.214 75.5156 74.2536H75.5158Z" fill="white"/>
<path d="M76.3445 71.8461C76.4037 71.9052 76.4037 71.9941 76.3445 72.0434L74.8843 73.4938C74.825 73.553 74.7363 73.5432 74.6869 73.4938C74.6376 73.4445 74.6277 73.3458 74.6869 73.2965L76.1373 71.8461C76.1965 71.7868 76.2854 71.7868 76.3445 71.8461V71.8461Z" fill="#F3F3F3"/>
<path d="M76.3544 71.8362C76.3828 71.8651 76.3988 71.9041 76.3988 71.9447C76.3988 71.9852 76.3828 72.0242 76.3544 72.0531L74.894 73.5037C74.8651 73.5321 74.8261 73.5481 74.7856 73.5481C74.745 73.5481 74.706 73.5321 74.6771 73.5037C74.6486 73.4748 74.6326 73.4358 74.6326 73.3951C74.6326 73.3545 74.6486 73.3155 74.6771 73.2866L76.1374 71.8362C76.1663 71.8077 76.2053 71.7918 76.2459 71.7918C76.2865 71.7918 76.3255 71.8077 76.3544 71.8362V71.8362ZM74.6869 73.4937C74.7362 73.543 74.825 73.543 74.8743 73.4937L76.3346 72.0432C76.384 71.994 76.384 71.9051 76.3346 71.8558C76.2854 71.8064 76.1965 71.8064 76.1472 71.8558L74.6869 73.3062C74.6376 73.3555 74.6376 73.4346 74.6869 73.4936V73.4937Z" fill="white"/>
<path d="M74.8645 71.925C74.9138 71.9841 74.9138 72.073 74.8546 72.1223L74.1541 72.7144C74.0949 72.7637 74.0061 72.7538 73.9567 72.6946C73.9074 72.6353 73.9074 72.5466 73.9666 72.4972L74.6671 71.9052C74.7264 71.8558 74.8151 71.8657 74.8645 71.925Z" fill="#F3F3F3"/>
<path d="M74.8744 71.915C74.9336 71.9842 74.9237 72.0828 74.8645 72.1322L74.164 72.7241C74.1048 72.7834 74.0061 72.7735 73.9469 72.7045C73.8876 72.6353 73.8975 72.5367 73.9567 72.4873L74.6573 71.8954C74.7164 71.8362 74.8152 71.8461 74.8743 71.9151L74.8744 71.915ZM73.9666 72.6946C74.016 72.7538 74.0949 72.7538 74.154 72.7144L74.8546 72.1223C74.9039 72.073 74.9138 71.994 74.8645 71.9349C74.8151 71.8756 74.7362 71.8756 74.6771 71.9151L73.9764 72.5071C73.9173 72.5564 73.9173 72.6354 73.9666 72.6945V72.6946Z" fill="white"/>
<path d="M75.2592 70.5041C75.3085 70.5732 75.2887 70.6619 75.2197 70.7014L73.5028 71.8461C73.4338 71.8855 73.345 71.8657 73.3055 71.8066C73.2561 71.7375 73.2759 71.6487 73.345 71.6092L75.0619 70.4646C75.1212 70.4252 75.2099 70.4449 75.2593 70.5041H75.2592Z" fill="#F3F3F3"/>
<path d="M75.2691 70.504C75.3184 70.5732 75.2986 70.6718 75.2295 70.7212L73.5127 71.8657C73.4437 71.9151 73.345 71.8952 73.2957 71.8164C73.2463 71.7474 73.2661 71.6487 73.3351 71.5994L75.052 70.4547C75.1211 70.4054 75.2197 70.4252 75.269 70.504H75.2691ZM73.3154 71.7967C73.3548 71.8558 73.4338 71.8756 73.493 71.8362L75.2098 70.6915C75.2691 70.6521 75.2887 70.5732 75.2394 70.5041C75.2 70.4449 75.1211 70.4252 75.0618 70.4646L73.345 71.6092C73.2858 71.6585 73.2759 71.7375 73.3154 71.7967V71.7967Z" fill="white"/>
<path d="M73.7889 70.2969C73.8285 70.3659 73.8087 70.4548 73.7396 70.4943L72.9404 70.9481C72.8713 70.9875 72.7825 70.958 72.7431 70.889C72.7036 70.8199 72.7233 70.7311 72.7924 70.6916L73.5916 70.2377C73.6607 70.1982 73.7495 70.2278 73.789 70.2969H73.7889Z" fill="#F3F3F3"/>
<path d="M73.7989 70.287C73.8383 70.3659 73.8186 70.4547 73.7495 70.4943L72.9503 70.9481C72.8812 70.9875 72.7825 70.958 72.7431 70.8889C72.7036 70.81 72.7233 70.7212 72.7924 70.6817L73.5916 70.2278C73.6607 70.1883 73.7594 70.2179 73.7988 70.287H73.7989ZM72.7529 70.8791C72.7924 70.9481 72.8713 70.9679 72.9305 70.9284L73.7298 70.4745C73.7889 70.435 73.8087 70.356 73.7792 70.2969C73.7396 70.2278 73.6607 70.2081 73.6015 70.2476L72.8023 70.7014C72.7431 70.731 72.7233 70.81 72.753 70.8791H72.7529Z" fill="white"/>
<path d="M74.4501 68.9846C74.4796 69.0635 74.4501 69.1425 74.3711 69.172L72.4668 69.9614C72.3977 69.991 72.3089 69.9516 72.2794 69.8824C72.2497 69.8035 72.2794 69.7246 72.3583 69.695L74.2627 68.9057C74.3317 68.8761 74.4205 68.9057 74.4501 68.9846V68.9846Z" fill="#F3F3F3"/>
<path d="M74.4599 68.9747C74.4895 69.0537 74.4599 69.1425 74.381 69.1819L72.4767 69.9712C72.4387 69.9856 72.3966 69.9842 72.3597 69.9676C72.3227 69.9509 72.2938 69.9203 72.2794 69.8824C72.2497 69.8035 72.2794 69.7147 72.3583 69.6753L74.2627 68.8859C74.3006 68.8716 74.3427 68.8729 74.3796 68.8896C74.4166 68.9062 74.4455 68.9368 74.4599 68.9747V68.9747ZM72.299 69.8726C72.3287 69.9417 72.4076 69.9714 72.4668 69.9515L74.3711 69.1621C74.4402 69.1326 74.4698 69.0537 74.4402 68.9846C74.4106 68.9155 74.3317 68.8859 74.2724 68.9057L72.3681 69.695C72.299 69.7246 72.2695 69.8035 72.299 69.8727V69.8726Z" fill="white"/>
<path d="M73.0589 68.4912C73.0884 68.5702 73.049 68.6491 72.97 68.6786L72.1017 68.9648C72.0327 68.9944 71.9439 68.9451 71.9241 68.876C71.8946 68.7971 71.934 68.7182 72.0129 68.6886L72.8812 68.4024C72.9503 68.3729 73.0292 68.4123 73.0589 68.4912Z" fill="#F3F3F3"/>
<path d="M73.0686 68.4813C73.0983 68.5603 73.0589 68.6491 72.97 68.6787L72.1017 68.9648C72.0228 68.9944 71.934 68.9451 71.9043 68.8662C71.8748 68.7872 71.9142 68.6984 72.0031 68.6689L72.8713 68.3827C72.9503 68.363 73.0391 68.4024 73.0687 68.4815L73.0686 68.4813ZM71.9242 68.8564C71.944 68.9254 72.0229 68.9649 72.092 68.9452L72.9603 68.659C73.0293 68.6393 73.059 68.5604 73.0392 68.4913C73.0194 68.4223 72.9405 68.3828 72.8714 68.4025L72.0031 68.6887C71.9341 68.7183 71.9044 68.7873 71.9242 68.8564Z" fill="white"/>
<path d="M73.9469 67.3171C73.9666 67.396 73.9173 67.4749 73.8383 67.4848L71.8155 67.8795C71.7366 67.8993 71.6675 67.84 71.6479 67.761C71.6281 67.6821 71.6774 67.6032 71.7564 67.5933L73.7792 67.1986C73.8581 67.1888 73.937 67.2381 73.9468 67.3171H73.9469Z" fill="#F3F3F3"/>
<path d="M73.9666 67.3171C73.9863 67.4059 73.9271 67.4848 73.8482 67.5045L71.8254 67.8992C71.7465 67.9189 71.6675 67.8597 71.6479 67.7709C71.6281 67.6821 71.6873 67.6032 71.7662 67.5835L73.789 67.1888C73.8679 67.1691 73.9469 67.2283 73.9666 67.3171ZM71.6675 67.7612C71.6774 67.8301 71.7465 67.8795 71.8155 67.8696L73.8383 67.4749C73.9074 67.4651 73.9567 67.3861 73.937 67.3171C73.9271 67.248 73.8581 67.1986 73.7889 67.2085L71.7662 67.6032C71.6972 67.6229 71.6479 67.692 71.6675 67.7611V67.7612Z" fill="white"/>
<path d="M72.6839 66.5574C72.6937 66.6362 72.6444 66.7054 72.5655 66.7152L71.6578 66.8237C71.5787 66.8336 71.5097 66.7744 71.4999 66.6954C71.49 66.6165 71.5393 66.5475 71.6182 66.5375L72.5261 66.429C72.5951 66.4191 72.6741 66.4783 72.6839 66.5574Z" fill="#F3F3F3"/>
<path d="M72.6938 66.5573C72.7036 66.6461 72.6444 66.725 72.5655 66.7349L71.6578 66.8435C71.5787 66.8533 71.4999 66.7942 71.49 66.7053C71.4801 66.6165 71.5393 66.5376 71.6182 66.5277L72.5261 66.4191C72.6049 66.4093 72.6839 66.4685 72.6937 66.5572L72.6938 66.5573ZM71.4998 66.6955C71.5097 66.7645 71.5788 66.8238 71.6479 66.8138L72.5556 66.7053C72.6247 66.6955 72.6741 66.6264 72.6642 66.5573C72.6543 66.4882 72.5852 66.429 72.5162 66.4389L71.6084 66.5475C71.5393 66.5573 71.49 66.6264 71.4998 66.6955V66.6955Z" fill="white"/>
<path d="M73.7889 65.6001C73.7889 65.6792 73.7299 65.7482 73.6508 65.7482H71.5887C71.5098 65.7482 71.4506 65.6792 71.4506 65.6002C71.4506 65.5213 71.5098 65.4521 71.5887 65.4521H73.6509C73.7299 65.4521 73.7891 65.5213 73.7891 65.6002L73.7889 65.6001Z" fill="#F3F3F3"/>
<path d="M73.7989 65.6001C73.7989 65.6891 73.7298 65.758 73.6508 65.758H71.5887C71.5098 65.758 71.4407 65.6889 71.4407 65.6001C71.4407 65.5114 71.5098 65.4423 71.5887 65.4423H73.6509C73.7299 65.4423 73.7989 65.5114 73.7989 65.6001ZM71.4604 65.5904C71.4604 65.6594 71.5195 65.7285 71.5887 65.7285H73.6508C73.7199 65.7285 73.7792 65.6693 73.7792 65.5904C73.7792 65.5213 73.7199 65.4521 73.6508 65.4521H71.5887C71.5196 65.462 71.4605 65.5213 71.4605 65.5904H71.4604Z" fill="white"/>
<path d="M72.6938 64.6036C72.6838 64.6825 72.6247 64.7417 72.5457 64.7417L71.628 64.6727C71.5492 64.6628 71.49 64.5937 71.4998 64.5148C71.5097 64.4359 71.5689 64.3767 71.6479 64.3767L72.5655 64.4457C72.6345 64.4556 72.6938 64.5247 72.6938 64.6036Z" fill="#E2E2E2"/>
<path d="M72.7036 64.6036C72.6937 64.6924 72.6247 64.7516 72.5457 64.7516L71.628 64.6825C71.5492 64.6727 71.4801 64.6036 71.49 64.5148C71.4998 64.4261 71.5689 64.3668 71.6479 64.3668L72.5655 64.4358C72.6444 64.4457 72.7036 64.5247 72.7036 64.6036ZM71.4998 64.5148C71.49 64.5838 71.5492 64.653 71.6182 64.653L72.5359 64.7221C72.6049 64.7221 72.6642 64.6727 72.6741 64.5937C72.6839 64.5247 72.6247 64.4556 72.5556 64.4556L71.6379 64.3866C71.5689 64.3866 71.5097 64.4457 71.4998 64.5149V64.5148Z" fill="white"/>
<path d="M73.9666 63.8833C73.9468 63.9622 73.8777 64.0116 73.7988 64.0017L71.7761 63.5873C71.6972 63.5675 71.6478 63.4985 71.6675 63.4196C71.6873 63.3406 71.7564 63.2912 71.8353 63.3012L73.8581 63.7058C73.9271 63.7254 73.9764 63.8044 73.9666 63.8833V63.8833Z" fill="#F3F3F3"/>
<path d="M73.9764 63.8833C73.9567 63.9721 73.8777 64.0215 73.7988 64.0116L71.7761 63.6071C71.6972 63.5873 71.638 63.5084 71.6578 63.4197C71.6774 63.3308 71.7564 63.2815 71.8353 63.2913L73.8581 63.6959C73.937 63.7157 73.9863 63.7946 73.9764 63.8833V63.8833ZM71.6774 63.4196C71.6675 63.4886 71.707 63.5577 71.7761 63.5774L73.7989 63.982C73.868 63.9919 73.937 63.9525 73.9568 63.8734C73.9666 63.8044 73.9271 63.7353 73.858 63.7156L71.8354 63.3111C71.7565 63.3012 71.6973 63.3505 71.6775 63.4196H71.6774Z" fill="white"/>
<path d="M73.0786 62.6993C73.0741 62.7181 73.0659 62.7358 73.0545 62.7515C73.0431 62.7671 73.0288 62.7803 73.0123 62.7904C72.9958 62.8005 72.9775 62.8072 72.9584 62.8102C72.9393 62.8132 72.9198 62.8124 72.901 62.8078L72.0129 62.5611C71.934 62.5414 71.8946 62.4624 71.9142 62.3835C71.9188 62.3647 71.9269 62.347 71.9383 62.3314C71.9497 62.3157 71.9641 62.3025 71.9806 62.2924C71.9971 62.2824 72.0154 62.2756 72.0345 62.2726C72.0536 62.2697 72.0731 62.2705 72.0919 62.275L72.9799 62.5217C73.0589 62.5414 73.0983 62.6203 73.0786 62.6992V62.6993Z" fill="#F3F3F3"/>
<path d="M73.0884 62.6994C73.0687 62.7782 72.9799 62.8375 72.901 62.8078L72.0129 62.5611C71.934 62.5414 71.8846 62.4526 71.9043 62.3737C71.9241 62.2947 72.0129 62.2355 72.0919 62.2652L72.9799 62.5118C73.0589 62.5316 73.1083 62.6105 73.0884 62.6993V62.6994ZM71.934 62.3735C71.9142 62.4427 71.9537 62.5216 72.0228 62.5413L72.9109 62.788C72.9799 62.8077 73.049 62.7682 73.0687 62.6893C73.0884 62.6202 73.049 62.5413 72.9799 62.5216L72.0919 62.2749C72.0228 62.2651 71.9537 62.3045 71.934 62.3736V62.3735Z" fill="white"/>
<path d="M74.4698 62.2257C74.4403 62.3046 74.3514 62.3342 74.2824 62.3046L72.378 61.5152C72.3089 61.4857 72.2695 61.3969 72.299 61.3278C72.3287 61.2489 72.4175 61.2192 72.4865 61.2489L74.3909 62.0382C74.4698 62.0678 74.4995 62.1566 74.4698 62.2256V62.2257Z" fill="#F3F3F3"/>
<path d="M74.4797 62.2355C74.4653 62.2734 74.4364 62.3041 74.3994 62.3207C74.3624 62.3374 74.3203 62.3387 74.2823 62.3243L72.378 61.535C72.299 61.5054 72.2695 61.4166 72.299 61.3278C72.3135 61.2899 72.3424 61.2592 72.3794 61.2426C72.4164 61.2259 72.4585 61.2246 72.4964 61.239L74.4008 62.0283C74.4797 62.0678 74.5092 62.1567 74.4797 62.2355V62.2355ZM72.3188 61.3377C72.2893 61.4067 72.3188 61.4857 72.3878 61.5152L74.2922 62.3046C74.3612 62.3342 74.4303 62.2947 74.4599 62.2256C74.4895 62.1566 74.4599 62.0776 74.3909 62.0481L72.4865 61.2587C72.4175 61.239 72.3385 61.2686 72.3188 61.3377V61.3377Z" fill="white"/>
<path d="M73.8285 60.8936C73.789 60.9627 73.7101 60.9923 73.641 60.9627L72.822 60.5483C72.753 60.5187 72.7233 60.4299 72.7629 60.3509C72.8023 60.2819 72.8812 60.2523 72.9503 60.2819L73.7692 60.6963C73.8383 60.7358 73.868 60.8247 73.8285 60.8936Z" fill="#F3F3F3"/>
<path d="M73.8383 60.9035C73.7988 60.9824 73.71 61.0121 73.6311 60.9725L72.8122 60.5581C72.7332 60.5187 72.7036 60.4299 72.7431 60.3509C72.7825 60.272 72.8714 60.2424 72.9503 60.2819L73.7692 60.6963C73.8482 60.7259 73.8777 60.8247 73.8383 60.9035V60.9035ZM72.7726 60.3608C72.7431 60.4299 72.7629 60.5088 72.8319 60.5384L73.6508 60.9529C73.7101 60.9824 73.789 60.9529 73.8285 60.8936C73.858 60.8246 73.8383 60.7456 73.7693 60.716L72.9403 60.3017C72.8811 60.2722 72.8022 60.2919 72.7725 60.3609L72.7726 60.3608Z" fill="white"/>
<path d="M75.2788 60.7061C75.2295 60.7752 75.1506 60.795 75.0816 60.7456L73.3745 59.611C73.3055 59.5714 73.2957 59.4826 73.3351 59.4136C73.3746 59.3445 73.4634 59.3248 73.5325 59.374L75.2493 60.5187C75.3085 60.5582 75.3282 60.647 75.2788 60.7061Z" fill="#F3F3F3"/>
<path d="M75.2887 60.716C75.2394 60.7851 75.1407 60.8048 75.0718 60.7654L73.3647 59.6207C73.2957 59.5714 73.2759 59.4826 73.3252 59.4038C73.3746 59.3346 73.4733 59.3149 73.5423 59.3544L75.2493 60.4989C75.3282 60.5483 75.3381 60.6469 75.2887 60.716ZM73.345 59.4136C73.3055 59.4728 73.3154 59.5616 73.3745 59.601L75.0914 60.7457C75.1506 60.7852 75.2295 60.7655 75.2691 60.7063C75.3085 60.647 75.2986 60.5582 75.2395 60.5188L73.5225 59.3742C73.4633 59.3346 73.3844 59.3544 73.3449 59.4136H73.345Z" fill="white"/>
<path d="M74.9138 59.2755C74.8645 59.3346 74.7757 59.3544 74.7165 59.305L73.9962 58.7427C73.937 58.6933 73.9271 58.6045 73.9764 58.5453C74.0257 58.4861 74.1146 58.4664 74.1738 58.5158L74.894 59.0781C74.9533 59.1275 74.9632 59.2162 74.9138 59.2755V59.2755Z" fill="#F3F3F3"/>
<path d="M74.9237 59.2852C74.8744 59.3544 74.7757 59.3643 74.7066 59.3149L73.9863 58.7526C73.9173 58.7033 73.9074 58.6046 73.9568 58.5356C74.0061 58.4665 74.1048 58.4566 74.1737 58.506L74.894 59.0683C74.9632 59.1177 74.9731 59.2163 74.9237 59.2855V59.2852ZM73.9764 58.5453C73.9271 58.6045 73.937 58.6834 73.9962 58.7327L74.7165 59.2952C74.7757 59.3346 74.8546 59.3248 74.9039 59.2656C74.9533 59.2064 74.9434 59.1275 74.8843 59.0782L74.164 58.5156C74.1048 58.4762 74.0257 58.4861 73.9765 58.5453H73.9764Z" fill="white"/>
<path d="M76.3839 59.3741C76.3249 59.4333 76.236 59.4333 76.1867 59.3741L74.7166 57.9237C74.6574 57.8645 74.6672 57.7757 74.7166 57.7263C74.7758 57.6672 74.8646 57.6672 74.9139 57.7263L76.3743 59.1768C76.4334 59.2261 76.4334 59.3248 76.3841 59.3742L76.3839 59.3741Z" fill="#F3F3F3"/>
<path d="M76.3839 59.384C76.355 59.4125 76.316 59.4284 76.2755 59.4284C76.2349 59.4284 76.1959 59.4125 76.167 59.384L74.7065 57.9334C74.678 57.9045 74.6621 57.8655 74.6621 57.8249C74.6621 57.7842 74.678 57.7453 74.7065 57.7163C74.7355 57.6878 74.7745 57.6719 74.8151 57.6719C74.8556 57.6719 74.8946 57.6878 74.9236 57.7163L76.3839 59.1668C76.453 59.226 76.453 59.3247 76.3839 59.3838V59.384ZM74.7265 57.7361C74.6771 57.7855 74.6771 57.8743 74.7265 57.9235L76.1868 59.374C76.2362 59.4234 76.3249 59.4234 76.3742 59.374C76.4236 59.3247 76.4236 59.2358 76.3742 59.1865L74.9139 57.7263C74.8646 57.677 74.7856 57.677 74.7265 57.7362V57.7361Z" fill="white"/>
<path d="M76.2952 57.9039C76.2361 57.9533 76.1472 57.9533 76.0978 57.894L75.4959 57.2034C75.4467 57.1442 75.4565 57.0554 75.5157 57.0061C75.5748 56.9567 75.6637 56.9567 75.713 57.0159L76.315 57.7066C76.3643 57.7559 76.3544 57.8448 76.2952 57.9039Z" fill="#F3F3F3"/>
<path d="M76.3051 57.9039C76.2361 57.9631 76.1472 57.9533 76.088 57.894L75.4861 57.2034C75.4269 57.1442 75.4368 57.0455 75.5059 56.9863C75.5749 56.927 75.6637 56.9369 75.7229 56.9962L76.3249 57.6868C76.3742 57.7559 76.3742 57.8546 76.3051 57.9039V57.9039ZM75.5157 57.0061C75.4565 57.0554 75.4565 57.1343 75.496 57.1935L76.0979 57.8841C76.1472 57.9335 76.2262 57.9434 76.2854 57.894C76.3445 57.8447 76.3445 57.7657 76.3051 57.7066L75.7032 57.0159C75.6539 56.9568 75.5748 56.9568 75.5157 57.0061V57.0061Z" fill="white"/>
<path d="M77.7161 58.2789C77.647 58.3282 77.5582 58.3085 77.5187 58.2394L76.3643 56.5324C76.3248 56.4633 76.3445 56.3745 76.4037 56.3351C76.4728 56.2858 76.5616 56.3055 76.6011 56.3746L77.7456 58.0815C77.795 58.1506 77.7753 58.2394 77.7161 58.2788V58.2789Z" fill="#F3F3F3"/>
<path d="M77.7161 58.2887C77.647 58.3381 77.5483 58.3182 77.4989 58.2493L76.3544 56.5422C76.3051 56.4732 76.3249 56.3746 76.4037 56.3253C76.4728 56.2759 76.5715 56.2956 76.6209 56.3647L77.7654 58.0717C77.8147 58.1506 77.7949 58.2394 77.7161 58.2887ZM76.4135 56.3449C76.3543 56.3844 76.3345 56.4633 76.3741 56.5226L77.5186 58.2295C77.5581 58.2887 77.637 58.2986 77.706 58.2591C77.7653 58.2196 77.785 58.1407 77.7455 58.0815L76.6011 56.3844C76.5616 56.3253 76.4728 56.3054 76.4137 56.3449H76.4135Z" fill="white"/>
<path d="M77.9232 56.8186C77.8542 56.858 77.7654 56.8383 77.726 56.7693L77.272 55.97C77.2326 55.901 77.2621 55.8122 77.3313 55.7726C77.4003 55.7332 77.4892 55.7529 77.5286 55.822L77.9824 56.6212C78.0121 56.6902 77.9923 56.7791 77.9234 56.8186H77.9232Z" fill="#F3F3F3"/>
<path d="M77.9232 56.8285C77.8443 56.8679 77.7555 56.8482 77.7161 56.7791L77.2621 55.9799C77.2227 55.9108 77.2425 55.8122 77.3214 55.7726C77.4003 55.7332 77.4892 55.7529 77.5286 55.822L77.9824 56.6212C78.0219 56.6902 78.0022 56.7791 77.9234 56.8285H77.9232ZM77.3313 55.7825C77.272 55.8219 77.2425 55.9009 77.2819 55.9602L77.7358 56.7594C77.7753 56.8185 77.8542 56.8383 77.9134 56.8087C77.9726 56.7693 78.0022 56.6902 77.9628 56.6311L77.5088 55.8318C77.4793 55.7727 77.3905 55.743 77.3313 55.7825V55.7825Z" fill="white"/>
<path d="M79.2355 57.4698C79.1567 57.4993 79.0777 57.4698 79.0481 57.4008L78.2489 55.4963C78.2193 55.4273 78.2588 55.3384 78.3278 55.3088C78.4067 55.2793 78.4857 55.3088 78.5152 55.3779L79.3145 57.2822C79.3441 57.3513 79.3047 57.4401 79.2355 57.4696V57.4698Z" fill="#F3F3F3"/>
<path d="M79.2355 57.4797C79.1567 57.5093 79.0679 57.4797 79.0284 57.4007L78.2291 55.4964C78.2148 55.4585 78.2161 55.4164 78.2327 55.3794C78.2494 55.3424 78.28 55.3135 78.3179 55.299C78.3969 55.2695 78.4857 55.299 78.5252 55.378L79.3243 57.2823C79.354 57.3514 79.3146 57.4402 79.2356 57.4797H79.2355ZM78.3377 55.3188C78.2686 55.3483 78.239 55.4274 78.2686 55.4866L79.0678 57.3908C79.0973 57.4599 79.1762 57.4894 79.2453 57.4599C79.3144 57.4303 79.3441 57.3513 79.3144 57.2921L78.5152 55.3878C78.4757 55.3187 78.4066 55.2891 78.3376 55.3187L78.3377 55.3188Z" fill="white"/>
<path d="M79.719 56.0687C79.6401 56.0982 79.5611 56.0587 79.5316 55.9799L79.2454 55.1115C79.2159 55.0424 79.2652 54.9536 79.3342 54.934C79.4033 54.9142 79.4921 54.9438 79.5216 55.0228L79.8078 55.8911C79.8374 55.9601 79.798 56.0391 79.719 56.0686V56.0687Z" fill="#F3F3F3"/>
<path d="M79.7289 56.0785C79.691 56.0928 79.6489 56.0915 79.6119 56.0748C79.5749 56.0582 79.5461 56.0276 79.5316 55.9897L79.2454 55.1214C79.2159 55.0424 79.2652 54.9537 79.3442 54.9241C79.3821 54.9098 79.4242 54.9111 79.4612 54.9278C79.4982 54.9444 79.527 54.975 79.5415 55.0129L79.8276 55.8812C79.8474 55.9601 79.8078 56.049 79.7289 56.0785V56.0785ZM79.3441 54.9439C79.275 54.9635 79.2355 55.0424 79.2553 55.1115L79.5415 55.9799C79.5611 56.049 79.6401 56.0785 79.7092 56.0587C79.7783 56.0391 79.8177 55.9601 79.798 55.8911L79.5119 55.0227C79.5068 55.0059 79.4983 54.9904 79.4869 54.9772C79.4755 54.9639 79.4614 54.9532 79.4456 54.9458C79.4298 54.9384 79.4125 54.9343 79.3951 54.934C79.3776 54.9336 79.3602 54.937 79.3441 54.9438V54.9439Z" fill="white"/>
<path d="M80.8834 56.9666C80.8045 56.9863 80.7255 56.937 80.7157 56.858L80.3012 54.8353C80.2815 54.7564 80.3407 54.6873 80.4196 54.6675C80.4986 54.6478 80.5774 54.6971 80.5873 54.7761L81.0019 56.7989C81.0116 56.8679 80.9623 56.9468 80.8834 56.9666V56.9666Z" fill="#F3F3F3"/>
<path d="M80.8834 56.9764C80.7946 56.9962 80.7157 56.9369 80.6959 56.858L80.2815 54.8353C80.2617 54.7563 80.321 54.6675 80.3999 54.6577C80.4887 54.6379 80.5677 54.6972 80.5873 54.7761L81.0019 56.7989C81.0215 56.8777 80.9722 56.9568 80.8834 56.9764V56.9764ZM80.4197 54.6774C80.3505 54.6873 80.3012 54.7563 80.3111 54.8353L80.7255 56.8581C80.7354 56.927 80.8142 56.9764 80.8834 56.9567C80.9525 56.9468 81.0018 56.8777 80.9919 56.7988L80.5774 54.776C80.5578 54.7071 80.4887 54.6675 80.4196 54.6774H80.4197Z" fill="white"/>
<path d="M81.6332 55.6838C81.5543 55.6937 81.4853 55.6444 81.4655 55.5655L81.3471 54.6577C81.3373 54.5787 81.3964 54.5097 81.4755 54.4998C81.5543 54.4899 81.6234 54.5393 81.6431 54.6182L81.7615 55.526C81.7714 55.6049 81.7122 55.6739 81.6332 55.6838V55.6838Z" fill="#F3F3F3"/>
<path d="M81.6332 55.6937C81.5444 55.7036 81.4655 55.6444 81.4556 55.5654L81.3373 54.6576C81.3274 54.5787 81.3866 54.4998 81.4754 54.4899C81.5642 54.4801 81.6431 54.5393 81.653 54.6182L81.7714 55.5259C81.7812 55.6049 81.7221 55.6838 81.6332 55.6937V55.6937ZM81.4853 54.5096C81.4162 54.5195 81.3569 54.5886 81.3668 54.6576L81.4853 55.5655C81.4951 55.6345 81.5642 55.6838 81.6332 55.6739C81.7023 55.6642 81.7616 55.595 81.7517 55.5259L81.6332 54.6182C81.6234 54.5492 81.5543 54.4998 81.4853 54.5096V54.5096Z" fill="white"/>
<path d="M82.6989 77.3024C89.151 77.3024 94.3815 72.072 94.3815 65.6199C94.3815 59.1678 89.151 53.9374 82.6989 53.9374C76.2468 53.9374 71.0164 59.1678 71.0164 65.6199C71.0164 72.072 76.2468 77.3024 82.6989 77.3024Z" fill="url(#paint17_linear)" fill-opacity="0.2"/>
<g filter="url(#filter1_d)">
<path d="M90.7898 58.2098L81.3668 64.2485H81.3569V64.2582L81.347 64.2681L75.4665 73.9675L84.1099 67.0112L84.1198 67.0014V66.9916L90.7899 58.2099L90.7898 58.2098Z" fill="black" fill-opacity="0.05"/>
</g>
<path d="M90.6122 57.6474L81.2977 64.2681L84.0605 67.0111L90.6122 57.6474" fill="#CD151E"/>
<path d="M81.3076 64.2484L82.6989 65.6199L90.6122 57.6474L81.3076 64.2484V64.2484Z" fill="#FA5153"/>
<path d="M81.3076 64.2484L84.0704 66.9913L74.7559 73.6122L81.3076 64.2483V64.2484Z" fill="#ACACAC"/>
<path d="M74.7559 73.6122L82.6988 65.6199L81.3075 64.2483L74.7559 73.6122Z" fill="#EEEEEE"/>
<g clip-path="url(#clip0)">
<path d="M129.461 72.3477C129.116 72.5305 128.76 72.693 128.395 72.825C127.227 73.2617 125.998 73.4852 124.748 73.4852C119.945 73.4852 115.76 70.1844 115.76 65.9391C115.77 64.7813 116.41 63.7148 117.426 63.1664C113.079 63.3492 111.962 67.8789 111.962 70.5297C111.962 78.0352 118.878 78.7969 120.371 78.7969C121.173 78.7969 122.382 78.5633 123.113 78.3297L123.245 78.2891C126.048 77.3242 128.425 75.4352 130.009 72.9266C130.131 72.7336 130.07 72.4898 129.888 72.368C129.755 72.2867 129.593 72.2766 129.461 72.3477V72.3477Z" fill="url(#paint18_linear)"/>
<path opacity="0.35" d="M129.461 72.3477C129.116 72.5305 128.76 72.693 128.395 72.825C127.227 73.2617 125.998 73.4852 124.748 73.4852C119.945 73.4852 115.76 70.1844 115.76 65.9391C115.77 64.7813 116.41 63.7148 117.426 63.1664C113.079 63.3492 111.962 67.8789 111.962 70.5297C111.962 78.0352 118.878 78.7969 120.371 78.7969C121.173 78.7969 122.382 78.5633 123.113 78.3297L123.245 78.2891C126.048 77.3242 128.425 75.4352 130.009 72.9266C130.131 72.7336 130.07 72.4898 129.888 72.368C129.755 72.2867 129.593 72.2766 129.461 72.3477V72.3477Z" fill="url(#paint19_radial)"/>
<path d="M116.735 77.5172C115.831 76.9586 115.049 76.2172 114.43 75.3539C111.759 71.6977 112.561 66.5687 116.217 63.8977C116.603 63.6234 116.999 63.3695 117.426 63.1664C117.741 63.0141 118.279 62.75 119 62.7602C120.026 62.7703 120.991 63.2578 121.61 64.0805C122.016 64.6289 122.25 65.2891 122.26 65.9797C122.26 65.9594 124.748 57.8953 114.135 57.8953C109.677 57.8953 106.01 62.1305 106.01 65.8375C105.99 67.7977 106.416 69.7477 107.239 71.525C110.042 77.4969 116.867 80.4219 123.123 78.3398C120.98 79.0102 118.645 78.7156 116.735 77.5172V77.5172Z" fill="url(#paint20_linear)"/>
<path opacity="0.41" d="M116.735 77.5172C115.831 76.9586 115.049 76.2172 114.43 75.3539C111.759 71.6977 112.561 66.5687 116.217 63.8977C116.603 63.6234 116.999 63.3695 117.426 63.1664C117.741 63.0141 118.279 62.75 119 62.7602C120.026 62.7703 120.991 63.2578 121.61 64.0805C122.016 64.6289 122.25 65.2891 122.26 65.9797C122.26 65.9594 124.748 57.8953 114.135 57.8953C109.677 57.8953 106.01 62.1305 106.01 65.8375C105.99 67.7977 106.416 69.7477 107.239 71.525C110.042 77.4969 116.867 80.4219 123.123 78.3398C120.98 79.0102 118.645 78.7156 116.735 77.5172V77.5172Z" fill="url(#paint21_radial)"/>
<path d="M121.468 68.1227C121.387 68.2242 121.133 68.3766 121.133 68.7016C121.133 68.9656 121.305 69.2195 121.61 69.4328C123.073 70.4484 125.825 70.3164 125.835 70.3164C126.922 70.3164 127.978 70.0219 128.913 69.4734C130.822 68.3562 132 66.3148 132 64.1008C132.03 61.8258 131.187 60.3125 130.852 59.6422C128.699 55.4273 124.048 53 119 53C111.891 53 106.102 58.7078 106 65.8172C106.051 62.1102 109.737 59.1141 114.125 59.1141C114.48 59.1141 116.512 59.1445 118.391 60.1398C120.046 61.0133 120.92 62.0594 121.519 63.1055C122.148 64.1922 122.26 65.5531 122.26 66.1016C122.26 66.6398 121.986 67.4523 121.468 68.1227Z" fill="url(#paint22_radial)"/>
<path d="M121.468 68.1227C121.387 68.2242 121.133 68.3766 121.133 68.7016C121.133 68.9656 121.305 69.2195 121.61 69.4328C123.073 70.4484 125.825 70.3164 125.835 70.3164C126.922 70.3164 127.978 70.0219 128.913 69.4734C130.822 68.3562 132 66.3148 132 64.1008C132.03 61.8258 131.187 60.3125 130.852 59.6422C128.699 55.4273 124.048 53 119 53C111.891 53 106.102 58.7078 106 65.8172C106.051 62.1102 109.737 59.1141 114.125 59.1141C114.48 59.1141 116.512 59.1445 118.391 60.1398C120.046 61.0133 120.92 62.0594 121.519 63.1055C122.148 64.1922 122.26 65.5531 122.26 66.1016C122.26 66.6398 121.986 67.4523 121.468 68.1227Z" fill="url(#paint23_radial)"/>
</g>
<g clip-path="url(#clip1)">
<path d="M69.1218 126.885C68.895 126.885 68.6833 126.826 68.4866 126.723L66.4752 125.56C66.1726 125.398 66.3239 125.339 66.4147 125.309C66.823 125.177 66.8986 125.147 67.3221 124.912C67.3675 124.882 67.4281 124.897 67.4734 124.926L69.0161 125.825C69.0765 125.854 69.1522 125.854 69.1975 125.825L75.232 122.424C75.2925 122.394 75.3229 122.335 75.3229 122.262V115.474C75.3229 115.401 75.2925 115.342 75.232 115.312L69.1975 111.926C69.137 111.897 69.0614 111.897 69.0161 111.926L62.9815 115.312C62.921 115.342 62.8907 115.415 62.8907 115.474V122.262C62.8907 122.321 62.921 122.394 62.9815 122.424L64.6301 123.351C65.5224 123.793 66.082 123.277 66.082 122.762V116.063C66.082 115.975 66.1576 115.887 66.2635 115.887H67.0347C67.1256 115.887 67.2162 115.96 67.2162 116.063V122.762C67.2162 123.925 66.5659 124.603 65.4316 124.603C65.0838 124.603 64.8116 124.603 64.0402 124.234L62.4522 123.351C62.0589 123.13 61.817 122.718 61.817 122.276V115.489C61.817 115.047 62.0589 114.635 62.4522 114.414L68.4866 111.013C68.8648 110.807 69.3791 110.807 69.7571 111.013L75.7916 114.414C76.1848 114.635 76.4269 115.047 76.4269 115.489V122.276C76.4269 122.718 76.1848 123.13 75.7916 123.351L69.7571 126.752C69.5605 126.841 69.3337 126.885 69.1219 126.885H69.1218ZM70.9821 122.217C68.3355 122.217 67.791 121.04 67.791 120.038C67.791 119.95 67.8666 119.862 67.9725 119.862H68.7589C68.8496 119.862 68.9253 119.921 68.9253 120.009C69.0463 120.789 69.3941 121.172 70.9973 121.172C72.2677 121.172 72.8123 120.892 72.8123 120.23C72.8123 119.847 72.6609 119.567 70.6797 119.376C69.0311 119.214 68.0027 118.861 68.0027 117.58C68.0027 116.387 69.0313 115.68 70.7553 115.68C72.6911 115.68 73.6441 116.328 73.7651 117.742C73.7651 117.786 73.7499 117.83 73.7197 117.874C73.6893 117.904 73.6441 117.933 73.5987 117.933H72.8122C72.7365 117.933 72.6609 117.874 72.6459 117.801C72.4644 116.991 71.9955 116.726 70.7553 116.726C69.3639 116.726 69.1975 117.197 69.1975 117.55C69.1975 117.977 69.3941 118.11 71.2695 118.345C73.1298 118.581 74.0071 118.919 74.0071 120.186C73.9919 121.481 72.903 122.217 70.9821 122.217Z" fill="#539E43"/>
<path d="M50.3969 100.339C50.3969 100.074 50.2456 99.8237 50.0036 99.6912L43.591 96.0989C43.485 96.0399 43.3641 96.0104 43.2432 95.9957H43.1826C43.0617 95.9957 42.9406 96.0399 42.8348 96.0989L36.4221 99.6912C36.18 99.8237 36.0289 100.074 36.0289 100.339L36.0441 109.997C36.0441 110.13 36.1197 110.262 36.2406 110.321C36.3617 110.395 36.5128 110.395 36.6188 110.321L40.4301 108.201C40.672 108.069 40.8233 107.818 40.8233 107.553V103.033C40.8233 102.768 40.9745 102.518 41.2165 102.386L42.8348 101.473C42.9558 101.399 43.0919 101.37 43.228 101.37C43.3641 101.37 43.5002 101.399 43.6062 101.473L45.2244 102.386C45.4665 102.518 45.6176 102.768 45.6176 103.033V107.553C45.6176 107.818 45.7689 108.069 46.0108 108.201L49.8221 110.321C49.9432 110.395 50.0943 110.395 50.2154 110.321C50.3364 110.262 50.412 110.13 50.412 109.997L50.3969 100.339Z" fill="#333333"/>
<path d="M81.2212 87.0442C81.1003 86.9852 80.949 86.9852 80.843 87.0442C80.7221 87.1178 80.6465 87.2355 80.6465 87.368V96.9381C80.6465 97.0264 80.6012 97.1147 80.5104 97.1736C80.4197 97.2177 80.3289 97.2177 80.2382 97.1736L78.635 96.2755C78.5175 96.2104 78.3846 96.1761 78.2493 96.1761C78.1141 96.1761 77.9811 96.2104 77.8636 96.2755L71.451 99.8827C71.209 100.015 71.0578 100.265 71.0578 100.53V107.73C71.0578 107.995 71.209 108.245 71.451 108.378L77.8636 111.985C77.9811 112.05 78.1141 112.084 78.2493 112.084C78.3846 112.084 78.5175 112.05 78.635 111.985L85.0477 108.378C85.2896 108.245 85.4409 107.995 85.4409 107.73V89.7827C85.4409 89.5029 85.2896 89.2527 85.0477 89.1201L81.2213 87.0442H81.2212ZM80.6314 105.36C80.6314 105.433 80.6012 105.492 80.5406 105.522L78.3477 106.758C78.317 106.773 78.2834 106.78 78.2493 106.78C78.2152 106.78 78.1816 106.773 78.151 106.758L75.958 105.522C75.8975 105.492 75.8672 105.418 75.8672 105.36V102.886C75.8672 102.812 75.8975 102.754 75.958 102.724L78.151 101.487C78.1816 101.473 78.2152 101.465 78.2493 101.465C78.2834 101.465 78.317 101.473 78.3477 101.487L80.5406 102.724C80.6012 102.754 80.6314 102.827 80.6314 102.886V105.36Z" fill="#333333"/>
<path d="M102.561 102.827C102.803 102.695 102.94 102.444 102.94 102.179V100.427C102.94 100.162 102.788 99.9121 102.561 99.7796L96.1941 96.1873C96.0766 96.1221 95.9437 96.0879 95.8085 96.0879C95.6733 96.0879 95.5404 96.1221 95.4228 96.1873L89.0102 99.7943C88.7681 99.9267 88.617 100.177 88.617 100.442V107.642C88.617 107.907 88.7681 108.157 89.0102 108.289L95.3774 111.823C95.6195 111.955 95.9068 111.955 96.1337 111.823L99.9902 109.732C100.111 109.673 100.187 109.541 100.187 109.409C100.187 109.276 100.111 109.144 99.9902 109.085L93.5474 105.477C93.4265 105.404 93.3508 105.286 93.3508 105.154V102.901C93.3508 102.769 93.4265 102.636 93.5474 102.577L95.5589 101.458C95.6178 101.422 95.686 101.403 95.7556 101.403C95.8251 101.403 95.8933 101.422 95.9522 101.458L97.9636 102.577C98.0847 102.651 98.1603 102.768 98.1603 102.901V104.668C98.1603 104.8 98.2359 104.933 98.3568 104.992C98.4779 105.065 98.629 105.065 98.7501 104.992L102.561 102.827V102.827Z" fill="#333333"/>
<path d="M95.7102 102.489C95.7327 102.474 95.7589 102.467 95.7858 102.467C95.8127 102.467 95.8389 102.474 95.8614 102.489L97.0865 103.181C97.1319 103.21 97.1621 103.254 97.1621 103.313V104.697C97.1621 104.756 97.1319 104.8 97.0865 104.83L95.8614 105.522C95.8389 105.536 95.8127 105.544 95.7858 105.544C95.7589 105.544 95.7327 105.536 95.7102 105.522L94.4851 104.83C94.4397 104.8 94.4095 104.756 94.4095 104.697V103.313C94.4095 103.254 94.4397 103.21 94.4851 103.181L95.7102 102.489V102.489Z" fill="#539E43"/>
<mask id="mask0" mask-type="alpha" maskUnits="userSpaceOnUse" x="53" y="96" width="15" height="16">
<path d="M61.1212 96.2167C61.0037 96.1516 60.8708 96.1173 60.7356 96.1173C60.6003 96.1173 60.4674 96.1516 60.3499 96.2167L53.9827 99.7941C53.7406 99.9266 53.6045 100.177 53.6045 100.442V107.612C53.6045 107.877 53.7558 108.127 53.9827 108.26L60.3499 111.838C60.4674 111.903 60.6003 111.937 60.7356 111.937C60.8708 111.937 61.0037 111.903 61.1212 111.838L67.4886 108.26C67.7305 108.127 67.8667 107.877 67.8667 107.612V100.442C67.8667 100.177 67.7153 99.9268 67.4886 99.7943L61.1212 96.2167Z" fill="white"/>
</mask>
<g mask="url(#mask0)">
<path d="M61.1212 96.2167C61.0037 96.1516 60.8708 96.1173 60.7356 96.1173C60.6003 96.1173 60.4674 96.1516 60.3499 96.2167L53.9827 99.7941C53.7406 99.9266 53.6045 100.177 53.6045 100.442V107.612C53.6045 107.877 53.7558 108.127 53.9827 108.26L60.3499 111.838C60.4674 111.903 60.6003 111.937 60.7356 111.937C60.8708 111.937 61.0037 111.903 61.1212 111.838L67.4886 108.26C67.7305 108.127 67.8667 107.877 67.8667 107.612V100.442C67.8667 100.177 67.7153 99.9268 67.4886 99.7943L61.1212 96.2167Z" fill="url(#paint24_linear)"/>
<path d="M67.5036 99.7943L61.1062 96.2167C61.0433 96.1858 60.9774 96.1611 60.9095 96.1431L53.7406 108.098C53.8 108.169 53.8717 108.229 53.9525 108.275L60.3499 111.853C60.5314 111.956 60.7432 111.985 60.9397 111.926L67.6701 99.9417C67.6247 99.8828 67.5641 99.8385 67.5036 99.7944V99.7943Z" fill="url(#paint25_linear)"/>
<path fill-rule="evenodd" clip-rule="evenodd" d="M67.5188 108.26C67.7003 108.157 67.8364 107.98 67.897 107.789L60.8791 96.1283C60.6976 96.0989 60.5009 96.1135 60.3347 96.2166L53.9826 99.7796L60.8337 111.941C60.9333 111.925 61.0301 111.895 61.1211 111.853L67.5187 108.26L67.5188 108.26Z" fill="url(#paint26_linear)"/>
<path fill-rule="evenodd" clip-rule="evenodd" d="M67.5188 108.26L61.1364 111.838C61.0463 111.882 60.9492 111.912 60.849 111.926L60.9701 112.147L68.0481 108.157V108.069L67.8666 107.774C67.8364 107.98 67.7003 108.157 67.5188 108.26V108.26Z" fill="url(#paint27_linear)"/>
<path fill-rule="evenodd" clip-rule="evenodd" d="M67.5188 108.26L61.1364 111.838C61.0463 111.882 60.9492 111.912 60.849 111.926L60.9701 112.147L68.0481 108.157V108.069L67.8666 107.774C67.8364 107.98 67.7003 108.157 67.5188 108.26V108.26Z" fill="url(#paint28_linear)"/>
</g>
</g>
<defs>
<filter id="filter0_d" x="66" y="51" width="33.2595" height="33.2595" filterUnits="userSpaceOnUse" color-interpolation-filters="sRGB">
<feFlood flood-opacity="0" result="BackgroundImageFix"/>
<feColorMatrix in="SourceAlpha" type="matrix" values="0 0 0 0 0 0 0 0 0 0 0 0 0 0 0 0 0 0 127 0"/>
<feOffset dy="2"/>
<feGaussianBlur stdDeviation="2"/>
<feColorMatrix type="matrix" values="0 0 0 0 0 0 0 0 0 0 0 0 0 0 0 0 0 0 0.266007 0"/>
<feBlend mode="normal" in2="BackgroundImageFix" result="effect1_dropShadow"/>
<feBlend mode="normal" in="SourceGraphic" in2="effect1_dropShadow" result="shape"/>
</filter>
<filter id="filter1_d" x="71.4665" y="55.2098" width="23.3235" height="23.7577" filterUnits="userSpaceOnUse" color-interpolation-filters="sRGB">
<feFlood flood-opacity="0" result="BackgroundImageFix"/>
<feColorMatrix in="SourceAlpha" type="matrix" values="0 0 0 0 0 0 0 0 0 0 0 0 0 0 0 0 0 0 127 0"/>
<feOffset dy="1"/>
<feGaussianBlur stdDeviation="2"/>
<feColorMatrix type="matrix" values="0 0 0 0 0 0 0 0 0 0 0 0 0 0 0 0 0 0 1 0"/>
<feBlend mode="normal" in2="BackgroundImageFix" result="effect1_dropShadow"/>
<feBlend mode="normal" in="SourceGraphic" in2="effect1_dropShadow" result="shape"/>
</filter>
<radialGradient id="paint0_radial" cx="0" cy="0" r="1" gradientUnits="userSpaceOnUse" gradientTransform="translate(167.517 60.3173) rotate(2.26751) scale(9.35288 13.8295)">
<stop offset="0.1" stop-color="#FFEA00"/>
<stop offset="0.17" stop-color="#FFDE00"/>
<stop offset="0.28" stop-color="#FFBF00"/>
<stop offset="0.43" stop-color="#FF8E00"/>
<stop offset="0.77" stop-color="#FF272D"/>
<stop offset="0.87" stop-color="#E0255A"/>
<stop offset="0.95" stop-color="#CC2477"/>
<stop offset="1" stop-color="#C42482"/>
</radialGradient>
<radialGradient id="paint1_radial" cx="0" cy="0" r="1" gradientUnits="userSpaceOnUse" gradientTransform="translate(159.023 56.1647) scale(26.5422 26.6269)">
<stop stop-color="#00CCDA"/>
<stop offset="0.22" stop-color="#0083FF"/>
<stop offset="0.26" stop-color="#007AF9"/>
<stop offset="0.33" stop-color="#005FE7"/>
<stop offset="0.44" stop-color="#2639AD"/>
<stop offset="0.52" stop-color="#401E84"/>
<stop offset="0.57" stop-color="#4A1475"/>
</radialGradient>
<linearGradient id="paint2_linear" x1="156.751" y1="71.948" x2="151.5" y2="54.8244" gradientUnits="userSpaceOnUse">
<stop stop-color="#000F43" stop-opacity="0.4"/>
<stop offset="0.48" stop-color="#001962" stop-opacity="0.17"/>
<stop offset="1" stop-color="#002079" stop-opacity="0"/>
</linearGradient>
<radialGradient id="paint3_radial" cx="0" cy="0" r="1" gradientUnits="userSpaceOnUse" gradientTransform="translate(168.336 69.9135) rotate(5.63524) scale(8.92282 8.95076)">
<stop stop-color="#FFEA00"/>
<stop offset="0.5" stop-color="#FF272D"/>
<stop offset="1" stop-color="#C42482"/>
</radialGradient>
<radialGradient id="paint4_radial" cx="0" cy="0" r="1" gradientUnits="userSpaceOnUse" gradientTransform="translate(168.37 61.2926) rotate(5.63524) scale(14.9002 14.9469)">
<stop stop-color="#FFE900"/>
<stop offset="0.16" stop-color="#FFAF0E"/>
<stop offset="0.32" stop-color="#FF7A1B"/>
<stop offset="0.47" stop-color="#FF4E26"/>
<stop offset="0.62" stop-color="#FF2C2E"/>
<stop offset="0.76" stop-color="#FF1434"/>
<stop offset="0.89" stop-color="#FF0538"/>
<stop offset="1" stop-color="#FF0039"/>
</radialGradient>
<radialGradient id="paint5_radial" cx="0" cy="0" r="1" gradientUnits="userSpaceOnUse" gradientTransform="translate(169.115 75.289) rotate(5.63524) scale(13.6725 13.7154)">
<stop stop-color="#FF272D"/>
<stop offset="0.5" stop-color="#C42482"/>
<stop offset="0.99" stop-color="#620700"/>
</radialGradient>
<radialGradient id="paint6_radial" cx="0" cy="0" r="1" gradientUnits="userSpaceOnUse" gradientTransform="translate(161.505 62.7802) scale(21.3318 21.3999)">
<stop offset="0.16" stop-color="#FFEA00"/>
<stop offset="0.23" stop-color="#FFDE00"/>
<stop offset="0.37" stop-color="#FFBF00"/>
<stop offset="0.54" stop-color="#FF8E00"/>
<stop offset="0.76" stop-color="#FF272D"/>
<stop offset="0.8" stop-color="#F92433"/>
<stop offset="0.84" stop-color="#E91C45"/>
<stop offset="0.89" stop-color="#CF0E62"/>
<stop offset="0.94" stop-color="#B5007F"/>
</radialGradient>
<radialGradient id="paint7_radial" cx="0" cy="0" r="1" gradientUnits="userSpaceOnUse" gradientTransform="translate(160.282 52.8556) scale(24.3119 24.3895)">
<stop offset="0.28" stop-color="#FFEA00"/>
<stop offset="0.4" stop-color="#FFDD00"/>
<stop offset="0.63" stop-color="#FFBA00"/>
<stop offset="0.86" stop-color="#FF9100"/>
<stop offset="0.93" stop-color="#FF6711"/>
<stop offset="0.99" stop-color="#FF4A1D"/>
</radialGradient>
<linearGradient id="paint8_linear" x1="146.052" y1="61.9894" x2="156.525" y2="60.3951" gradientUnits="userSpaceOnUse">
<stop stop-color="#C42482" stop-opacity="0.5"/>
<stop offset="0.47" stop-color="#FF272D" stop-opacity="0.5"/>
<stop offset="0.49" stop-color="#FF2C2C" stop-opacity="0.51"/>
<stop offset="0.68" stop-color="#FF7A1A" stop-opacity="0.72"/>
<stop offset="0.83" stop-color="#FFB20D" stop-opacity="0.87"/>
<stop offset="0.94" stop-color="#FFD605" stop-opacity="0.96"/>
<stop offset="1" stop-color="#FFE302"/>
</linearGradient>
<linearGradient id="paint9_linear" x1="145.973" y1="59.2346" x2="144.875" y2="55.2992" gradientUnits="userSpaceOnUse">
<stop stop-color="#891551" stop-opacity="0.6"/>
<stop offset="1" stop-color="#C42482" stop-opacity="0"/>
</linearGradient>
<linearGradient id="paint10_linear" x1="147.966" y1="64.7672" x2="150.225" y2="67.9127" gradientUnits="userSpaceOnUse">
<stop offset="0.01" stop-color="#891551" stop-opacity="0.5"/>
<stop offset="0.48" stop-color="#FF272D" stop-opacity="0.5"/>
<stop offset="1" stop-color="#FF272D" stop-opacity="0"/>
</linearGradient>
<linearGradient id="paint11_linear" x1="152.35" y1="70.2552" x2="152.557" y2="68.23" gradientUnits="userSpaceOnUse">
<stop stop-color="#C42482"/>
<stop offset="0.08" stop-color="#C42482" stop-opacity="0.81"/>
<stop offset="0.21" stop-color="#C42482" stop-opacity="0.57"/>
<stop offset="0.33" stop-color="#C42482" stop-opacity="0.36"/>
<stop offset="0.45" stop-color="#C42482" stop-opacity="0.2"/>
<stop offset="0.56" stop-color="#C42482" stop-opacity="0.09"/>
<stop offset="0.67" stop-color="#C42482" stop-opacity="0.02"/>
<stop offset="0.77" stop-color="#C42482" stop-opacity="0"/>
</linearGradient>
<linearGradient id="paint12_linear" x1="158.919" y1="52.9897" x2="167.3" y2="71.6693" gradientUnits="userSpaceOnUse">
<stop stop-color="#FFF14F"/>
<stop offset="0.27" stop-color="#FFEE4C"/>
<stop offset="0.45" stop-color="#FFE643"/>
<stop offset="0.61" stop-color="#FFD834"/>
<stop offset="0.76" stop-color="#FFC41E"/>
<stop offset="0.89" stop-color="#FFAB02"/>
<stop offset="0.9" stop-color="#FFA900"/>
<stop offset="0.95" stop-color="#FFA000"/>
<stop offset="1" stop-color="#FF9100"/>
</linearGradient>
<linearGradient id="paint13_linear" x1="160.575" y1="63.7449" x2="156.604" y2="74.3724" gradientUnits="userSpaceOnUse">
<stop stop-color="#FF8E00"/>
<stop offset="0.04" stop-color="#FF8E00" stop-opacity="0.86"/>
<stop offset="0.08" stop-color="#FF8E00" stop-opacity="0.73"/>
<stop offset="0.13" stop-color="#FF8E00" stop-opacity="0.63"/>
<stop offset="0.18" stop-color="#FF8E00" stop-opacity="0.56"/>
<stop offset="0.23" stop-color="#FF8E00" stop-opacity="0.51"/>
<stop offset="0.28" stop-color="#FF8E00" stop-opacity="0.5"/>
<stop offset="0.39" stop-color="#FF8E00" stop-opacity="0.48"/>
<stop offset="0.52" stop-color="#FF8E00" stop-opacity="0.42"/>
<stop offset="0.68" stop-color="#FF8E00" stop-opacity="0.31"/>
<stop offset="0.84" stop-color="#FF8E00" stop-opacity="0.17"/>
<stop offset="1" stop-color="#FF8E00" stop-opacity="0"/>
</linearGradient>
<linearGradient id="paint14_linear" x1="46.9461" y1="61.3219" x2="46.9461" y2="70.5694" gradientUnits="userSpaceOnUse">
<stop stop-color="#86BBE5"/>
<stop offset="1" stop-color="#1072BA"/>
</linearGradient>
<linearGradient id="paint15_linear" x1="82.6298" y1="78.2595" x2="82.6298" y2="53" gradientUnits="userSpaceOnUse">
<stop offset="0.25" stop-color="#DBDBDA"/>
<stop offset="1" stop-color="white"/>
</linearGradient>
<radialGradient id="paint16_radial" cx="0" cy="0" r="1" gradientUnits="userSpaceOnUse" gradientTransform="translate(84.2712 63.0636) scale(14.2602)">
<stop stop-color="#2ABCE1"/>
<stop offset="0.11363" stop-color="#2ABBE1"/>
<stop offset="1" stop-color="#3375F8"/>
</radialGradient>
<linearGradient id="paint17_linear" x1="82.477" y1="62.2794" x2="77.0243" y2="72.0621" gradientUnits="userSpaceOnUse">
<stop stop-opacity="0"/>
<stop offset="1"/>
</linearGradient>
<linearGradient id="paint18_linear" x1="111.962" y1="70.9786" x2="130.069" y2="70.9786" gradientUnits="userSpaceOnUse">
<stop stop-color="#0C59A4"/>
<stop offset="1" stop-color="#114A8B"/>
</linearGradient>
<radialGradient id="paint19_radial" cx="0" cy="0" r="1" gradientUnits="userSpaceOnUse" gradientTransform="translate(121.965 71.1224) scale(9.68606 9.20074)">
<stop offset="0.72" stop-opacity="0"/>
<stop offset="0.95" stop-opacity="0.53"/>
<stop offset="1"/>
</radialGradient>
<linearGradient id="paint20_linear" x1="121.516" y1="63.1305" x2="110.204" y2="75.4512" gradientUnits="userSpaceOnUse">
<stop stop-color="#1B9DE2"/>
<stop offset="0.16" stop-color="#1595DF"/>
<stop offset="0.67" stop-color="#0680D7"/>
<stop offset="1" stop-color="#0078D4"/>
</linearGradient>
<radialGradient id="paint21_radial" cx="0" cy="0" r="1" gradientUnits="userSpaceOnUse" gradientTransform="translate(113.171 73.2119) rotate(-81.3826) scale(14.5638 11.7684)">
<stop offset="0.76" stop-opacity="0"/>
<stop offset="0.95" stop-opacity="0.5"/>
<stop offset="1"/>
</radialGradient>
<radialGradient id="paint22_radial" cx="0" cy="0" r="1" gradientUnits="userSpaceOnUse" gradientTransform="translate(108.626 57.8133) rotate(92.2911) scale(20.5716 43.82)">
<stop stop-color="#35C1F1"/>
<stop offset="0.11" stop-color="#34C1ED"/>
<stop offset="0.23" stop-color="#2FC2DF"/>
<stop offset="0.31" stop-color="#2BC3D2"/>
<stop offset="0.67" stop-color="#36C752"/>
</radialGradient>
<radialGradient id="paint23_radial" cx="0" cy="0" r="1" gradientUnits="userSpaceOnUse" gradientTransform="translate(130.381 60.8615) rotate(73.7366) scale(9.8842 8.03937)">
<stop stop-color="#66EB6E"/>
<stop offset="1" stop-color="#66EB6E" stop-opacity="0"/>
</radialGradient>
<linearGradient id="paint24_linear" x1="63.3296" y1="98.8837" x2="56.6145" y2="109.723" gradientUnits="userSpaceOnUse">
<stop stop-color="#41873F"/>
<stop offset="0.3288" stop-color="#418B3D"/>
<stop offset="0.6352" stop-color="#419637"/>
<stop offset="0.9319" stop-color="#3FA92D"/>
<stop offset="1" stop-color="#3FAE2A"/>
</linearGradient>
<linearGradient id="paint25_linear" x1="59.7689" y1="104.867" x2="77.0304" y2="95.2333" gradientUnits="userSpaceOnUse">
<stop offset="0.1376" stop-color="#41873F"/>
<stop offset="0.4032" stop-color="#54A044"/>
<stop offset="0.7136" stop-color="#66B848"/>
<stop offset="0.9081" stop-color="#6CC04A"/>
</linearGradient>
<linearGradient id="paint26_linear" x1="53.3719" y1="104.027" x2="68.1055" y2="104.027" gradientUnits="userSpaceOnUse">
<stop offset="0.09192" stop-color="#6CC04A"/>
<stop offset="0.2864" stop-color="#66B848"/>
<stop offset="0.5968" stop-color="#54A044"/>
<stop offset="0.8624" stop-color="#41873F"/>
</linearGradient>
<linearGradient id="paint27_linear" x1="53.372" y1="109.973" x2="68.1055" y2="109.973" gradientUnits="userSpaceOnUse">
<stop offset="0.09192" stop-color="#6CC04A"/>
<stop offset="0.2864" stop-color="#66B848"/>
<stop offset="0.5968" stop-color="#54A044"/>
<stop offset="0.8624" stop-color="#41873F"/>
</linearGradient>
<linearGradient id="paint28_linear" x1="70.252" y1="98.5446" x2="66.7082" y2="117.62" gradientUnits="userSpaceOnUse">
<stop stop-color="#41873F"/>
<stop offset="0.3288" stop-color="#418B3D"/>
<stop offset="0.6352" stop-color="#419637"/>
<stop offset="0.9319" stop-color="#3FA92D"/>
<stop offset="1" stop-color="#3FAE2A"/>
</linearGradient>
<clipPath id="clip0">
<rect width="26" height="26" fill="white" transform="translate(106 53)"/>
</clipPath>
<clipPath id="clip1">
<rect width="67" height="40" fill="white" transform="translate(36 87)"/>
</clipPath>
</defs>
</svg>
