<svg width="1920" height="431" viewBox="0 0 1920 431" fill="none" xmlns="http://www.w3.org/2000/svg">
<g opacity="0.23">
<mask id="mask0" mask-type="alpha" maskUnits="userSpaceOnUse" x="0" y="0" width="1920" height="431">
<rect width="1920" height="431" fill="#F2F2F2"/>
</mask>
<g mask="url(#mask0)">
<rect width="1920" height="431" fill="#F2F2F2"/>
<path d="M417.293 -93L151.77 -39.0968L168.74 27.7831L417.293 -93Z" fill="#FFFEFB"/>
<path d="M24 230.419L151.771 -39.0969L168.74 27.7831L24 230.419Z" fill="#FFF6E4"/>
<path d="M24 230.419L210.665 341.22L168.74 27.7829L24 230.419Z" fill="#FFF2DF"/>
<path d="M471.197 147.568L210.664 341.22L168.74 27.7829L471.197 147.568Z" fill="#F8EEDD"/>
<path d="M493.47 415.083L214.053 340.571L469.94 150.371L493.47 415.083Z" fill="#9F9F9B" stroke="#D2CDBF" stroke-width="3" stroke-linejoin="round"/>
<path d="M214.658 464L210.665 341.22L495.154 417.084L214.658 464Z" fill="#475964"/>
<path d="M30.5181 236.033L209.192 342.091L213.014 459.614L30.5181 236.033Z" fill="#AFABA0" stroke="#C7C2B7" stroke-width="3" stroke-linejoin="round"/>
<path d="M496.108 410.878L472.834 149.044L605.69 147.105L496.108 410.878Z" fill="#44535C" stroke="#293F49" stroke-width="3" stroke-linejoin="round"/>
<path d="M172.46 27.6431L416.244 -90.8224L469.113 145.13L172.46 27.6431Z" fill="#E4D8C6" stroke="#FEF6E1" stroke-width="3" stroke-linejoin="round"/>
<path d="M417.293 -93L471.196 147.568L607.951 145.572L417.293 -93Z" fill="#83858B"/>
<path d="M1189 26.0967L1223.41 -46.4839L1227.98 -28.4731L1189 26.0967Z" fill="#FFF6E4"/>
<path d="M1189 26.0967L1239.27 55.9354L1227.98 -28.4732L1189 26.0967Z" fill="#FFF2DF"/>
<path d="M1309.43 3.78486L1239.27 55.9354L1227.98 -28.4732L1309.43 3.78486Z" fill="#F8EEDD"/>
<path d="M1309.43 3.78491L1239.27 55.9354L1315.88 76.3655L1309.43 3.78491Z" fill="#9F9F9B"/>
<path d="M1240.34 88.9999L1239.27 55.9354L1315.88 76.3655L1240.34 88.9999Z" fill="#475964"/>
<path d="M1240.34 89L1239.27 55.9355L1189 26.0968L1240.34 89Z" fill="#AFABA0" stroke="#C7C2B7" stroke-width="0.5386" stroke-linejoin="round"/>
<path d="M1309.43 3.78495L1346.26 3.24731L1315.88 76.3656L1309.43 3.78495Z" fill="#44535C" stroke="#293F49" stroke-width="0.5386" stroke-linejoin="round"/>
<path d="M1294.91 -61L1309.43 3.78493L1227.98 -28.4731L1294.91 -61Z" fill="#E4D8C6"/>
<path d="M1294.91 -61L1309.43 3.78493L1346.26 3.2473L1294.91 -61Z" fill="#83858B"/>
<path d="M1417.7 315L1308.53 337.161L1315.51 364.658L1417.7 315Z" fill="#FFFEFB"/>
<path d="M1256 447.968L1308.53 337.161L1315.51 364.658L1256 447.968Z" fill="#FFF6E4"/>
<path d="M1256 447.968L1332.74 493.521L1315.51 364.658L1256 447.968Z" fill="#FFF2DF"/>
<path d="M1439.86 413.905L1332.74 493.521L1315.51 364.658L1439.86 413.905Z" fill="#F8EEDD"/>
<path d="M1439.86 413.905L1332.74 493.521L1449.71 524.711L1439.86 413.905Z" fill="#9F9F9B"/>
<path d="M1439.86 413.905L1496.08 413.084L1449.71 524.711L1439.86 413.905Z" fill="#44535C" stroke="#293F49" stroke-width="0.822262" stroke-linejoin="round"/>
<path d="M1417.7 315L1439.86 413.905L1315.51 364.658L1417.7 315Z" fill="#E4D8C6"/>
<path d="M1417.7 315L1439.86 413.905L1496.08 413.084L1417.7 315Z" fill="#83858B"/>
<path d="M1656.85 61L1555.01 81.6754L1561.52 107.328L1656.85 61Z" fill="#FFFEFB"/>
<path d="M1506 185.053L1555.01 81.6754L1561.52 107.328L1506 185.053Z" fill="#FFF6E4"/>
<path d="M1506 185.052L1577.6 227.552L1561.52 107.328L1506 185.052Z" fill="#FFF2DF"/>
<path d="M1677.53 153.274L1577.6 227.552L1561.52 107.328L1677.53 153.274Z" fill="#F8EEDD"/>
<path d="M1677.53 153.274L1577.6 227.552L1686.72 256.651L1677.53 153.274Z" fill="#9F9F9B"/>
<path d="M1579.13 274.646L1577.6 227.552L1686.72 256.651L1579.13 274.646Z" fill="#475964"/>
<path d="M1579.13 274.646L1577.6 227.552L1506 185.053L1579.13 274.646Z" fill="#AFABA0" stroke="#C7C2B7" stroke-width="0.767132" stroke-linejoin="round"/>
<path d="M1677.53 153.274L1729.98 152.508L1686.72 256.651L1677.53 153.274Z" fill="#44535C" stroke="#293F49" stroke-width="0.767132" stroke-linejoin="round"/>
<path d="M1656.85 61L1677.53 153.274L1561.52 107.328L1656.85 61Z" fill="#E4D8C6"/>
<path d="M1656.85 61L1677.53 153.274L1729.98 152.508L1656.85 61Z" fill="#83858B"/>
</g>
</g>
</svg>
