<svg width="200" height="200" viewBox="0 0 200 200" fill="none" xmlns="http://www.w3.org/2000/svg">
<path fill-rule="evenodd" clip-rule="evenodd" d="M181.813 116.514C181.813 67.2886 145.196 33.1562 100.027 33.1562C54.8588 33.1562 18.2422 65.96 18.2422 116.514C18.2422 131.057 24.7091 152.966 35.5587 166.844H164.496C175.346 152.966 181.813 133.714 181.813 116.514Z" fill="#3178C6"/>
<path fill-rule="evenodd" clip-rule="evenodd" d="M173.908 114.994C173.908 74.1912 140.831 41.1137 100.028 41.1137C59.2244 41.1137 26.1469 74.1912 26.1469 114.994C26.1469 132.141 31.9887 147.922 41.7898 160.459H158.265C168.066 147.922 173.908 132.141 173.908 114.994Z" fill="#E4EBF7"/>
<path fill-rule="evenodd" clip-rule="evenodd" d="M173.908 114.994C173.908 74.1912 140.831 41.1137 100.028 41.1137C59.2244 41.1137 26.1469 74.1912 26.1469 114.994C26.1469 132.141 31.9887 147.922 41.7898 160.459H158.265C168.066 147.922 173.908 132.141 173.908 114.994Z" fill="#E4EBF7"/>
<path d="M100.028 68.4315C127.415 68.4315 149.617 90.6335 149.617 118.021C149.617 129.237 145.881 139.885 139.117 148.538C138.823 148.913 138.281 148.98 137.906 148.686C137.531 148.393 137.464 147.851 137.758 147.475C144.287 139.124 147.892 128.848 147.892 118.021C147.892 91.5862 126.462 70.1565 100.028 70.1565C73.5928 70.1565 52.1631 91.5862 52.1631 118.021C52.1631 128.848 55.7677 139.123 62.2972 147.475C62.5906 147.851 62.5242 148.393 62.1489 148.686C61.7737 148.98 61.2316 148.913 60.9382 148.538C54.1736 139.885 50.4381 129.237 50.4381 118.021C50.4381 90.6335 72.6401 68.4315 100.028 68.4315Z" fill="white"/>
<path fill-rule="evenodd" clip-rule="evenodd" d="M100.091 62.3417C98.3536 62.3417 96.9453 60.9333 96.9453 59.1961V52.905C96.9453 51.1678 98.3536 49.7594 100.091 49.7594C101.828 49.7594 103.236 51.1678 103.236 52.905V59.1961C103.236 60.9333 101.828 62.3417 100.091 62.3417Z" fill="#3178C6"/>
<path fill-rule="evenodd" clip-rule="evenodd" d="M58.954 79.3221C57.7256 80.5506 55.7339 80.5506 54.5055 79.3221L50.0569 74.8736C48.8285 73.6451 48.8285 71.6535 50.0569 70.425C51.2854 69.1966 53.277 69.1966 54.5055 70.425L58.954 74.8736C60.1823 76.102 60.1823 78.0935 58.954 79.3221Z" fill="#3178C6"/>
<path fill-rule="evenodd" clip-rule="evenodd" d="M44.3862 116.514C44.3862 118.251 42.9779 119.66 41.2406 119.66H34.9494C33.2121 119.66 31.8038 118.251 31.8038 116.514C31.8038 114.777 33.2121 113.369 34.9494 113.369H41.2406C42.9779 113.369 44.3862 114.777 44.3862 116.514Z" fill="#3178C6"/>
<path fill-rule="evenodd" clip-rule="evenodd" d="M155.669 116.514C155.669 114.777 157.077 113.369 158.814 113.369H165.106C166.843 113.369 168.251 114.777 168.251 116.514C168.251 118.251 166.843 119.66 165.106 119.66H158.814C157.077 119.66 155.669 118.251 155.669 116.514Z" fill="#3178C6"/>
<path fill-rule="evenodd" clip-rule="evenodd" d="M141.101 74.8736L145.549 70.425C146.778 69.1966 148.77 69.1966 149.998 70.425C151.226 71.6535 151.226 73.6451 149.998 74.8736L145.549 79.3221C144.321 80.5506 142.329 80.5506 141.101 79.3221C139.873 78.0935 139.873 76.102 141.101 74.8736Z" fill="#3178C6"/>
<path fill-rule="evenodd" clip-rule="evenodd" d="M103.105 128.063L145.663 104.617C146.468 104.159 147.264 105.226 146.597 105.867L112.141 138.977L103.105 128.063Z" fill="#253368"/>
<path fill-rule="evenodd" clip-rule="evenodd" d="M100.027 151.706C93.0785 151.706 87.4451 146.072 87.4451 139.123C87.4451 132.174 93.0785 126.541 100.027 126.541C106.976 126.541 112.61 132.174 112.61 139.123C112.61 146.072 106.976 151.706 100.027 151.706Z" fill="#253368"/>
<path fill-rule="evenodd" clip-rule="evenodd" d="M106.319 139.123C106.319 142.598 103.502 145.414 100.027 145.414C96.553 145.414 93.7363 142.598 93.7363 139.123C93.7363 135.649 96.553 132.832 100.027 132.832C103.502 132.832 106.319 135.649 106.319 139.123Z" fill="#FF7946"/>
<path fill-rule="evenodd" clip-rule="evenodd" d="M166.515 110.027L138.576 151.964C137.072 154.238 138.689 157.034 141.399 157.034H153.914L138.527 185.679C137.379 187.994 140.337 190.143 142.151 188.311L184.001 146.873C186.136 144.717 184.622 141.034 181.6 141.034H162.674L170.592 111.848C171.21 109.364 167.924 107.896 166.515 110.027Z" fill="#FAAD14"/>
</svg>
