<svg width="206" height="206" viewBox="0 0 206 206" fill="none" xmlns="http://www.w3.org/2000/svg">
<path d="M155.358 22.5459H67.777C65.0374 22.5459 62.8166 24.7596 62.8166 27.4904V162.434C62.8166 165.165 65.0374 167.378 67.777 167.378H176.7C179.439 167.378 181.66 165.165 181.66 162.434V48.966L155.358 22.5459Z" fill="#3178C6"/>
<path d="M155.357 22.3398L155.399 44.0318C155.399 46.7625 157.62 48.9763 160.359 48.9763H181.66" fill="#E4EBF7"/>
<path d="M115.68 35.7683H28.3003C25.5607 35.7683 23.3398 37.982 23.3398 40.7128V175.656C23.3398 178.387 25.5607 180.601 28.3003 180.601H137.43C140.169 180.601 142.39 178.387 142.39 175.656V64.6585H123.328C120.589 64.6585 115.68 62.4459 115.68 59.714V35.7683Z" fill="#E4EBF7"/>
<path d="M59.4131 48.9392H39.7603C37.8818 48.9392 36.3589 50.462 36.3589 52.3406V71.9084C36.3589 73.7869 37.8818 75.3098 39.7603 75.3098H59.4131C61.2916 75.3098 62.8145 73.7869 62.8145 71.9084V52.3406C62.8145 50.462 61.2916 48.9392 59.4131 48.9392Z" fill="#3178C6"/>
<path d="M127.718 88.4951H37.594C36.9119 88.4951 36.3589 89.0481 36.3589 89.7303V93.8526C36.3589 94.5348 36.9119 95.0878 37.594 95.0878H127.718C128.401 95.0878 128.954 94.5348 128.954 93.8526V89.7303C128.954 89.0481 128.401 88.4951 127.718 88.4951Z" fill="#3178C6"/>
<path d="M127.718 108.25H37.594C36.9119 108.25 36.3589 108.803 36.3589 109.486V113.608C36.3589 114.29 36.9119 114.843 37.594 114.843H127.718C128.401 114.843 128.954 114.29 128.954 113.608V109.486C128.954 108.803 128.401 108.25 127.718 108.25Z" fill="#FF7946"/>
<path d="M127.718 128.028H37.594C36.9119 128.028 36.3589 128.581 36.3589 129.264V133.386C36.3589 134.068 36.9119 134.621 37.594 134.621H127.718C128.401 134.621 128.954 134.068 128.954 133.386V129.264C128.954 128.581 128.401 128.028 127.718 128.028Z" fill="#FAAD14"/>
<path d="M115.68 35.7683V59.714C115.68 62.4448 117.901 64.6585 120.641 64.6585H142.39" fill="white"/>
<rect x="11" y="139" width="62" height="26" rx="5" fill="#6FCF97"/>
<path d="M23.7504 146.189H26.3492V153.607C26.3492 154.295 26.1883 154.909 25.8666 155.448C25.5497 155.988 25.1042 156.406 24.53 156.703C23.9607 157 23.3246 157.149 22.6217 157.149C21.4436 157.149 20.5278 156.851 19.8744 156.257C19.221 155.663 18.8943 154.822 18.8943 153.733H21.5079C21.5079 154.228 21.5921 154.587 21.7604 154.81C21.9337 155.032 22.2208 155.144 22.6217 155.144C22.9831 155.144 23.2603 155.01 23.4534 154.743C23.6514 154.47 23.7504 154.092 23.7504 153.607V146.189ZM33.574 154.126C33.574 153.745 33.4378 153.448 33.1656 153.235C32.8983 153.023 32.4255 152.802 31.7474 152.575C31.0692 152.347 30.5148 152.127 30.0841 151.914C28.6832 151.226 27.9828 150.28 27.9828 149.077C27.9828 148.478 28.156 147.951 28.5025 147.496C28.854 147.035 29.349 146.679 29.9876 146.426C30.6261 146.169 31.3439 146.04 32.1409 146.04C32.9181 146.04 33.6136 146.179 34.2274 146.456C34.8462 146.733 35.3263 147.129 35.6679 147.644C36.0094 148.154 36.1802 148.738 36.1802 149.397H33.5814C33.5814 148.956 33.4453 148.614 33.173 148.372C32.9057 148.129 32.5419 148.008 32.0815 148.008C31.6162 148.008 31.2474 148.112 30.9751 148.32C30.7078 148.523 30.5742 148.783 30.5742 149.1C30.5742 149.377 30.7227 149.629 31.0197 149.857C31.3167 150.08 31.8389 150.312 32.5864 150.555C33.3339 150.792 33.9477 151.05 34.4279 151.327C35.5961 152 36.1802 152.928 36.1802 154.112C36.1802 155.057 35.8238 155.8 35.111 156.339C34.3982 156.879 33.4205 157.149 32.178 157.149C31.3018 157.149 30.5073 156.993 29.7945 156.681C29.0866 156.364 28.552 155.933 28.1907 155.389C27.8342 154.839 27.656 154.208 27.656 153.495H30.2697C30.2697 154.074 30.4182 154.503 30.7152 154.78C31.0172 155.052 31.5048 155.188 32.178 155.188C32.6087 155.188 32.9478 155.097 33.1953 154.914C33.4477 154.725 33.574 154.463 33.574 154.126ZM46.6721 151.817C46.6721 152.872 46.4766 153.805 46.0855 154.616C45.6944 155.428 45.1375 156.055 44.4148 156.495C43.697 156.931 42.8778 157.149 41.9571 157.149C41.0363 157.149 40.2196 156.938 39.5067 156.517C38.7939 156.092 38.237 155.485 37.8361 154.698C37.44 153.911 37.2321 153.008 37.2123 151.988V151.379C37.2123 150.32 37.4054 149.387 37.7915 148.58C38.1826 147.768 38.7395 147.142 39.4622 146.701C40.1899 146.261 41.0165 146.04 41.9422 146.04C42.858 146.04 43.6748 146.258 44.3925 146.694C45.1103 147.129 45.6672 147.751 46.0632 148.557C46.4642 149.359 46.6671 150.28 46.6721 151.32V151.817ZM44.0213 151.364C44.0213 150.29 43.8406 149.476 43.4792 148.921C43.1228 148.362 42.6105 148.082 41.9422 148.082C40.6354 148.082 39.9448 149.062 39.8706 151.023L39.8631 151.817C39.8631 152.877 40.0389 153.691 40.3903 154.26C40.7418 154.829 41.264 155.114 41.9571 155.114C42.6154 155.114 43.1228 154.834 43.4792 154.275C43.8356 153.716 44.0163 152.911 44.0213 151.862V151.364ZM57.0452 157H54.4537L50.6223 150.273V157H48.0161V146.189H50.6223L54.4463 152.916V146.189H57.0452V157ZM63.0893 150.867H65.6213V153.013H63.0893V155.916H60.7504V153.013H58.2109V150.867H60.7504V148.045H63.0893V150.867Z" fill="white"/>
<path fill-rule="evenodd" clip-rule="evenodd" d="M160.438 178.437C159.507 178.437 159.081 179.598 159.791 180.2L174.075 192.301C174.448 192.617 174.995 192.617 175.368 192.301L189.651 180.2C190.362 179.598 189.936 178.437 189.005 178.437L182.99 178.437C182.437 178.437 181.99 177.989 181.99 177.437L181.99 147C181.99 146.448 181.542 146 180.99 146L168.453 146C167.901 146 167.453 146.448 167.453 147L167.453 177.437C167.453 177.989 167.006 178.437 166.453 178.437L160.438 178.437Z" fill="#6FCF97"/>
<path fill-rule="evenodd" clip-rule="evenodd" d="M171.77 142.139C173.414 142.139 174.355 140.266 173.375 138.946L149.492 106.807C148.692 105.731 147.081 105.731 146.281 106.807L122.398 138.946C121.418 140.266 122.36 142.139 124.004 142.139H133.998C135.103 142.139 135.998 143.035 135.998 144.139V168.09C135.998 169.195 136.894 170.09 137.998 170.09H158.532C159.636 170.09 160.532 169.195 160.532 168.09V144.139C160.532 143.035 161.427 142.139 162.532 142.139H171.77Z" fill="#6FCF97"/>
</svg>
