<svg width="293" height="279" viewBox="0 0 293 279" fill="none" xmlns="http://www.w3.org/2000/svg">
<path d="M197 0L64 27L72.5 60.5L197 0Z" fill="#FFFEFB"/>
<path d="M0 162L64 27L72.5 60.5L0 162Z" fill="#FFF6E4"/>
<path d="M0 162L93.5 217.5L72.5 60.5L0 162Z" fill="#FFF2DF"/>
<path d="M224 120.5L93.5 217.5L72.5 60.5L224 120.5Z" fill="#F8EEDD"/>
<path d="M234.316 253.499L96.8877 216.851L222.743 123.303L234.316 253.499Z" fill="#9F9F9B" stroke="#D2CDBF" stroke-width="3" stroke-linejoin="round"/>
<path d="M95.5 279L93.5 217.5L236 255.5L95.5 279Z" fill="#475964"/>
<path d="M6.51813 167.613L92.0275 218.37L93.8566 274.614L6.51813 167.613Z" fill="#AFABA0" stroke="#C7C2B7" stroke-width="3" stroke-linejoin="round"/>
<path d="M236.954 249.293L225.637 121.976L290.239 121.033L236.954 249.293Z" fill="#44535C" stroke="#293F49" stroke-width="3" stroke-linejoin="round"/>
<path d="M76.2201 60.36L195.951 2.17761L221.916 118.061L76.2201 60.36Z" fill="#E4D8C6" stroke="#FEF6E1" stroke-width="3" stroke-linejoin="round"/>
<path d="M197 0L224 120.5L292.5 119.5L197 0Z" fill="#83858B"/>
</svg>
