<svg width="200" height="200" viewBox="0 0 200 200" fill="none" xmlns="http://www.w3.org/2000/svg">
<g clip-path="url(#clip0_127_251)">
<path d="M164.495 131.154H28.4949C34.303 145.93 121.68 145.93 164.495 131.154ZM164.495 99.3333H28.4949L28.4988 135.304C28.4988 142.315 40.8671 147.998 56.1243 147.998L132.62 148V147.998C150.227 147.998 164.491 141.441 164.491 133.351C164.491 150.901 164.495 99.3333 164.495 99.3333ZM164.495 75H28.4949C28.4949 75 28.4988 119.079 28.4988 103.483C28.4988 110.495 40.3153 116.178 54.8887 116.178V116.179H131.194V116.178C149.589 116.178 164.493 109.621 164.493 101.531L164.495 75Z" fill="#DADFE1"/>
<path d="M145.781 149C152.953 145.762 153.044 149 165.495 139.76V71H145.781V149ZM28.0137 141.642C31.1265 145.566 38.3897 149 47.2092 149V74.0769H27.4949L28.0137 141.642Z" fill="#E1E5E7"/>
<path d="M138.632 58.9319C136.769 50.005 120.621 43 100.744 43C85.3617 43 72.1923 46.7931 66.1205 52.8231C64.2941 52.555 62.39 52.3713 60.3732 52.3713C49.8093 52.3713 41.2466 56.725 41.2466 61.585C41.2466 62.5525 41.4837 64.0506 42.1093 64.9187C33.8945 67.1237 28.4949 70.585 28.4949 75.2781C28.4949 82.3019 40.8639 87.9944 56.122 87.9944V88H132.622V87.9981C150.23 87.9981 164.495 81.43 164.495 73.3244C164.493 66.1694 153.358 60.2275 138.632 58.9319Z" fill="#F2F1EF"/>
<path d="M103.494 97C103.1 97.0001 102.71 97.074 102.346 97.2174C101.982 97.3607 101.651 97.5708 101.373 97.8357C101.094 98.1005 100.874 98.4148 100.723 98.7607C100.572 99.1067 100.495 99.4774 100.495 99.8518C100.495 100.226 100.573 100.597 100.724 100.943C100.875 101.288 101.096 101.603 101.374 101.867C101.653 102.132 101.984 102.342 102.348 102.485C102.712 102.628 103.102 102.702 103.496 102.702C104.292 102.701 105.055 102.401 105.617 101.866C106.179 101.331 106.495 100.606 106.495 99.8499C106.495 99.0938 106.178 98.3688 105.616 97.8343C105.053 97.2999 104.29 96.9997 103.494 97ZM103.494 129.298C103.1 129.299 102.71 129.372 102.346 129.516C101.982 129.659 101.651 129.869 101.373 130.134C101.094 130.399 100.874 130.713 100.723 131.059C100.572 131.405 100.495 131.776 100.495 132.15C100.495 132.525 100.573 132.895 100.724 133.241C100.875 133.587 101.096 133.901 101.374 134.166C101.653 134.43 101.984 134.64 102.348 134.783C102.712 134.927 103.102 135 103.496 135C104.292 135 105.055 134.699 105.617 134.164C106.179 133.63 106.495 132.904 106.495 132.148C106.495 131.392 106.178 130.667 105.616 130.133C105.053 129.598 104.29 129.298 103.494 129.298Z" fill="#9ECEC7"/>
<path d="M115.328 97.0019C114.576 97.0022 113.856 97.3027 113.324 97.8375C112.793 98.3723 112.495 99.0975 112.495 99.8535C112.495 100.61 112.794 101.335 113.326 101.869C113.857 102.403 114.578 102.703 115.33 102.703C116.081 102.703 116.802 102.402 117.333 101.868C117.865 101.333 118.163 100.608 118.163 99.8516C118.163 99.0956 117.864 98.3706 117.332 97.8362C116.801 97.3017 116.08 97.0017 115.328 97.0019ZM126.66 102.701C127.032 102.701 127.401 102.627 127.744 102.484C128.088 102.341 128.401 102.131 128.664 101.866C128.927 101.601 129.135 101.287 129.278 100.941C129.42 100.595 129.493 100.224 129.493 99.8497C129.493 99.4754 129.42 99.1047 129.277 98.7589C129.134 98.4131 128.926 98.0989 128.662 97.8343C128.399 97.5696 128.087 97.3598 127.743 97.2166C127.399 97.0735 127.03 96.9999 126.658 97C125.907 97.0003 125.186 97.3008 124.655 97.8356C124.123 98.3704 123.825 99.0956 123.825 99.8516C123.825 100.608 124.124 101.333 124.656 101.867C125.188 102.401 125.908 102.702 126.66 102.701ZM115.328 129.299C114.956 129.299 114.587 129.373 114.244 129.516C113.9 129.659 113.587 129.869 113.324 130.134C113.061 130.399 112.853 130.713 112.71 131.059C112.568 131.405 112.495 131.776 112.495 132.15C112.495 132.525 112.569 132.895 112.711 133.241C112.854 133.587 113.062 133.901 113.326 134.166C113.589 134.43 113.901 134.64 114.245 134.783C114.589 134.927 114.958 135 115.33 135C116.081 135 116.802 134.699 117.333 134.164C117.865 133.63 118.163 132.904 118.163 132.148C118.163 131.392 117.864 130.667 117.332 130.133C116.801 129.599 116.08 129.298 115.328 129.299ZM126.66 129.299C126.288 129.299 125.919 129.373 125.576 129.516C125.232 129.659 124.919 129.869 124.656 130.134C124.393 130.399 124.185 130.713 124.042 131.059C123.9 131.405 123.827 131.776 123.827 132.15C123.827 132.525 123.901 132.895 124.043 133.241C124.186 133.587 124.394 133.901 124.658 134.166C124.921 134.43 125.233 134.64 125.577 134.783C125.921 134.927 126.29 135 126.662 135C127.414 135 128.134 134.699 128.666 134.164C129.197 133.63 129.495 132.904 129.495 132.148C129.495 131.392 129.196 130.667 128.664 130.133C128.133 129.599 127.412 129.298 126.66 129.299Z" fill="#3DB39E"/>
<path d="M86.5538 96H57.4361C56.9213 96 56.4275 96.1976 56.0635 96.5492C55.6995 96.9008 55.4949 97.3777 55.4949 97.875V99.75C55.4949 100.247 55.6995 100.724 56.0635 101.076C56.4275 101.427 56.9213 101.625 57.4361 101.625H86.5538C86.8087 101.625 87.0611 101.577 87.2966 101.482C87.5321 101.388 87.7461 101.25 87.9264 101.076C88.1066 100.902 88.2496 100.695 88.3472 100.468C88.4447 100.24 88.4949 99.9962 88.4949 99.75V97.875C88.4949 97.6288 88.4447 97.385 88.3472 97.1575C88.2496 96.93 88.1066 96.7233 87.9264 96.5492C87.7461 96.3751 87.5321 96.237 87.2966 96.1427C87.0611 96.0485 86.8087 96 86.5538 96ZM86.5538 103.5H57.4361C56.9213 103.5 56.4275 103.698 56.0635 104.049C55.6995 104.401 55.4949 104.878 55.4949 105.375V107.25C55.4949 107.747 55.6995 108.224 56.0635 108.576C56.4275 108.927 56.9213 109.125 57.4361 109.125H86.5538C86.8087 109.125 87.0611 109.077 87.2966 108.982C87.5321 108.888 87.7461 108.75 87.9264 108.576C88.1066 108.402 88.2496 108.195 88.3472 107.968C88.4447 107.74 88.4949 107.496 88.4949 107.25V105.375C88.4949 105.129 88.4447 104.885 88.3472 104.657C88.2496 104.43 88.1066 104.223 87.9264 104.049C87.7461 103.875 87.5321 103.737 87.2966 103.643C87.0611 103.549 86.8087 103.5 86.5538 103.5ZM86.5538 127.875H57.4361C57.1812 127.875 56.9288 127.924 56.6933 128.018C56.4578 128.112 56.2438 128.25 56.0635 128.424C55.8833 128.598 55.7403 128.805 55.6427 129.032C55.5452 129.26 55.4949 129.504 55.4949 129.75V131.625C55.4949 132.122 55.6995 132.599 56.0635 132.951C56.4275 133.302 56.9213 133.5 57.4361 133.5H86.5538C86.8087 133.5 87.0611 133.452 87.2966 133.357C87.5321 133.263 87.7461 133.125 87.9264 132.951C88.1066 132.777 88.2496 132.57 88.3472 132.343C88.4447 132.115 88.4949 131.871 88.4949 131.625V129.75C88.4949 129.504 88.4447 129.26 88.3472 129.032C88.2496 128.805 88.1066 128.598 87.9264 128.424C87.7461 128.25 87.5321 128.112 87.2966 128.018C87.0611 127.924 86.8087 127.875 86.5538 127.875ZM86.5538 135.375H57.4361C56.9213 135.375 56.4275 135.573 56.0635 135.924C55.6995 136.276 55.4949 136.753 55.4949 137.25V139.125C55.4949 139.622 55.6995 140.099 56.0635 140.451C56.4275 140.802 56.9213 141 57.4361 141H86.5538C86.8087 141 87.0611 140.952 87.2966 140.857C87.5321 140.763 87.7461 140.625 87.9264 140.451C88.1066 140.277 88.2496 140.07 88.3472 139.843C88.4447 139.615 88.4949 139.371 88.4949 139.125V137.25C88.4949 137.004 88.4447 136.76 88.3472 136.532C88.2496 136.305 88.1066 136.098 87.9264 135.924C87.7461 135.75 87.5321 135.612 87.2966 135.518C87.0611 135.424 86.8087 135.375 86.5538 135.375Z" fill="#C4C8CA"/>
<path d="M96.9949 56C86.2251 56 77.4949 59.7544 77.4949 65.5C77.4949 71.2456 86.2251 75 96.9949 75C107.765 75 116.495 70.7478 116.495 65.5C116.495 60.2541 107.765 56 96.9949 56ZM106.581 63.3055L95.4349 69.2506C94.9708 69.4976 94.3449 69.585 93.7404 69.547C93.0559 69.642 92.3013 69.5641 91.767 69.2772L87.3775 66.9364C86.5702 66.507 86.5702 65.8116 87.3775 65.3822C88.1829 64.9528 89.4894 64.9528 90.2947 65.3822L93.5844 67.1378L103.674 61.757C104.477 61.3276 105.778 61.3276 106.581 61.757C107.385 62.1826 107.385 62.878 106.581 63.3055Z" fill="#CECDCB"/>
<path d="M164.495 131.145L164.491 137.045V133.365C164.491 141.538 150.227 148.162 132.62 148.162V148.164H56.1243V148.162C40.8671 148.162 28.4988 142.421 28.4988 135.338V138.306V131.145H28.4949V142.228C33.2938 147.509 43.5968 150.998 56.1243 150.998L132.62 151C147.068 150.998 159.175 146.744 164.495 140.522V131.145ZM164.495 99L164.491 105.391V101.22C164.491 109.392 149.587 116.016 131.192 116.016V116.018H54.8867V116.016C40.3133 116.016 28.4969 110.275 28.4969 103.192V106.566V99H28.4949V110.09C33.1908 115.319 43.1188 118.853 54.8867 118.853L131.192 118.855C146.535 118.853 159.067 114.662 164.495 108.385V99V99Z" fill="#AEB2B4"/>
<path d="M164.491 105.334V101.2C164.491 107.116 156.521 112.2 145.066 114.518V117.432C153.902 115.76 160.825 112.505 164.495 108.3V99H164.493L164.491 105.334ZM47.9235 118.243V115.402C36.7346 113.929 28.4988 109.01 28.4988 103.154V106.353V99H28.4949V109.99C32.2291 114.109 39.2778 117.16 47.9235 118.243ZM164.491 136.283V133.056C164.491 139.124 156.485 144.33 145.066 146.56V149.412C153.823 147.77 160.8 144.431 164.495 140.149V130.856H164.493L164.491 136.283ZM47.9235 150V147.15C36.6705 145.544 28.4988 140.715 28.4988 135.009V137.82V130.854H28.4949V141.837C32.1961 145.877 39.1787 148.848 47.9235 150Z" fill="#BFC2C4"/>
<path d="M165.495 99.1539H28.4949C34.3457 113.93 122.365 113.93 165.495 99.1539ZM165.495 67.3333H28.4949L28.4989 103.304C28.4989 110.315 40.958 115.998 56.3275 115.998L133.386 116V115.998C151.122 115.998 165.491 109.441 165.491 101.351C165.491 118.901 165.495 67.3333 165.495 67.3333ZM165.495 43H28.4949C28.4949 43 28.4989 87.0789 28.4989 71.4831C28.4989 78.4948 40.4022 84.1776 55.0827 84.1776V84.1795H131.95V84.1776C150.48 84.1776 165.493 77.6207 165.493 69.5308L165.495 43Z" fill="#DADFE1"/>
<path d="M145.924 118C153.044 114.721 153.134 118 165.495 108.642V39H145.924V118ZM29.01 110.547C32.1002 114.522 39.3107 118 48.0664 118V42.1164H28.4949L29.01 110.547Z" fill="#E1E5E7"/>
<path d="M139.442 27.2859C137.565 18.1607 121.298 11 101.275 11C85.7799 11 72.5136 14.8774 66.3972 21.0414C64.5574 20.7673 62.6393 20.5795 60.6076 20.5795C49.966 20.5795 41.3404 25.03 41.3404 29.998C41.3404 30.987 41.5792 32.5184 42.2094 33.4058C33.9342 35.6598 28.4949 39.198 28.4949 43.9954C28.4949 51.1752 40.9548 56.9942 56.3252 56.9942V57H133.388V56.9981C151.125 56.9981 165.495 50.284 165.495 41.9982C165.493 34.6842 154.276 28.6103 139.442 27.2859Z" fill="#F2F1EF"/>
<path d="M103.494 66C103.1 66.0001 102.71 66.072 102.346 66.2116C101.982 66.3512 101.651 66.5558 101.373 66.8137C101.094 67.0715 100.874 67.3776 100.723 67.7144C100.572 68.0512 100.495 68.4122 100.495 68.7767C100.495 69.1412 100.573 69.5022 100.724 69.8389C100.875 70.1756 101.096 70.4815 101.374 70.7392C101.653 70.9969 101.984 71.2012 102.348 71.3406C102.712 71.48 103.102 71.5517 103.496 71.5516C104.292 71.5513 105.055 71.2586 105.617 70.7379C106.179 70.2172 106.495 69.511 106.495 68.7749C106.495 68.0387 106.178 67.3327 105.616 66.8124C105.053 66.292 104.29 65.9998 103.494 66ZM103.494 97.4484C103.1 97.4485 102.71 97.5205 102.346 97.6601C101.982 97.7997 101.651 98.0042 101.373 98.2621C101.094 98.5199 100.874 98.826 100.723 99.1628C100.572 99.4996 100.495 99.8606 100.495 100.225C100.495 100.59 100.573 100.951 100.724 101.287C100.875 101.624 101.096 101.93 101.374 102.188C101.653 102.445 101.984 102.65 102.348 102.789C102.712 102.928 103.102 103 103.496 103C104.292 103 105.055 102.707 105.617 102.186C106.179 101.666 106.495 100.959 106.495 100.223C106.495 99.4871 106.178 98.7812 105.616 98.2608C105.053 97.7404 104.29 97.4482 103.494 97.4484Z" fill="#9ECEC7"/>
<path d="M115.328 66.0019C114.576 66.0021 113.856 66.2948 113.324 66.8155C112.793 67.3362 112.495 68.0423 112.495 68.7784C112.495 69.5146 112.794 70.2205 113.326 70.7408C113.857 71.2612 114.578 71.5534 115.33 71.5531C116.081 71.5529 116.802 71.2602 117.333 70.7395C117.865 70.2188 118.163 69.5127 118.163 68.7766C118.163 68.0404 117.864 67.3345 117.332 66.8142C116.801 66.2938 116.08 66.0016 115.328 66.0019ZM126.66 71.5513C127.032 71.5512 127.401 71.4793 127.744 71.3397C128.088 71.2001 128.401 70.9955 128.664 70.7377C128.927 70.4798 129.135 70.1738 129.278 69.837C129.42 69.5002 129.493 69.1392 129.493 68.7747C129.493 68.4102 129.42 68.0493 129.277 67.7126C129.134 67.3759 128.926 67.07 128.662 66.8123C128.399 66.5547 128.087 66.3503 127.743 66.2109C127.399 66.0715 127.03 65.9999 126.658 66C125.907 66.0002 125.186 66.2929 124.655 66.8136C124.123 67.3343 123.825 68.0404 123.825 68.7766C123.825 69.5127 124.124 70.2186 124.656 70.739C125.188 71.2593 125.908 71.5515 126.66 71.5513ZM115.328 97.4487C114.956 97.4488 114.587 97.5207 114.244 97.6603C113.9 97.7999 113.587 98.0045 113.324 98.2623C113.061 98.5202 112.853 98.8262 112.71 99.163C112.568 99.4998 112.495 99.8608 112.495 100.225C112.495 100.59 112.569 100.951 112.711 101.287C112.854 101.624 113.062 101.93 113.326 102.188C113.589 102.445 113.901 102.65 114.245 102.789C114.589 102.928 114.958 103 115.33 103C116.081 103 116.802 102.707 117.333 102.186C117.865 101.666 118.163 100.96 118.163 100.223C118.163 99.4873 117.864 98.7814 117.332 98.261C116.801 97.7407 116.08 97.4485 115.328 97.4487ZM126.66 97.4487C126.288 97.4488 125.919 97.5207 125.576 97.6603C125.232 97.7999 124.919 98.0045 124.656 98.2623C124.393 98.5202 124.185 98.8262 124.042 99.163C123.9 99.4998 123.827 99.8608 123.827 100.225C123.827 100.59 123.901 100.951 124.043 101.287C124.186 101.624 124.394 101.93 124.658 102.188C124.921 102.445 125.233 102.65 125.577 102.789C125.921 102.928 126.29 103 126.662 103C127.414 103 128.134 102.707 128.666 102.186C129.197 101.666 129.495 100.96 129.495 100.223C129.495 99.4873 129.196 98.7814 128.664 98.261C128.133 97.7407 127.412 97.4485 126.66 97.4487Z" fill="#3DB39E"/>
<path d="M86.5538 64H57.4361C56.9213 64 56.4275 64.1976 56.0635 64.5492C55.6995 64.9008 55.4949 65.3777 55.4949 65.875V67.75C55.4949 68.2473 55.6995 68.7242 56.0635 69.0758C56.4275 69.4275 56.9213 69.625 57.4361 69.625H86.5538C86.8087 69.625 87.0611 69.5765 87.2966 69.4823C87.5321 69.3881 87.7461 69.2499 87.9264 69.0758C88.1066 68.9017 88.2496 68.695 88.3472 68.4675C88.4447 68.24 88.4949 67.9962 88.4949 67.75V65.875C88.4949 65.6288 88.4447 65.385 88.3472 65.1575C88.2496 64.93 88.1066 64.7233 87.9264 64.5492C87.7461 64.3751 87.5321 64.237 87.2966 64.1427C87.0611 64.0485 86.8087 64 86.5538 64ZM86.5538 71.5H57.4361C56.9213 71.5 56.4275 71.6975 56.0635 72.0492C55.6995 72.4008 55.4949 72.8777 55.4949 73.375V75.25C55.4949 75.7473 55.6995 76.2242 56.0635 76.5758C56.4275 76.9275 56.9213 77.125 57.4361 77.125H86.5538C86.8087 77.125 87.0611 77.0765 87.2966 76.9823C87.5321 76.8881 87.7461 76.7499 87.9264 76.5758C88.1066 76.4017 88.2496 76.195 88.3472 75.9675C88.4447 75.7401 88.4949 75.4962 88.4949 75.25V73.375C88.4949 73.1288 88.4447 72.885 88.3472 72.6575C88.2496 72.43 88.1066 72.2233 87.9264 72.0492C87.7461 71.8751 87.5321 71.737 87.2966 71.6427C87.0611 71.5485 86.8087 71.5 86.5538 71.5ZM86.5538 95.875H57.4361C57.1812 95.875 56.9288 95.9235 56.6933 96.0177C56.4578 96.112 56.2438 96.2501 56.0635 96.4242C55.8833 96.5983 55.7403 96.805 55.6427 97.0325C55.5452 97.26 55.4949 97.5038 55.4949 97.75V99.625C55.4949 100.122 55.6995 100.599 56.0635 100.951C56.4275 101.302 56.9213 101.5 57.4361 101.5H86.5538C86.8087 101.5 87.0611 101.452 87.2966 101.357C87.5321 101.263 87.7461 101.125 87.9264 100.951C88.1066 100.777 88.2496 100.57 88.3472 100.343C88.4447 100.115 88.4949 99.8712 88.4949 99.625V97.75C88.4949 97.5038 88.4447 97.26 88.3472 97.0325C88.2496 96.805 88.1066 96.5983 87.9264 96.4242C87.7461 96.2501 87.5321 96.112 87.2966 96.0177C87.0611 95.9235 86.8087 95.875 86.5538 95.875ZM86.5538 103.375H57.4361C56.9213 103.375 56.4275 103.573 56.0635 103.924C55.6995 104.276 55.4949 104.753 55.4949 105.25V107.125C55.4949 107.622 55.6995 108.099 56.0635 108.451C56.4275 108.802 56.9213 109 57.4361 109H86.5538C86.8087 109 87.0611 108.952 87.2966 108.857C87.5321 108.763 87.7461 108.625 87.9264 108.451C88.1066 108.277 88.2496 108.07 88.3472 107.843C88.4447 107.615 88.4949 107.371 88.4949 107.125V105.25C88.4949 105.004 88.4447 104.76 88.3472 104.532C88.2496 104.305 88.1066 104.098 87.9264 103.924C87.7461 103.75 87.5321 103.612 87.2966 103.518C87.0611 103.424 86.8087 103.375 86.5538 103.375Z" fill="#C4C8CA"/>
<path d="M165.495 100.145L165.491 106.045V102.365C165.491 110.538 151.122 117.162 133.386 117.162V117.164H56.3275V117.162C40.958 117.162 28.4989 111.421 28.4989 104.338V107.306V100.145H28.4949V111.228C33.3291 116.509 43.7078 119.998 56.3275 119.998L133.386 120C147.939 119.998 160.136 115.744 165.495 109.522V100.145ZM165.495 68L165.491 74.3913V70.2199C165.491 78.3924 150.478 85.0163 131.948 85.0163V85.0182H55.0808V85.0163C40.4002 85.0163 28.4969 79.2755 28.4969 72.1921V75.5655V68H28.4949V79.0902C33.2254 84.3186 43.2264 87.8527 55.0808 87.8527L131.948 87.8545C147.403 87.8526 160.027 83.6624 165.495 77.3846V68V68Z" fill="#AEB2B4"/>
<path d="M165.491 74.3338V70.2C165.491 76.1158 157.463 81.1997 145.924 83.5177V86.4317C154.825 84.7601 161.798 81.5052 165.495 77.3002V68H165.493L165.491 74.3338ZM48.0664 87.2431V84.4022C36.7952 82.9293 28.4989 78.0104 28.4989 72.1544V75.3532V68H28.4949V78.9904C32.2566 83.1092 39.3571 86.1599 48.0664 87.2431ZM165.491 105.283V102.056C165.491 108.124 157.426 113.33 145.924 115.56V118.412C154.744 116.77 161.772 113.431 165.495 109.149V99.8563H165.493L165.491 105.283ZM48.0664 119V116.15C36.7306 114.544 28.4989 109.715 28.4989 104.009V106.82V99.8544H28.4949V110.837C32.2233 114.877 39.2573 117.848 48.0664 119Z" fill="#BFC2C4"/>
<g clip-path="url(#clip1_127_251)">
<path d="M99.1563 50.9019C98.9532 50.9019 98.7636 50.8519 98.5874 50.7643L96.7862 49.7757C96.5152 49.638 96.6507 49.5879 96.732 49.5629C97.0976 49.4503 97.1654 49.4252 97.5446 49.2251C97.5853 49.2 97.6395 49.2125 97.6801 49.2375L99.0616 50.0009C99.1157 50.0259 99.1835 50.0259 99.224 50.0009L104.628 47.1101C104.682 47.085 104.709 47.0349 104.709 46.9724V41.2033C104.709 41.1406 104.682 41.0907 104.628 41.0655L99.224 38.1872C99.1699 38.1621 99.1021 38.1621 99.0616 38.1872L93.6575 41.0655C93.6033 41.0906 93.5762 41.1531 93.5762 41.2032V46.9723C93.5762 47.0225 93.6033 47.0849 93.6575 47.1101L95.1338 47.8984C95.9329 48.2739 96.434 47.8359 96.434 47.3979V41.7037C96.434 41.6287 96.5017 41.5536 96.5966 41.5536H97.2873C97.3686 41.5536 97.4498 41.6161 97.4498 41.7037V47.3979C97.4498 48.3865 96.8674 48.9622 95.8516 48.9622C95.5401 48.9622 95.2964 48.9622 94.6055 48.6493L93.1835 47.8984C92.8313 47.7108 92.6146 47.3603 92.6146 46.9849V41.2157C92.6146 40.8403 92.8313 40.4898 93.1835 40.3022L98.5874 37.4113C98.9261 37.2361 99.3867 37.2361 99.7252 37.4113L105.129 40.3022C105.481 40.4898 105.698 40.8403 105.698 41.2157V46.9849C105.698 47.3603 105.481 47.7108 105.129 47.8984L99.7252 50.7893C99.5491 50.8645 99.346 50.9019 99.1564 50.9019H99.1563ZM100.822 46.9349C98.4521 46.9349 97.9645 45.9337 97.9645 45.0827C97.9645 45.0076 98.0322 44.9325 98.127 44.9325H98.8313C98.9125 44.9325 98.9803 44.9826 98.9803 45.0577C99.0887 45.7209 99.4001 46.0463 100.836 46.0463C101.973 46.0463 102.461 45.8085 102.461 45.2454C102.461 44.92 102.326 44.6823 100.551 44.5196C99.0751 44.3818 98.1541 44.0816 98.1541 42.9928C98.1541 41.9791 99.0752 41.3784 100.619 41.3784C102.353 41.3784 103.206 41.9291 103.314 43.1303C103.314 43.168 103.301 43.2055 103.274 43.2431C103.247 43.2681 103.206 43.2931 103.165 43.2931H102.461C102.393 43.2931 102.326 43.2431 102.312 43.1805C102.15 42.4922 101.73 42.2669 100.619 42.2669C99.3731 42.2669 99.224 42.6674 99.224 42.9677C99.224 43.3307 99.4001 43.4433 101.08 43.6435C102.745 43.8438 103.531 44.1316 103.531 45.2078C103.518 46.3091 102.542 46.9349 100.822 46.9349Z" fill="#539E43"/>
<path d="M82.3881 28.3383C82.3881 28.113 82.2526 27.9002 82.0359 27.7875L76.2933 24.734C76.1984 24.6839 76.0901 24.6589 75.9818 24.6463H75.9275C75.8193 24.6463 75.7109 24.6839 75.6161 24.734L69.8734 27.7875C69.6566 27.9002 69.5213 28.1129 69.5213 28.3383L69.5348 36.5477C69.5348 36.6604 69.6026 36.773 69.7109 36.8231C69.8193 36.8857 69.9546 36.8857 70.0495 36.8231L73.4626 35.021C73.6793 34.9084 73.8148 34.6956 73.8148 34.4704V30.6284C73.8148 30.4032 73.9501 30.1904 74.1669 30.0778L75.6161 29.3018C75.7245 29.2393 75.8463 29.2141 75.9682 29.2141C76.0901 29.2141 76.212 29.2393 76.3069 29.3018L77.756 30.0778C77.9728 30.1904 78.1082 30.4031 78.1082 30.6284V34.4704C78.1082 34.6956 78.2436 34.9084 78.4603 35.021L81.8734 36.8231C81.9818 36.8857 82.1172 36.8857 82.2255 36.8231C82.3339 36.773 82.4017 36.6604 82.4017 36.5477L82.3881 28.3383Z" fill="#333333"/>
<path d="M109.992 17.0376C109.883 16.9875 109.748 16.9875 109.653 17.0376C109.545 17.1002 109.477 17.2002 109.477 17.3128V25.4474C109.477 25.5224 109.436 25.5975 109.355 25.6476C109.274 25.6851 109.192 25.6851 109.111 25.6476L107.676 24.8842C107.57 24.8289 107.451 24.7997 107.33 24.7997C107.209 24.7997 107.09 24.8289 106.985 24.8842L101.242 27.9503C101.025 28.0629 100.89 28.2757 100.89 28.5009V34.6205C100.89 34.8457 101.025 35.0586 101.242 35.1712L106.985 38.2373C107.09 38.2926 107.209 38.3217 107.33 38.3217C107.451 38.3217 107.57 38.2926 107.676 38.2373L113.418 35.1712C113.635 35.0586 113.77 34.8458 113.77 34.6205V19.3653C113.77 19.1275 113.635 18.9149 113.418 18.8021L109.992 17.0376H109.992ZM109.463 32.6057C109.463 32.6683 109.436 32.7183 109.382 32.7433L107.418 33.7945C107.391 33.8069 107.361 33.8133 107.33 33.8133C107.3 33.8133 107.27 33.8069 107.242 33.7945L105.278 32.7433C105.224 32.7183 105.197 32.6557 105.197 32.6057V30.5032C105.197 30.4406 105.224 30.3906 105.278 30.3656L107.242 29.3143C107.27 29.3019 107.3 29.2955 107.33 29.2955C107.361 29.2955 107.391 29.3019 107.418 29.3143L109.382 30.3656C109.436 30.3905 109.463 30.4532 109.463 30.5032V32.6057Z" fill="#333333"/>
<path d="M129.102 30.4532C129.319 30.3406 129.441 30.1278 129.441 29.9025V28.4133C129.441 28.1881 129.305 27.9753 129.102 27.8627L123.4 24.8092C123.295 24.7538 123.176 24.7247 123.055 24.7247C122.934 24.7247 122.815 24.7538 122.709 24.8092L116.967 27.8751C116.75 27.9878 116.615 28.2005 116.615 28.4259V34.5454C116.615 34.7707 116.75 34.9834 116.967 35.096L122.669 38.0995C122.886 38.2121 123.143 38.2121 123.346 38.0995L126.8 36.3226C126.908 36.2725 126.976 36.1599 126.976 36.0473C126.976 35.9347 126.908 35.8221 126.8 35.7719L121.03 32.7059C120.922 32.6434 120.854 32.5432 120.854 32.4306V30.5159C120.854 30.4033 120.922 30.2907 121.03 30.2405L122.831 29.2894C122.884 29.2587 122.945 29.2425 123.007 29.2425C123.07 29.2425 123.131 29.2587 123.183 29.2894L124.985 30.2405C125.093 30.3031 125.161 30.4032 125.161 30.5159V32.0176C125.161 32.1302 125.229 32.2428 125.337 32.2929C125.445 32.3555 125.581 32.3555 125.689 32.2929L129.102 30.4532V30.4532Z" fill="#333333"/>
<path d="M122.967 30.1654C122.987 30.1532 123.01 30.1467 123.034 30.1467C123.059 30.1467 123.082 30.1532 123.102 30.1654L124.199 30.7536C124.24 30.7785 124.267 30.8161 124.267 30.8662V32.0426C124.267 32.0926 124.24 32.1302 124.199 32.1552L123.102 32.7433C123.082 32.7556 123.059 32.7621 123.034 32.7621C123.01 32.7621 122.987 32.7556 122.967 32.7433L121.87 32.1552C121.829 32.1302 121.802 32.0926 121.802 32.0426V30.8662C121.802 30.8161 121.829 30.7785 121.87 30.7536L122.967 30.1654V30.1654Z" fill="#539E43"/>
<mask id="mask0_127_251" style="mask-type:alpha" maskUnits="userSpaceOnUse" x="85" y="24" width="14" height="15">
<path d="M91.9916 24.8342C91.8863 24.7789 91.7673 24.7498 91.6462 24.7498C91.5251 24.7498 91.4061 24.7789 91.3008 24.8342L85.5989 27.8751C85.3821 27.9877 85.2602 28.2004 85.2602 28.4257V34.5203C85.2602 34.7455 85.3957 34.9583 85.5989 35.0709L91.3008 38.112C91.4061 38.1673 91.5251 38.1964 91.6462 38.1964C91.7673 38.1964 91.8863 38.1673 91.9916 38.112L97.6937 35.0709C97.9103 34.9583 98.0323 34.7455 98.0323 34.5203V28.4258C98.0323 28.2005 97.8967 27.9878 97.6937 27.8752L91.9916 24.8342Z" fill="white"/>
</mask>
<g mask="url(#mask0_127_251)">
<path d="M91.9916 24.8342C91.8863 24.7789 91.7673 24.7498 91.6462 24.7498C91.5251 24.7498 91.4061 24.7789 91.3008 24.8342L85.5989 27.8751C85.3821 27.9877 85.2602 28.2004 85.2602 28.4257V34.5203C85.2602 34.7455 85.3957 34.9583 85.5989 35.0709L91.3008 38.112C91.4061 38.1673 91.5251 38.1964 91.6462 38.1964C91.7673 38.1964 91.8863 38.1673 91.9916 38.112L97.6937 35.0709C97.9103 34.9583 98.0323 34.7455 98.0323 34.5203V28.4258C98.0323 28.2005 97.8967 27.9878 97.6937 27.8752L91.9916 24.8342Z" fill="url(#paint0_linear_127_251)"/>
<path d="M97.7077 27.8753L91.9787 24.8343C91.9224 24.808 91.8634 24.7871 91.8025 24.7717L85.3827 34.9336C85.4358 34.9936 85.5001 35.0444 85.5724 35.0838L91.3014 38.1248C91.464 38.2124 91.6536 38.2375 91.8296 38.1873L97.8568 28.0005C97.8161 27.9505 97.7619 27.9128 97.7077 27.8754V27.8753Z" fill="url(#paint1_linear_127_251)"/>
<path fill-rule="evenodd" clip-rule="evenodd" d="M97.7207 35.071C97.8833 34.9834 98.0051 34.8332 98.0594 34.6706L91.7748 24.7591C91.6122 24.7341 91.4361 24.7465 91.2873 24.8341L85.5987 27.8627L91.7341 38.1997C91.8233 38.1862 91.91 38.1609 91.9914 38.1246L97.7206 35.0711L97.7207 35.071Z" fill="url(#paint2_linear_127_251)"/>
<path fill-rule="evenodd" clip-rule="evenodd" d="M97.7207 35.0711L92.0051 38.1121C91.9245 38.1501 91.8375 38.1755 91.7478 38.1872L91.8562 38.3749L98.1947 34.9836V34.9084L98.0322 34.6581C98.0051 34.8333 97.8833 34.9835 97.7207 35.0711V35.0711Z" fill="url(#paint3_linear_127_251)"/>
<path fill-rule="evenodd" clip-rule="evenodd" d="M97.7207 35.0711L92.0051 38.1121C91.9245 38.1501 91.8375 38.1755 91.7478 38.1872L91.8562 38.3749L98.1947 34.9836V34.9084L98.0322 34.6581C98.0051 34.8333 97.8833 34.9835 97.7207 35.0711V35.0711Z" fill="url(#paint4_linear_127_251)"/>
</g>
</g>
<path fill-rule="evenodd" clip-rule="evenodd" d="M61.8444 167.512H77.6814V155.069H61.8444V167.512Z" fill="#253368"/>
<path fill-rule="evenodd" clip-rule="evenodd" d="M87.2777 171.774H52.7754C51.3696 171.774 50.2301 170.634 50.2301 169.229C50.2301 167.823 51.3696 166.683 52.7754 166.683H87.2777C88.6835 166.683 89.8228 167.823 89.8228 169.229C89.8228 170.634 88.6835 171.774 87.2777 171.774Z" fill="#253368"/>
<path fill-rule="evenodd" clip-rule="evenodd" d="M122.973 155.877H15.7957C13.1646 155.877 11.0318 153.744 11.0318 151.113V85.7916C11.0318 83.1605 13.1646 81.0277 15.7957 81.0277H122.973C125.603 81.0277 127.736 83.1605 127.736 85.7916V151.113C127.736 153.744 125.603 155.877 122.973 155.877Z" fill="#253368"/>
<path fill-rule="evenodd" clip-rule="evenodd" d="M120.777 152.008H17.4504C16.3109 152.008 15.3871 151.066 15.3871 149.904V88.3033C15.3871 87.1415 16.3109 86.1996 17.4504 86.1996H120.777C121.917 86.1996 122.84 87.1415 122.84 88.3033V149.904C122.84 151.066 121.917 152.008 120.777 152.008Z" fill="#70778F"/>
<g clip-path="url(#clip2_127_251)">
<path d="M69.3214 102.207C69.3214 102.207 78.1066 101.814 82.7643 110.61H68.5738C68.5738 110.61 65.8958 110.524 63.6082 113.76C62.951 115.119 62.2447 116.518 63.0373 119.275C61.8954 117.348 56.975 108.814 56.975 108.814C56.975 108.814 60.4456 102.555 69.3212 102.207H69.3214Z" fill="#EF3F36"/>
<path d="M82.3084 124.537C82.3084 124.537 78.2545 132.314 68.2822 131.93C69.5144 129.806 75.3795 119.689 75.3795 119.689C75.3795 119.689 76.7965 117.422 75.1248 113.83C74.2745 112.582 73.4079 111.277 70.6151 110.581C72.8618 110.561 82.7397 110.581 82.7397 110.581C82.7397 110.581 86.4402 116.706 82.3084 124.537Z" fill="#FCD900"/>
<path d="M56.3959 124.598C56.3959 124.598 51.6603 117.213 56.9832 108.802C58.2113 110.925 64.0764 121.043 64.0764 121.043C64.0764 121.043 65.3414 123.399 69.2966 123.751C70.8041 123.641 72.373 123.547 74.3774 121.489C73.2724 123.436 68.3149 131.946 68.3149 131.946C68.3149 131.946 61.1355 132.077 56.3958 124.598H56.3959Z" fill="#61BC5B"/>
<path d="M68.2781 132.003L70.2742 123.706C70.2742 123.706 72.4675 123.534 74.3075 121.526C73.1656 123.526 68.2781 132.003 68.2781 132.003V132.003Z" fill="#5AB055"/>
<path d="M62.6348 117.197C62.6348 113.54 65.6126 110.573 69.2844 110.573C72.9562 110.573 75.934 113.54 75.934 117.197C75.934 120.855 72.9562 123.821 69.2844 123.821C65.6126 123.817 62.6348 120.855 62.6348 117.197V117.197Z" fill="white"/>
<path d="M63.7478 117.197C63.7478 114.153 66.2245 111.682 69.2844 111.682C72.3401 111.682 74.8209 114.149 74.8209 117.197C74.8209 120.241 72.3443 122.712 69.2844 122.712C66.2286 122.712 63.7478 120.241 63.7478 117.197V117.197Z" fill="url(#paint5_linear_127_251)"/>
<path d="M82.7355 110.586L74.5169 112.987C74.5169 112.987 73.2766 111.175 70.611 110.586C72.9234 110.573 82.7355 110.586 82.7355 110.586V110.586Z" fill="#EACA05"/>
<path d="M62.8772 118.973C61.7229 116.98 56.975 108.814 56.975 108.814L63.0619 114.812C63.0619 114.812 62.4376 116.092 62.6718 117.925L62.8771 118.973H62.8772Z" fill="#DF3A32"/>
</g>
<path d="M136.974 89.3164H95.1044C93.7204 89.3164 92.5985 90.427 92.5985 91.797V172.314C92.5985 173.684 93.7204 174.795 95.1044 174.795H136.974C138.358 174.795 139.48 173.684 139.48 172.314V91.797C139.48 90.427 138.358 89.3164 136.974 89.3164Z" fill="#9BB9D9"/>
<path d="M95.9251 95.4146H136.049C136.618 95.4146 137.079 95.8709 137.079 96.4337V167.677C137.079 168.24 136.618 168.696 136.049 168.696H95.9251C95.3565 168.696 94.8956 168.24 94.8956 167.677V96.4337C94.8956 95.8709 95.3565 95.4146 95.9251 95.4146Z" fill="#CCD7EE"/>
<path d="M111.08 93.1407C111.426 93.1407 111.706 92.863 111.706 92.5205C111.706 92.178 111.426 91.9004 111.08 91.9004C110.734 91.9004 110.453 92.178 110.453 92.5205C110.453 92.863 110.734 93.1407 111.08 93.1407Z" fill="#3E3E3E"/>
<path d="M119.678 92.0038H113.654C113.385 92.0038 113.168 92.2189 113.168 92.4844V92.6601C113.168 92.9255 113.385 93.1407 113.654 93.1407H119.678C119.946 93.1407 120.164 92.9255 120.164 92.6601V92.4844C120.164 92.2189 119.946 92.0038 119.678 92.0038Z" fill="#3E3E3E"/>
<path d="M109.12 134.519C109.12 134.844 108.99 135.155 108.757 135.385C108.525 135.615 108.211 135.744 107.882 135.744C107.554 135.744 107.239 135.615 107.007 135.385C106.775 135.155 106.645 134.844 106.645 134.519V129.006C106.645 128.681 106.775 128.37 107.007 128.14C107.239 127.91 107.554 127.781 107.882 127.781C108.211 127.781 108.525 127.91 108.757 128.14C108.99 128.37 109.12 128.681 109.12 129.006V134.519Z" fill="#7CB342"/>
<path d="M126.445 134.519C126.445 134.844 126.315 135.155 126.082 135.385C125.85 135.615 125.536 135.744 125.207 135.744C124.879 135.744 124.564 135.615 124.332 135.385C124.1 135.155 123.97 134.844 123.97 134.519V129.006C123.97 128.681 124.1 128.37 124.332 128.14C124.564 127.91 124.879 127.781 125.207 127.781C125.536 127.781 125.85 127.91 126.082 128.14C126.315 128.37 126.445 128.681 126.445 129.006V134.519Z" fill="#7CB342"/>
<path d="M115.307 141.256C115.307 141.58 115.177 141.892 114.945 142.122C114.713 142.352 114.398 142.481 114.07 142.481C113.742 142.481 113.427 142.352 113.195 142.122C112.963 141.892 112.832 141.58 112.832 141.256V135.743C112.832 135.418 112.963 135.107 113.195 134.877C113.427 134.647 113.742 134.518 114.07 134.518C114.398 134.518 114.713 134.647 114.945 134.877C115.177 135.107 115.307 135.418 115.307 135.743V141.256Z" fill="#7CB342"/>
<path d="M120.257 141.256C120.257 141.58 120.127 141.892 119.895 142.122C119.663 142.352 119.348 142.481 119.02 142.481C118.692 142.481 118.377 142.352 118.145 142.122C117.913 141.892 117.782 141.58 117.782 141.256V135.743C117.782 135.418 117.913 135.107 118.145 134.877C118.377 134.647 118.692 134.518 119.02 134.518C119.348 134.518 119.663 134.647 119.895 134.877C120.127 135.107 120.257 135.418 120.257 135.743V141.256Z" fill="#7CB342"/>
<path d="M110.357 127.781V136.968C110.357 137.293 110.488 137.605 110.72 137.834C110.952 138.064 111.267 138.193 111.595 138.193H121.495C121.823 138.193 122.138 138.064 122.37 137.834C122.602 137.605 122.732 137.293 122.732 136.968V127.781H110.357Z" fill="#7CB342"/>
<path d="M116.545 121.656C112.832 121.656 110.571 123.888 110.357 126.556H122.732C122.518 123.888 120.257 121.656 116.545 121.656ZM114.07 125.084C113.906 125.084 113.748 125.02 113.632 124.905C113.516 124.79 113.451 124.634 113.451 124.472C113.451 124.309 113.516 124.154 113.632 124.039C113.748 123.924 113.906 123.859 114.07 123.859C114.234 123.859 114.391 123.924 114.507 124.039C114.624 124.154 114.689 124.309 114.689 124.472C114.689 124.634 114.624 124.79 114.507 124.905C114.391 125.02 114.234 125.084 114.07 125.084ZM119.02 125.084C118.856 125.084 118.698 125.02 118.582 124.905C118.466 124.79 118.401 124.634 118.401 124.472C118.401 124.309 118.466 124.154 118.582 124.039C118.698 123.924 118.856 123.859 119.02 123.859C119.184 123.859 119.341 123.924 119.457 124.039C119.574 124.154 119.639 124.309 119.639 124.472C119.639 124.634 119.574 124.79 119.457 124.905C119.341 125.02 119.184 125.084 119.02 125.084Z" fill="#7CB342"/>
<path d="M120.257 121.043L119.227 122.574" stroke="#7CB342" stroke-width="2" stroke-linecap="round"/>
<path d="M112.832 121.043L113.657 122.318" stroke="#7CB342" stroke-width="2" stroke-linecap="round"/>
<g filter="url(#filter0_d_127_251)">
<path d="M180.974 91.3809H139.104C137.72 91.3809 136.598 92.5028 136.598 93.8868V175.225C136.598 176.609 137.72 177.731 139.104 177.731H180.974C182.358 177.731 183.48 176.609 183.48 175.225V93.8868C183.48 92.5028 182.358 91.3809 180.974 91.3809Z" fill="#3178C6"/>
</g>
<path d="M139.925 97.5413H180.049C180.618 97.5413 181.079 98.0022 181.079 98.5708V170.541C181.079 171.11 180.618 171.571 180.049 171.571H139.925C139.357 171.571 138.896 171.11 138.896 170.541V98.5708C138.896 98.0022 139.357 97.5413 139.925 97.5413Z" fill="#CCD7EE"/>
<path d="M155.08 95.2442C155.426 95.2442 155.706 94.9637 155.706 94.6177C155.706 94.2717 155.426 93.9912 155.08 93.9912C154.734 93.9912 154.453 94.2717 154.453 94.6177C154.453 94.9637 154.734 95.2442 155.08 95.2442Z" fill="white"/>
<path d="M163.678 94.0956H157.654C157.385 94.0956 157.168 94.313 157.168 94.5811V94.7586C157.168 95.0268 157.385 95.2442 157.654 95.2442H163.678C163.946 95.2442 164.164 95.0268 164.164 94.7586V94.5811C164.164 94.313 163.946 94.0956 163.678 94.0956Z" fill="white"/>
<path d="M165.17 131.182C165.161 129.649 165.842 128.494 167.217 127.642C166.448 126.519 165.285 125.901 163.751 125.782C162.299 125.665 160.711 126.645 160.129 126.645C159.515 126.645 158.109 125.822 157.003 125.822C154.721 125.858 152.295 127.678 152.295 131.382C152.295 132.477 152.491 133.607 152.883 134.772C153.408 136.304 155.298 140.06 157.27 139.999C158.301 139.975 159.03 139.253 160.372 139.253C161.674 139.253 162.348 139.999 163.498 139.999C165.487 139.97 167.197 136.556 167.695 135.019C165.027 133.735 165.17 131.261 165.17 131.182V131.182ZM162.855 124.327C163.972 122.974 163.87 121.743 163.837 121.3C162.85 121.358 161.709 121.985 161.059 122.756C160.343 123.583 159.922 124.606 160.013 125.759C161.079 125.842 162.053 125.283 162.855 124.327V124.327Z" fill="#7F8992"/>
</g>
<defs>
<filter id="filter0_d_127_251" x="132.598" y="89.3809" width="50.8819" height="88.3504" filterUnits="userSpaceOnUse" color-interpolation-filters="sRGB">
<feFlood flood-opacity="0" result="BackgroundImageFix"/>
<feColorMatrix in="SourceAlpha" type="matrix" values="0 0 0 0 0 0 0 0 0 0 0 0 0 0 0 0 0 0 127 0" result="hardAlpha"/>
<feOffset dx="-4" dy="-2"/>
<feComposite in2="hardAlpha" operator="out"/>
<feColorMatrix type="matrix" values="0 0 0 0 0 0 0 0 0 0 0 0 0 0 0 0 0 0 0.1 0"/>
<feBlend mode="normal" in2="BackgroundImageFix" result="effect1_dropShadow_127_251"/>
<feBlend mode="normal" in="SourceGraphic" in2="effect1_dropShadow_127_251" result="shape"/>
</filter>
<linearGradient id="paint0_linear_127_251" x1="93.9693" y1="27.1012" x2="88.3985" y2="36.5746" gradientUnits="userSpaceOnUse">
<stop stop-color="#41873F"/>
<stop offset="0.3288" stop-color="#418B3D"/>
<stop offset="0.6352" stop-color="#419637"/>
<stop offset="0.9319" stop-color="#3FA92D"/>
<stop offset="1" stop-color="#3FAE2A"/>
</linearGradient>
<linearGradient id="paint1_linear_127_251" x1="90.7811" y1="32.1871" x2="105.846" y2="23.3292" gradientUnits="userSpaceOnUse">
<stop offset="0.1376" stop-color="#41873F"/>
<stop offset="0.4032" stop-color="#54A044"/>
<stop offset="0.7136" stop-color="#66B848"/>
<stop offset="0.9081" stop-color="#6CC04A"/>
</linearGradient>
<linearGradient id="paint2_linear_127_251" x1="85.0518" y1="31.4733" x2="98.2462" y2="31.4733" gradientUnits="userSpaceOnUse">
<stop offset="0.09192" stop-color="#6CC04A"/>
<stop offset="0.2864" stop-color="#66B848"/>
<stop offset="0.5968" stop-color="#54A044"/>
<stop offset="0.8624" stop-color="#41873F"/>
</linearGradient>
<linearGradient id="paint3_linear_127_251" x1="85.0519" y1="36.5267" x2="98.2461" y2="36.5267" gradientUnits="userSpaceOnUse">
<stop offset="0.09192" stop-color="#6CC04A"/>
<stop offset="0.2864" stop-color="#66B848"/>
<stop offset="0.5968" stop-color="#54A044"/>
<stop offset="0.8624" stop-color="#41873F"/>
</linearGradient>
<linearGradient id="paint4_linear_127_251" x1="100.168" y1="26.813" x2="97.2998" y2="43.0805" gradientUnits="userSpaceOnUse">
<stop stop-color="#41873F"/>
<stop offset="0.3288" stop-color="#418B3D"/>
<stop offset="0.6352" stop-color="#419637"/>
<stop offset="0.9319" stop-color="#3FA92D"/>
<stop offset="1" stop-color="#3FAE2A"/>
</linearGradient>
<linearGradient id="paint5_linear_127_251" x1="69.2841" y1="111.76" x2="69.2841" y2="122.38" gradientUnits="userSpaceOnUse">
<stop stop-color="#86BBE5"/>
<stop offset="1" stop-color="#1072BA"/>
</linearGradient>
<clipPath id="clip0_127_251">
<rect width="200" height="200" fill="white"/>
</clipPath>
<clipPath id="clip1_127_251">
<rect width="60" height="34" fill="white" transform="translate(69.4949 17)"/>
</clipPath>
<clipPath id="clip2_127_251">
<rect width="29.8595" height="29.8595" fill="white" transform="translate(54.4162 102.203)"/>
</clipPath>
</defs>
</svg>
