<svg width="206" height="206" viewBox="0 0 206 206" fill="none" xmlns="http://www.w3.org/2000/svg">
<g clip-path="url(#clip0_302_127)">
<path fill-rule="evenodd" clip-rule="evenodd" d="M19.6164 50.5C20.1991 50.5 20.774 50.5332 21.34 50.5959C21.34 50.5638 21.3388 50.532 21.3388 50.5C21.3388 33.1031 35.3224 19 52.5719 19C65.3615 19 76.3536 26.7543 81.1837 37.8543C82.4087 37.6416 83.668 37.5294 84.9531 37.5294C97.1294 37.5294 107 47.4845 107 59.7647C107 72.0449 97.1294 82 84.9531 82H19.6164C10.9916 82 4 74.9485 4 66.2499C4 57.5516 10.9916 50.5 19.6164 50.5Z" fill="#FAAD14"/>
<path fill-rule="evenodd" clip-rule="evenodd" d="M171.132 92.5C170.017 92.5 168.918 92.5628 167.835 92.6814C167.835 92.6208 167.837 92.5606 167.837 92.5C167.837 59.6389 141.092 33 108.1 33C83.6387 33 62.6149 47.6468 53.3767 68.614C51.0338 68.212 48.6254 68 46.1672 68C22.8788 68 4 86.804 4 110C4 133.196 22.8788 152 46.1672 152H171.132C187.628 152 201 138.681 201 122.25C201 105.819 187.628 92.5 171.132 92.5Z" fill="#3178C6"/>
<path d="M150.95 177.84H48.05C52.4444 189.444 118.556 189.444 150.95 177.84ZM150.95 152.85H48.05L48.0529 181.099C48.0529 186.606 57.411 191.069 68.9549 191.069L126.833 191.07V191.069C140.154 191.069 150.947 185.919 150.947 179.566C150.947 193.349 150.95 152.85 150.95 152.85ZM150.95 133.74H48.05C48.05 133.74 48.0529 168.357 48.0529 156.109C48.0529 161.616 56.9935 166.079 68.0199 166.079V166.08H125.754V166.079C139.672 166.079 150.949 160.929 150.949 154.576L150.95 133.74Z" fill="#DADFE1"/>
<path d="M136.444 192.167C141.821 189.6 141.889 192.167 151.222 184.842V130.333H136.444V192.167ZM48.1667 186.333C50.5 189.444 55.9444 192.167 62.5556 192.167V132.773H47.7778L48.1667 186.333Z" fill="#E1E5E7"/>
<path d="M131.381 121.241C129.972 114.242 117.754 108.75 102.716 108.75C91.0784 108.75 81.1147 111.724 76.521 116.451C75.1392 116.241 73.6986 116.097 72.1727 116.097C64.1803 116.097 57.702 119.51 57.702 123.321C57.702 124.079 57.8814 125.254 58.3547 125.934C52.1395 127.663 48.0544 130.377 48.0544 134.056C48.0544 139.563 57.4124 144.026 68.9563 144.026V144.03H126.835V144.029C140.156 144.029 150.949 138.879 150.949 132.524C150.947 126.915 142.523 122.256 131.381 121.241Z" fill="#F2F1EF"/>
<path d="M104.645 151.38C104.355 151.38 104.069 151.437 103.801 151.548C103.533 151.659 103.29 151.822 103.086 152.027C102.881 152.231 102.718 152.475 102.608 152.742C102.497 153.01 102.44 153.297 102.44 153.586C102.44 153.876 102.497 154.163 102.608 154.431C102.719 154.698 102.882 154.941 103.087 155.146C103.291 155.351 103.535 155.513 103.802 155.624C104.07 155.735 104.357 155.792 104.646 155.791C105.231 155.791 105.792 155.559 106.206 155.145C106.619 154.731 106.852 154.17 106.851 153.585C106.851 153 106.619 152.439 106.205 152.026C105.791 151.612 105.23 151.38 104.645 151.38ZM104.645 176.37C104.355 176.37 104.069 176.427 103.801 176.538C103.533 176.649 103.29 176.812 103.086 177.017C102.881 177.221 102.718 177.465 102.608 177.732C102.497 178 102.44 178.287 102.44 178.576C102.44 178.866 102.497 179.153 102.608 179.421C102.719 179.688 102.882 179.931 103.087 180.136C103.291 180.341 103.535 180.503 103.802 180.614C104.07 180.725 104.357 180.782 104.646 180.781C105.231 180.781 105.792 180.549 106.206 180.135C106.619 179.721 106.852 179.16 106.851 178.575C106.851 177.99 106.619 177.429 106.205 177.016C105.791 176.602 105.23 176.37 104.645 176.37Z" fill="#9ECEC7"/>
<path d="M113.465 151.38C112.88 151.38 112.319 151.613 111.906 152.027C111.492 152.44 111.26 153.001 111.26 153.586C111.26 154.171 111.493 154.732 111.907 155.146C112.32 155.559 112.881 155.792 113.466 155.791C114.051 155.791 114.612 155.559 115.026 155.145C115.439 154.731 115.672 154.17 115.671 153.585C115.671 153 115.439 152.439 115.025 152.026C114.611 151.612 114.05 151.38 113.465 151.38ZM122.285 155.79C122.575 155.79 122.861 155.733 123.129 155.622C123.397 155.511 123.64 155.348 123.844 155.143C124.049 154.939 124.212 154.695 124.322 154.428C124.433 154.16 124.49 153.873 124.49 153.584C124.49 153.294 124.433 153.007 124.322 152.739C124.211 152.472 124.048 152.229 123.843 152.024C123.639 151.819 123.395 151.657 123.128 151.546C122.86 151.435 122.573 151.378 122.284 151.379C121.699 151.379 121.138 151.611 120.724 152.025C120.311 152.439 120.078 153 120.079 153.585C120.079 154.17 120.311 154.731 120.725 155.144C121.139 155.558 121.7 155.79 122.285 155.79ZM113.465 176.37C113.175 176.37 112.889 176.427 112.621 176.538C112.353 176.649 112.11 176.812 111.906 177.017C111.701 177.221 111.538 177.465 111.428 177.732C111.317 178 111.26 178.287 111.26 178.576C111.26 178.866 111.317 179.153 111.428 179.421C111.539 179.688 111.702 179.931 111.907 180.136C112.111 180.341 112.355 180.503 112.622 180.614C112.89 180.725 113.177 180.782 113.466 180.781C114.051 180.781 114.612 180.549 115.026 180.135C115.439 179.721 115.672 179.16 115.671 178.575C115.671 177.99 115.439 177.429 115.025 177.016C114.611 176.602 114.05 176.37 113.465 176.37ZM122.285 176.37C121.995 176.37 121.709 176.427 121.441 176.538C121.173 176.649 120.93 176.812 120.726 177.017C120.521 177.221 120.358 177.465 120.248 177.732C120.137 178 120.08 178.287 120.08 178.576C120.08 178.866 120.137 179.153 120.248 179.421C120.359 179.688 120.522 179.931 120.727 180.136C120.931 180.341 121.175 180.503 121.442 180.614C121.71 180.725 121.997 180.782 122.286 180.781C122.871 180.781 123.432 180.549 123.846 180.135C124.259 179.721 124.492 179.16 124.491 178.575C124.491 177.99 124.259 177.429 123.845 177.016C123.431 176.602 122.87 176.37 122.285 176.37Z" fill="#3DB39E"/>
<path d="M92.15 149.91H70.1C69.7101 149.91 69.3362 150.065 69.0606 150.341C68.7849 150.616 68.63 150.99 68.63 151.38V152.85C68.63 153.24 68.7849 153.614 69.0606 153.889C69.3362 154.165 69.7101 154.32 70.1 154.32H92.15C92.343 154.32 92.5342 154.282 92.7125 154.208C92.8909 154.134 93.0529 154.026 93.1894 153.889C93.326 153.753 93.4342 153.591 93.5081 153.413C93.582 153.234 93.62 153.043 93.62 152.85V151.38C93.62 151.187 93.582 150.996 93.5081 150.817C93.4342 150.639 93.326 150.477 93.1894 150.341C93.0529 150.204 92.8909 150.096 92.7125 150.022C92.5342 149.948 92.343 149.91 92.15 149.91ZM92.15 155.79H70.1C69.7101 155.79 69.3362 155.945 69.0606 156.221C68.7849 156.496 68.63 156.87 68.63 157.26V158.73C68.63 159.12 68.7849 159.494 69.0606 159.769C69.3362 160.045 69.7101 160.2 70.1 160.2H92.15C92.343 160.2 92.5342 160.162 92.7125 160.088C92.8909 160.014 93.0529 159.906 93.1894 159.769C93.326 159.633 93.4342 159.471 93.5081 159.293C93.582 159.114 93.62 158.923 93.62 158.73V157.26C93.62 157.067 93.582 156.876 93.5081 156.697C93.4342 156.519 93.326 156.357 93.1894 156.221C93.0529 156.084 92.8909 155.976 92.7125 155.902C92.5342 155.828 92.343 155.79 92.15 155.79ZM92.15 174.9H70.1C69.907 174.9 69.7158 174.938 69.5375 175.012C69.3591 175.086 69.1971 175.194 69.0606 175.331C68.924 175.467 68.8158 175.629 68.7419 175.807C68.668 175.986 68.63 176.177 68.63 176.37V177.84C68.63 178.23 68.7849 178.604 69.0606 178.879C69.3362 179.155 69.7101 179.31 70.1 179.31H92.15C92.343 179.31 92.5342 179.272 92.7125 179.198C92.8909 179.124 93.0529 179.016 93.1894 178.879C93.326 178.743 93.4342 178.581 93.5081 178.403C93.582 178.224 93.62 178.033 93.62 177.84V176.37C93.62 176.177 93.582 175.986 93.5081 175.807C93.4342 175.629 93.326 175.467 93.1894 175.331C93.0529 175.194 92.8909 175.086 92.7125 175.012C92.5342 174.938 92.343 174.9 92.15 174.9ZM92.15 180.78H70.1C69.7101 180.78 69.3362 180.935 69.0606 181.211C68.7849 181.486 68.63 181.86 68.63 182.25V183.72C68.63 184.11 68.7849 184.484 69.0606 184.759C69.3362 185.035 69.7101 185.19 70.1 185.19H92.15C92.343 185.19 92.5342 185.152 92.7125 185.078C92.8909 185.004 93.0529 184.896 93.1894 184.759C93.326 184.623 93.4342 184.461 93.5081 184.283C93.582 184.104 93.62 183.913 93.62 183.72V182.25C93.62 182.057 93.582 181.866 93.5081 181.687C93.4342 181.509 93.326 181.347 93.1894 181.211C93.0529 181.074 92.8909 180.966 92.7125 180.892C92.5342 180.818 92.343 180.78 92.15 180.78Z" fill="#C4C8CA"/>
<path d="M99.5 119.04C91.3812 119.04 84.8 121.945 84.8 126.39C84.8 130.835 91.3812 133.74 99.5 133.74C107.619 133.74 114.2 130.45 114.2 126.39C114.2 122.331 107.619 119.04 99.5 119.04ZM106.727 124.692L98.324 129.292C97.9741 129.483 97.5023 129.55 97.0466 129.521C96.5306 129.595 95.9617 129.534 95.5589 129.312L92.25 127.501C91.6414 127.169 91.6414 126.631 92.25 126.299C92.8571 125.967 93.842 125.967 94.4491 126.299L96.929 127.657L104.535 123.494C105.14 123.162 106.121 123.162 106.727 123.494C107.332 123.823 107.332 124.361 106.727 124.692Z" fill="#CECDCB"/>
<path d="M150.95 177.84L150.947 182.426V179.566C150.947 185.919 140.154 191.069 126.833 191.069V191.07H68.9549V191.069C57.411 191.069 48.0529 186.606 48.0529 181.099V183.407V177.84H48.05V186.456C51.6809 190.561 59.4763 193.274 68.9549 193.274L126.833 193.275C137.764 193.274 146.925 189.966 150.95 185.13V177.84ZM150.95 152.85L150.947 157.819V154.576C150.947 160.929 139.671 166.079 125.753 166.079V166.08H68.0185V166.079C56.992 166.079 48.0515 161.616 48.0515 156.109V158.731V152.85H48.05V161.472C51.603 165.536 59.1147 168.284 68.0185 168.284L125.753 168.285C137.361 168.284 146.843 165.026 150.95 160.146V152.85V152.85Z" fill="#AEB2B4"/>
<path d="M150.947 157.819V154.576C150.947 159.217 144.917 163.205 136.25 165.023V167.309C142.936 165.998 148.173 163.444 150.95 160.146V152.85H150.949L150.947 157.819ZM62.75 167.945V165.717C54.2843 164.561 48.0529 160.703 48.0529 156.109V158.618V152.85H48.05V161.472C50.8753 164.703 56.2085 167.096 62.75 167.945ZM150.947 182.097V179.566C150.947 184.326 144.889 188.409 136.25 190.159V192.396C142.875 191.108 148.154 188.489 150.95 185.13V177.84H150.949L150.947 182.097ZM62.75 192.858V190.622C54.2358 189.362 48.0529 185.574 48.0529 181.098V183.303V177.839H48.05V186.454C50.8504 189.624 56.1335 191.953 62.75 192.858Z" fill="#BFC2C4"/>
<path d="M150.95 152.84H48.05C52.4444 164.444 118.556 164.444 150.95 152.84ZM150.95 127.85H48.05L48.0529 156.099C48.0529 161.606 57.411 166.069 68.9549 166.069L126.833 166.07V166.069C140.154 166.069 150.947 160.919 150.947 154.566C150.947 168.349 150.95 127.85 150.95 127.85ZM150.95 108.74H48.05C48.05 108.74 48.0529 143.357 48.0529 131.109C48.0529 136.616 56.9935 141.079 68.0199 141.079V141.08H125.754V141.079C139.672 141.079 150.949 135.929 150.949 129.576L150.95 108.74Z" fill="#DADFE1"/>
<path d="M136.444 167.167C141.821 164.6 141.889 167.167 151.222 159.842V105.333H136.444V167.167ZM48.1667 161.333C50.5 164.444 55.9444 167.167 62.5556 167.167V107.773H47.7778L48.1667 161.333Z" fill="#E1E5E7"/>
<path d="M131.381 96.2406C129.972 89.2419 117.754 83.75 102.716 83.75C91.0784 83.75 81.1147 86.7238 76.521 91.4513C75.1392 91.2411 73.6986 91.0971 72.1727 91.0971C64.1803 91.0971 57.702 94.5104 57.702 98.3206C57.702 99.0792 57.8814 100.254 58.3547 100.934C52.1395 102.663 48.0544 105.377 48.0544 109.056C48.0544 114.563 57.4124 119.026 68.9563 119.026V119.03H126.835V119.029C140.156 119.029 150.949 113.879 150.949 107.524C150.947 101.915 142.523 97.2564 131.381 96.2406Z" fill="#F2F1EF"/>
<path d="M104.645 126.38C104.355 126.38 104.069 126.437 103.801 126.548C103.533 126.659 103.29 126.822 103.086 127.027C102.881 127.231 102.718 127.475 102.608 127.742C102.497 128.01 102.44 128.297 102.44 128.586C102.44 128.876 102.497 129.163 102.608 129.431C102.719 129.698 102.882 129.941 103.087 130.146C103.291 130.351 103.535 130.513 103.802 130.624C104.07 130.735 104.357 130.792 104.646 130.791C105.231 130.791 105.792 130.559 106.206 130.145C106.619 129.731 106.852 129.17 106.851 128.585C106.851 128 106.619 127.439 106.205 127.026C105.791 126.612 105.23 126.38 104.645 126.38ZM104.645 151.37C104.355 151.37 104.069 151.427 103.801 151.538C103.533 151.649 103.29 151.812 103.086 152.017C102.881 152.221 102.718 152.465 102.608 152.732C102.497 153 102.44 153.287 102.44 153.576C102.44 153.866 102.497 154.153 102.608 154.421C102.719 154.688 102.882 154.931 103.087 155.136C103.291 155.341 103.535 155.503 103.802 155.614C104.07 155.725 104.357 155.782 104.646 155.781C105.231 155.781 105.792 155.549 106.206 155.135C106.619 154.721 106.852 154.16 106.851 153.575C106.851 152.99 106.619 152.429 106.205 152.016C105.791 151.602 105.23 151.37 104.645 151.37Z" fill="#9ECEC7"/>
<path d="M113.465 126.38C112.88 126.38 112.319 126.613 111.906 127.027C111.492 127.44 111.26 128.001 111.26 128.586C111.26 129.171 111.493 129.732 111.907 130.146C112.32 130.559 112.881 130.792 113.466 130.791C114.051 130.791 114.612 130.559 115.026 130.145C115.439 129.731 115.672 129.17 115.671 128.585C115.671 128 115.439 127.439 115.025 127.026C114.611 126.612 114.05 126.38 113.465 126.38ZM122.285 130.79C122.575 130.79 122.861 130.733 123.129 130.622C123.397 130.511 123.64 130.348 123.844 130.143C124.049 129.939 124.212 129.695 124.322 129.428C124.433 129.16 124.49 128.873 124.49 128.584C124.49 128.294 124.433 128.007 124.322 127.739C124.211 127.472 124.048 127.229 123.843 127.024C123.639 126.819 123.395 126.657 123.128 126.546C122.86 126.435 122.573 126.378 122.284 126.379C121.699 126.379 121.138 126.611 120.724 127.025C120.311 127.439 120.078 128 120.079 128.585C120.079 129.17 120.311 129.731 120.725 130.144C121.139 130.558 121.7 130.79 122.285 130.79ZM113.465 151.37C113.175 151.37 112.889 151.427 112.621 151.538C112.353 151.649 112.11 151.812 111.906 152.017C111.701 152.221 111.538 152.465 111.428 152.732C111.317 153 111.26 153.287 111.26 153.576C111.26 153.866 111.317 154.153 111.428 154.421C111.539 154.688 111.702 154.931 111.907 155.136C112.111 155.341 112.355 155.503 112.622 155.614C112.89 155.725 113.177 155.782 113.466 155.781C114.051 155.781 114.612 155.549 115.026 155.135C115.439 154.721 115.672 154.16 115.671 153.575C115.671 152.99 115.439 152.429 115.025 152.016C114.611 151.602 114.05 151.37 113.465 151.37ZM122.285 151.37C121.995 151.37 121.709 151.427 121.441 151.538C121.173 151.649 120.93 151.812 120.726 152.017C120.521 152.221 120.358 152.465 120.248 152.732C120.137 153 120.08 153.287 120.08 153.576C120.08 153.866 120.137 154.153 120.248 154.421C120.359 154.688 120.522 154.931 120.727 155.136C120.931 155.341 121.175 155.503 121.442 155.614C121.71 155.725 121.997 155.782 122.286 155.781C122.871 155.781 123.432 155.549 123.846 155.135C124.259 154.721 124.492 154.16 124.491 153.575C124.491 152.99 124.259 152.429 123.845 152.016C123.431 151.602 122.87 151.37 122.285 151.37Z" fill="#3DB39E"/>
<path d="M92.15 124.91H70.1C69.7101 124.91 69.3362 125.065 69.0606 125.341C68.7849 125.616 68.63 125.99 68.63 126.38V127.85C68.63 128.24 68.7849 128.614 69.0606 128.889C69.3362 129.165 69.7101 129.32 70.1 129.32H92.15C92.343 129.32 92.5342 129.282 92.7125 129.208C92.8909 129.134 93.0529 129.026 93.1894 128.889C93.326 128.753 93.4342 128.591 93.5081 128.413C93.582 128.234 93.62 128.043 93.62 127.85V126.38C93.62 126.187 93.582 125.996 93.5081 125.817C93.4342 125.639 93.326 125.477 93.1894 125.341C93.0529 125.204 92.8909 125.096 92.7125 125.022C92.5342 124.948 92.343 124.91 92.15 124.91ZM92.15 130.79H70.1C69.7101 130.79 69.3362 130.945 69.0606 131.221C68.7849 131.496 68.63 131.87 68.63 132.26V133.73C68.63 134.12 68.7849 134.494 69.0606 134.769C69.3362 135.045 69.7101 135.2 70.1 135.2H92.15C92.343 135.2 92.5342 135.162 92.7125 135.088C92.8909 135.014 93.0529 134.906 93.1894 134.769C93.326 134.633 93.4342 134.471 93.5081 134.293C93.582 134.114 93.62 133.923 93.62 133.73V132.26C93.62 132.067 93.582 131.876 93.5081 131.697C93.4342 131.519 93.326 131.357 93.1894 131.221C93.0529 131.084 92.8909 130.976 92.7125 130.902C92.5342 130.828 92.343 130.79 92.15 130.79ZM92.15 149.9H70.1C69.907 149.9 69.7158 149.938 69.5375 150.012C69.3591 150.086 69.1971 150.194 69.0606 150.331C68.924 150.467 68.8158 150.629 68.7419 150.807C68.668 150.986 68.63 151.177 68.63 151.37V152.84C68.63 153.23 68.7849 153.604 69.0606 153.879C69.3362 154.155 69.7101 154.31 70.1 154.31H92.15C92.343 154.31 92.5342 154.272 92.7125 154.198C92.8909 154.124 93.0529 154.016 93.1894 153.879C93.326 153.743 93.4342 153.581 93.5081 153.403C93.582 153.224 93.62 153.033 93.62 152.84V151.37C93.62 151.177 93.582 150.986 93.5081 150.807C93.4342 150.629 93.326 150.467 93.1894 150.331C93.0529 150.194 92.8909 150.086 92.7125 150.012C92.5342 149.938 92.343 149.9 92.15 149.9ZM92.15 155.78H70.1C69.7101 155.78 69.3362 155.935 69.0606 156.211C68.7849 156.486 68.63 156.86 68.63 157.25V158.72C68.63 159.11 68.7849 159.484 69.0606 159.759C69.3362 160.035 69.7101 160.19 70.1 160.19H92.15C92.343 160.19 92.5342 160.152 92.7125 160.078C92.8909 160.004 93.0529 159.896 93.1894 159.759C93.326 159.623 93.4342 159.461 93.5081 159.283C93.582 159.104 93.62 158.913 93.62 158.72V157.25C93.62 157.057 93.582 156.866 93.5081 156.687C93.4342 156.509 93.326 156.347 93.1894 156.211C93.0529 156.074 92.8909 155.966 92.7125 155.892C92.5342 155.818 92.343 155.78 92.15 155.78Z" fill="#C4C8CA"/>
<path d="M99.5 94.04C91.3812 94.04 84.8 96.9447 84.8 101.39C84.8 105.835 91.3812 108.74 99.5 108.74C107.619 108.74 114.2 105.45 114.2 101.39C114.2 97.3313 107.619 94.04 99.5 94.04ZM106.727 99.6921L98.324 104.292C97.9741 104.483 97.5023 104.55 97.0466 104.521C96.5306 104.595 95.9617 104.534 95.5589 104.312L92.25 102.501C91.6414 102.169 91.6414 101.631 92.25 101.299C92.8571 100.967 93.842 100.967 94.4491 101.299L96.929 102.657L104.535 98.4941C105.14 98.1619 106.121 98.1619 106.727 98.4941C107.332 98.8234 107.332 99.3614 106.727 99.6921Z" fill="#CECDCB"/>
<path d="M150.95 152.84L150.947 157.426V154.566C150.947 160.919 140.154 166.069 126.833 166.069V166.07H68.9549V166.069C57.411 166.069 48.0529 161.606 48.0529 156.099V158.407V152.84H48.05V161.456C51.6809 165.561 59.4763 168.274 68.9549 168.274L126.833 168.275C137.764 168.274 146.925 164.966 150.95 160.13V152.84ZM150.95 127.85L150.947 132.819V129.576C150.947 135.929 139.671 141.079 125.753 141.079V141.08H68.0185V141.079C56.992 141.079 48.0515 136.616 48.0515 131.109V133.731V127.85H48.05V136.472C51.603 140.536 59.1147 143.284 68.0185 143.284L125.753 143.285C137.361 143.284 146.843 140.026 150.95 135.146V127.85V127.85Z" fill="#AEB2B4"/>
<path d="M150.947 132.819V129.576C150.947 134.217 144.917 138.205 136.25 140.023V142.309C142.936 140.998 148.173 138.444 150.95 135.146V127.85H150.949L150.947 132.819ZM62.75 142.945V140.717C54.2843 139.561 48.0529 135.703 48.0529 131.109V133.618V127.85H48.05V136.472C50.8753 139.703 56.2085 142.096 62.75 142.945ZM150.947 157.097V154.566C150.947 159.326 144.889 163.409 136.25 165.159V167.396C142.875 166.108 148.154 163.489 150.95 160.13V152.84H150.949L150.947 157.097ZM62.75 167.858V165.622C54.2358 164.362 48.0529 160.574 48.0529 156.098V158.303V152.839H48.05V161.454C50.8504 164.624 56.1335 166.953 62.75 167.858Z" fill="#BFC2C4"/>
<path fill-rule="evenodd" clip-rule="evenodd" d="M189.539 165.5C189.148 165.5 188.763 165.522 188.384 165.562C188.384 165.542 188.385 165.521 188.385 165.5C188.385 154.178 179.017 145 167.461 145C158.894 145 151.53 150.046 148.294 157.27C147.474 157.132 146.63 157.059 145.769 157.059C137.612 157.059 131 163.538 131 171.529C131 179.521 137.612 186 145.769 186H189.539C195.316 186 200 181.411 200 175.75C200 170.089 195.316 165.5 189.539 165.5Z" fill="#E4EBF7"/>
</g>
<defs>
<clipPath id="clip0_302_127">
<rect width="206" height="206" fill="white"/>
</clipPath>
</defs>
</svg>
