<svg width="272" height="62" viewBox="0 0 272 62" fill="none" xmlns="http://www.w3.org/2000/svg">
<path d="M0.911931 11.7592H19.1697V61H31.6328V11.7592H49.8906V1.36365H0.911931V11.7592ZM90.3082 18.5149H102.393C102.218 7.88637 93.4822 0.548304 80.2038 0.548304C67.1292 0.548304 57.549 7.76989 57.6072 18.6023C57.5781 27.3963 63.7805 32.434 73.8558 34.8509L80.3494 36.4815C86.843 38.054 90.4538 39.9176 90.4829 43.9361C90.4538 48.304 86.3189 51.2741 79.9126 51.2741C73.3608 51.2741 68.6435 48.2457 68.2358 42.2763H56.0348C56.3551 55.1761 65.5859 61.8445 80.0582 61.8445C94.6179 61.8445 103.179 54.8849 103.208 43.9652C103.179 34.0355 95.6953 28.7649 85.3288 26.4354L79.9709 25.1541C74.7876 23.9602 70.4488 22.0384 70.5362 17.7578C70.5362 13.9141 73.9432 11.0895 80.1165 11.0895C86.1442 11.0895 89.8423 13.8267 90.3082 18.5149ZM111.689 61H124.298V39.8594H133.499L144.798 61H158.717L146.05 37.821C152.835 34.9091 156.591 28.9979 156.591 20.8445C156.591 8.9929 148.758 1.36365 135.217 1.36365H111.689V61ZM124.298 29.7259V11.6719H132.801C140.08 11.6719 143.604 14.9041 143.604 20.8445C143.604 26.7557 140.08 29.7259 132.859 29.7259H124.298ZM165.502 61H178.11V41.6648H188.71C202.425 41.6648 210.404 33.4822 210.404 21.5724C210.404 9.72089 202.57 1.36365 189.03 1.36365H165.502V61ZM178.11 31.5604V11.6719H186.613C193.893 11.6719 197.416 15.6321 197.416 21.5724C197.416 27.4837 193.893 31.5604 186.671 31.5604H178.11ZM271.212 22.2422C269.552 8.46876 259.127 0.548304 245.325 0.548304C229.571 0.548304 217.545 11.6719 217.545 31.1818C217.545 50.6335 229.367 61.8153 245.325 61.8153C260.613 61.8153 269.843 51.6527 271.212 40.6747L258.458 40.6165C257.264 46.9936 252.255 50.6626 245.529 50.6626C236.473 50.6626 230.328 43.9361 230.328 31.1818C230.328 18.777 236.385 11.701 245.616 11.701C252.517 11.701 257.497 15.6903 258.458 22.2422H271.212Z" fill="#3178C6"/>
</svg>
