<svg width="200" height="200" viewBox="0 0 200 200" fill="none" xmlns="http://www.w3.org/2000/svg">
<g clip-path="url(#clip0)">
<path d="M67.2183 85.2799L45.0352 101.73H155.775L133.47 85.2799H67.2183Z" fill="#E4EBF7"/>
<path d="M133.47 101.715L155.775 101.73L133.47 85.2799V101.715Z" fill="#A3B5D6"/>
<path d="M158.59 41.2914L157.471 44.1774C157.225 44.8078 157.541 45.5221 158.172 45.765C158.805 46.0109 159.517 45.6967 159.763 45.0638L160.882 42.1778C161.128 41.5448 160.814 40.8335 160.181 40.5876C160.113 40.5636 160.044 40.5422 159.975 40.5282C159.401 40.4135 158.81 40.7232 158.59 41.2914Z" fill="#50548B"/>
<path d="M108.458 154.733C107.545 157.08 108.713 159.72 111.06 160.631L115.785 162.463C118.132 163.371 120.772 162.208 121.68 159.86L160.128 60.689L146.904 55.5616L108.458 154.733Z" fill="#6FCF97"/>
<path d="M156.782 44.0137L146.904 55.5616L160.135 60.6929L160.412 45.4089C160.416 45.0882 160.221 44.7949 159.919 44.6827L157.637 43.7983C157.596 43.7823 157.554 43.7713 157.512 43.7628C157.245 43.7095 156.965 43.8012 156.782 44.0137Z" fill="#E4EBF7"/>
<path d="M67.1719 57.423L86.0792 165.648C86.5115 168.125 88.8743 169.786 91.3515 169.351L99.77 167.881C102.247 167.446 103.908 165.086 103.473 162.608L84.5684 54.3837L67.1719 57.423Z" fill="#FFA940"/>
<path d="M69.7228 39.0627L67.1744 57.4334L84.5684 54.394L76.4271 37.8928L69.7228 39.0627Z" fill="#FFE7BA"/>
<path d="M71.7191 31.0076C71.5665 31.0331 71.4445 31.1551 71.4165 31.3077L69.9362 39.037L76.2946 37.9256L72.1134 31.1806C72.0421 31.0687 71.9201 31 71.7904 31C71.7649 31 71.742 31.0025 71.7191 31.0076Z" fill="#253368"/>
<path d="M72.4211 56.5686L92.1016 169.221L99.2026 167.98L79.5247 55.3249L72.4211 56.5686Z" fill="#FE9921"/>
<path d="M121.497 48.7224L90.8081 154.213C90.1053 156.627 91.4951 159.159 93.9107 159.86L102.116 162.248C104.532 162.948 107.062 161.561 107.763 159.145L138.454 53.6554L121.497 48.7224Z" fill="#FFC0C0"/>
<path d="M131.873 33.3621L121.495 48.7328L138.45 53.6647L138.408 35.2644L131.873 33.3621Z" fill="#FFE7BA"/>
<path d="M137.213 27.0095C137.065 26.9652 136.902 27.021 136.809 27.1457L132.076 33.4331L138.274 35.2355L137.491 27.3384C137.476 27.2066 137.397 27.0912 137.281 27.0341C137.258 27.0229 137.236 27.0151 137.213 27.0095Z" fill="#253368"/>
<path d="M126.586 50.2671L94.6412 160.074L101.563 162.087L133.511 52.2791L126.586 50.2671Z" fill="#F89595"/>
<path d="M93.4404 159.312L93.1402 167.931C93.0461 170.597 95.1317 172.832 97.7971 172.924C100.463 173.018 102.698 170.932 102.792 168.269L103.09 159.647L93.4429 159.312H93.4404Z" fill="#253368"/>
<path d="M90.1949 23.5812L90.6104 26.6486C90.7004 27.3191 91.3226 27.7915 91.9924 27.6991C92.6653 27.6083 93.136 26.9893 93.0452 26.3164L92.6297 23.2489C92.5389 22.576 91.9199 22.1053 91.247 22.196C91.176 22.2079 91.1058 22.2221 91.038 22.2437C90.4804 22.4206 90.1127 22.9775 90.1949 23.5812Z" fill="#50548B"/>
<path d="M101.161 147.121C101.496 149.616 103.796 151.363 106.29 151.025L111.312 150.344C113.806 150.004 115.554 147.71 115.214 145.216L100.92 39.8169L86.8652 41.7227L101.161 147.121Z" fill="#3178C6"/>
<path d="M89.9286 26.8383L86.8651 41.7228L100.928 39.8171L93.7804 26.3046C93.6293 26.0217 93.3163 25.8595 92.9979 25.9071L90.5728 26.2363C90.5293 26.2421 90.4873 26.2528 90.4461 26.2658C90.1867 26.3481 89.9857 26.564 89.9286 26.8383Z" fill="#E4EBF7"/>
<path d="M42.782 44.5153L37.9751 47.8572C37.4257 48.2387 37.2222 48.956 37.4893 49.5689L40.404 56.2427C40.7117 56.9548 41.5408 57.2778 42.253 56.9675L47.5152 54.6709C48.2273 54.358 48.5529 53.5315 48.2426 52.8193L44.8752 45.1028C44.7073 44.7187 44.3741 44.4288 43.9672 44.3143C43.8451 44.2813 43.7154 44.2635 43.5908 44.2635C43.3034 44.2635 43.0236 44.3474 42.782 44.5153Z" fill="#FF7946"/>
<path d="M41.9704 75.1754L78.4116 158.663L98.1251 150.059L61.6839 66.5712L41.9704 75.1754Z" fill="#FF7946"/>
<path d="M41.9704 75.1754L45.1623 82.4824L64.8758 73.8808L61.6839 66.5712L41.9704 75.1754Z" fill="#253368"/>
<path d="M39.5212 55.0496L40.0095 70.676L41.9705 75.1752L61.684 66.571L59.7358 62.1074L47.9855 51.3541L39.5212 55.0496Z" fill="#E4EBF7"/>
<path d="M40.0045 70.7547L41.968 75.2513L61.6789 66.6446L59.7155 62.1505L40.0045 70.7547Z" fill="#F5F5F5"/>
<path d="M45.3281 121.81V174.803C45.3281 177.09 47.1822 178.944 49.4687 178.944H151.582C153.868 178.944 155.722 177.09 155.722 174.803V121.81H45.3281Z" fill="#3178C6"/>
<path d="M45.3275 109.724V140.6L155.722 131.795V109.724H45.3275Z" fill="#3D60E0"/>
<path d="M45.0428 101.73L34.2717 125.427C33.8622 126.284 33.9182 127.288 34.4218 128.092C34.9279 128.893 35.8105 129.382 36.7566 129.384H163.886C164.855 129.384 165.755 128.875 166.254 128.044C166.752 127.212 166.78 126.18 166.328 125.328L155.775 101.73H45.0428Z" fill="#E4EBF7"/>
<path d="M71.9688 152.219H68.4219V162H66.4609V152.219H62.9453V150.625H71.9688V152.219ZM75.6016 159.281L77.3203 153.547H79.3438L75.9844 163.281C75.4688 164.703 74.5938 165.414 73.3594 165.414C73.0833 165.414 72.7786 165.367 72.4453 165.273V163.805L72.8047 163.828C73.2839 163.828 73.6432 163.74 73.8828 163.563C74.1276 163.391 74.3203 163.099 74.4609 162.688L74.7344 161.961L71.7656 153.547H73.8125L75.6016 159.281ZM87.8438 157.859C87.8438 159.167 87.5469 160.211 86.9531 160.992C86.3594 161.768 85.5625 162.156 84.5625 162.156C83.6354 162.156 82.8932 161.852 82.3359 161.242V165.25H80.4375V153.547H82.1875L82.2656 154.406C82.8229 153.729 83.5807 153.391 84.5391 153.391C85.5703 153.391 86.3776 153.776 86.9609 154.547C87.5495 155.313 87.8438 156.378 87.8438 157.742V157.859ZM85.9531 157.695C85.9531 156.852 85.7839 156.182 85.4453 155.688C85.112 155.193 84.6328 154.945 84.0078 154.945C83.2318 154.945 82.6745 155.266 82.3359 155.906V159.656C82.6797 160.313 83.2422 160.641 84.0234 160.641C84.6276 160.641 85.099 160.398 85.4375 159.914C85.7812 159.424 85.9531 158.685 85.9531 157.695ZM93.1797 162.156C91.9766 162.156 91 161.779 90.25 161.023C89.5052 160.263 89.1328 159.253 89.1328 157.992V157.758C89.1328 156.914 89.2943 156.161 89.6172 155.5C89.9453 154.833 90.4036 154.315 90.9922 153.945C91.5807 153.576 92.237 153.391 92.9609 153.391C94.112 153.391 95 153.758 95.625 154.492C96.2552 155.227 96.5703 156.266 96.5703 157.609V158.375H91.0469C91.1042 159.073 91.3359 159.625 91.7422 160.031C92.1536 160.438 92.6693 160.641 93.2891 160.641C94.1589 160.641 94.8672 160.289 95.4141 159.586L96.4375 160.563C96.099 161.068 95.6458 161.461 95.0781 161.742C94.5156 162.018 93.8828 162.156 93.1797 162.156ZM92.9531 154.914C92.4323 154.914 92.0104 155.096 91.6875 155.461C91.3698 155.826 91.1667 156.333 91.0781 156.984H94.6953V156.844C94.6536 156.208 94.4844 155.729 94.1875 155.406C93.8906 155.078 93.4792 154.914 92.9531 154.914ZM104.18 159.07C104.18 158.57 104.003 158.185 103.648 157.914C103.299 157.643 102.667 157.37 101.75 157.094C100.833 156.818 100.104 156.51 99.5625 156.172C98.526 155.521 98.0078 154.672 98.0078 153.625C98.0078 152.708 98.3802 151.953 99.125 151.359C99.875 150.766 100.846 150.469 102.039 150.469C102.831 150.469 103.536 150.615 104.156 150.906C104.776 151.198 105.263 151.615 105.617 152.156C105.971 152.693 106.148 153.289 106.148 153.945H104.18C104.18 153.352 103.992 152.888 103.617 152.555C103.247 152.216 102.716 152.047 102.023 152.047C101.378 152.047 100.875 152.185 100.516 152.461C100.161 152.737 99.9844 153.122 99.9844 153.617C99.9844 154.034 100.177 154.383 100.562 154.664C100.948 154.94 101.583 155.211 102.469 155.477C103.354 155.737 104.065 156.036 104.602 156.375C105.138 156.708 105.531 157.094 105.781 157.531C106.031 157.964 106.156 158.471 106.156 159.055C106.156 160.003 105.792 160.758 105.062 161.32C104.339 161.878 103.354 162.156 102.109 162.156C101.286 162.156 100.529 162.005 99.8359 161.703C99.1484 161.396 98.612 160.974 98.2266 160.438C97.8464 159.901 97.6562 159.276 97.6562 158.563H99.6328C99.6328 159.208 99.8464 159.708 100.273 160.063C100.701 160.417 101.312 160.594 102.109 160.594C102.797 160.594 103.312 160.456 103.656 160.18C104.005 159.898 104.18 159.529 104.18 159.07ZM111.18 160.641C111.654 160.641 112.047 160.503 112.359 160.227C112.672 159.951 112.839 159.609 112.859 159.203H114.648C114.628 159.729 114.464 160.221 114.156 160.68C113.849 161.133 113.432 161.492 112.906 161.758C112.38 162.023 111.812 162.156 111.203 162.156C110.021 162.156 109.083 161.773 108.391 161.008C107.698 160.242 107.352 159.185 107.352 157.836V157.641C107.352 156.354 107.695 155.326 108.383 154.555C109.07 153.779 110.008 153.391 111.195 153.391C112.201 153.391 113.018 153.685 113.648 154.273C114.284 154.857 114.617 155.625 114.648 156.578H112.859C112.839 156.094 112.672 155.695 112.359 155.383C112.052 155.07 111.659 154.914 111.18 154.914C110.565 154.914 110.091 155.138 109.758 155.586C109.424 156.029 109.255 156.703 109.25 157.609V157.914C109.25 158.831 109.414 159.516 109.742 159.969C110.076 160.417 110.555 160.641 111.18 160.641ZM120.508 155.281C120.258 155.24 120 155.219 119.734 155.219C118.865 155.219 118.279 155.552 117.977 156.219V162H116.078V153.547H117.891L117.938 154.492C118.396 153.758 119.031 153.391 119.844 153.391C120.115 153.391 120.339 153.427 120.516 153.5L120.508 155.281ZM123.727 162H121.828V153.547H123.727V162ZM121.711 151.352C121.711 151.06 121.802 150.818 121.984 150.625C122.172 150.432 122.438 150.336 122.781 150.336C123.125 150.336 123.391 150.432 123.578 150.625C123.766 150.818 123.859 151.06 123.859 151.352C123.859 151.638 123.766 151.878 123.578 152.07C123.391 152.258 123.125 152.352 122.781 152.352C122.438 152.352 122.172 152.258 121.984 152.07C121.802 151.878 121.711 151.638 121.711 151.352ZM133.203 157.859C133.203 159.167 132.906 160.211 132.312 160.992C131.719 161.768 130.922 162.156 129.922 162.156C128.995 162.156 128.253 161.852 127.695 161.242V165.25H125.797V153.547H127.547L127.625 154.406C128.182 153.729 128.94 153.391 129.898 153.391C130.93 153.391 131.737 153.776 132.32 154.547C132.909 155.313 133.203 156.378 133.203 157.742V157.859ZM131.312 157.695C131.312 156.852 131.143 156.182 130.805 155.688C130.471 155.193 129.992 154.945 129.367 154.945C128.591 154.945 128.034 155.266 127.695 155.906V159.656C128.039 160.313 128.602 160.641 129.383 160.641C129.987 160.641 130.458 160.398 130.797 159.914C131.141 159.424 131.312 158.685 131.312 157.695ZM137.195 151.492V153.547H138.688V154.953H137.195V159.672C137.195 159.995 137.258 160.229 137.383 160.375C137.513 160.516 137.742 160.586 138.07 160.586C138.289 160.586 138.51 160.56 138.734 160.508V161.977C138.302 162.096 137.885 162.156 137.484 162.156C136.026 162.156 135.297 161.352 135.297 159.742V154.953H133.906V153.547H135.297V151.492H137.195Z" fill="white"/>
</g>
<defs>
<clipPath id="clip0">
<rect width="200" height="200" fill="white"/>
</clipPath>
</defs>
</svg>
