<svg width="265" height="331" viewBox="0 0 265 331" fill="none" xmlns="http://www.w3.org/2000/svg">
<rect width="265" height="331" fill="#F2F2F2"/>
<rect x="45" y="30" width="171.242" height="52.8862" rx="26.4431" fill="#3178C6"/>
<path d="M106.523 64.8758C109.573 64.8758 111.43 63.0571 111.43 60.8217C111.43 58.7757 110.236 57.7527 108.588 57.0518L106.675 56.2372C105.538 55.7825 104.42 55.3279 104.42 54.1154C104.42 53.0167 105.348 52.3347 106.769 52.3347C108.001 52.3347 108.967 52.8083 109.838 53.585L110.994 52.1831C109.933 51.1033 108.398 50.4213 106.769 50.4213C104.117 50.4213 102.185 52.0694 102.185 54.267C102.185 56.294 103.681 57.3549 105.026 57.9232L106.959 58.7568C108.247 59.3251 109.194 59.7229 109.194 60.9922C109.194 62.1668 108.247 62.9624 106.561 62.9624C105.216 62.9624 103.852 62.3183 102.848 61.3143L101.56 62.8298C102.829 64.118 104.61 64.8758 106.523 64.8758ZM118.219 64.8758C119.583 64.8758 120.777 64.4211 121.743 63.777L120.985 62.3941C120.227 62.8866 119.432 63.1708 118.503 63.1708C116.704 63.1708 115.453 61.9773 115.283 59.9882H122.046C122.103 59.7229 122.16 59.3062 122.16 58.8704C122.16 55.9341 120.663 53.9449 117.897 53.9449C115.472 53.9449 113.142 56.0477 113.142 59.4198C113.142 62.8677 115.396 64.8758 118.219 64.8758ZM115.264 58.4726C115.472 56.654 116.628 55.6499 117.935 55.6499C119.451 55.6499 120.265 56.6919 120.265 58.4726H115.264ZM124.593 64.6295H126.771V58.1316C127.415 56.4835 128.438 55.8962 129.291 55.8962C129.708 55.8962 129.973 55.953 130.333 56.0667L130.731 54.1723C130.409 54.0207 130.068 53.9449 129.556 53.9449C128.438 53.9449 127.34 54.7406 126.601 56.0856H126.544L126.373 54.2101H124.593V64.6295ZM135.062 64.6295H137.582L141.181 54.2101H139.059L137.278 59.8177C136.994 60.8407 136.672 61.9015 136.369 62.9245H136.293C135.99 61.9015 135.687 60.8407 135.384 59.8177L133.603 54.2101H131.368L135.062 64.6295ZM147.32 64.8758C148.684 64.8758 149.878 64.4211 150.844 63.777L150.086 62.3941C149.328 62.8866 148.533 63.1708 147.604 63.1708C145.805 63.1708 144.554 61.9773 144.384 59.9882H151.147C151.204 59.7229 151.261 59.3062 151.261 58.8704C151.261 55.9341 149.764 53.9449 146.998 53.9449C144.573 53.9449 142.243 56.0477 142.243 59.4198C142.243 62.8677 144.497 64.8758 147.32 64.8758ZM144.365 58.4726C144.573 56.654 145.729 55.6499 147.036 55.6499C148.552 55.6499 149.366 56.6919 149.366 58.4726H144.365ZM153.694 64.6295H155.872V58.1316C156.516 56.4835 157.539 55.8962 158.392 55.8962C158.809 55.8962 159.074 55.953 159.434 56.0667L159.832 54.1723C159.509 54.0207 159.168 53.9449 158.657 53.9449C157.539 53.9449 156.441 54.7406 155.702 56.0856H155.645L155.474 54.2101H153.694V64.6295Z" fill="white"/>
<rect x="45" y="238" width="171.242" height="52.8862" rx="26.4431" fill="#3178C6"/>
<path d="M120.692 272.876C122.491 272.876 123.912 272.156 125.03 270.868L123.855 269.485C123.022 270.394 122.056 270.963 120.767 270.963C118.305 270.963 116.751 268.935 116.751 265.62C116.751 262.343 118.418 260.335 120.824 260.335C121.961 260.335 122.832 260.846 123.552 261.585L124.746 260.183C123.893 259.255 122.529 258.421 120.786 258.421C117.263 258.421 114.497 261.149 114.497 265.696C114.497 270.262 117.187 272.876 120.692 272.876ZM129.775 272.876C131.026 272.876 132.143 272.251 133.09 271.436H133.166L133.337 272.63H135.117V266.359C135.117 263.593 133.924 261.945 131.329 261.945C129.662 261.945 128.203 262.627 127.123 263.309L127.938 264.787C128.828 264.218 129.851 263.726 130.95 263.726C132.484 263.726 132.92 264.787 132.939 265.999C128.601 266.473 126.706 267.628 126.706 269.864C126.706 271.701 127.975 272.876 129.775 272.876ZM130.438 271.152C129.51 271.152 128.809 270.735 128.809 269.712C128.809 268.538 129.851 267.742 132.939 267.382V269.94C132.086 270.716 131.348 271.152 130.438 271.152ZM140.369 272.876C140.918 272.876 141.278 272.8 141.543 272.705L141.259 271.057C141.07 271.095 140.994 271.095 140.899 271.095C140.634 271.095 140.388 270.887 140.388 270.299V257.531H138.209V270.186C138.209 271.872 138.796 272.876 140.369 272.876ZM146.011 272.876C146.561 272.876 146.921 272.8 147.186 272.705L146.902 271.057C146.712 271.095 146.636 271.095 146.542 271.095C146.277 271.095 146.03 270.887 146.03 270.299V257.531H143.852V270.186C143.852 271.872 144.439 272.876 146.011 272.876Z" fill="white"/>
<rect x="45" y="134" width="171.242" height="52.8862" rx="26.4431" fill="#3178C6"/>
<path d="M85.8113 168.876C87.611 168.876 89.0318 168.156 90.1495 166.868L88.975 165.485C88.1415 166.394 87.1753 166.962 85.8871 166.962C83.4243 166.962 81.8709 164.935 81.8709 161.62C81.8709 158.343 83.538 156.335 85.9439 156.335C87.0806 156.335 87.952 156.846 88.6719 157.585L89.8654 156.183C89.0129 155.255 87.6489 154.421 85.906 154.421C82.3824 154.421 79.6165 157.149 79.6165 161.696C79.6165 166.261 82.3066 168.876 85.8113 168.876ZM96.5998 168.876C99.1762 168.876 101.506 166.887 101.506 163.42C101.506 159.953 99.1762 157.945 96.5998 157.945C94.0234 157.945 91.6932 159.953 91.6932 163.42C91.6932 166.887 94.0234 168.876 96.5998 168.876ZM96.5998 167.095C94.9706 167.095 93.9476 165.636 93.9476 163.42C93.9476 161.222 94.9706 159.745 96.5998 159.745C98.2479 159.745 99.2709 161.222 99.2709 163.42C99.2709 165.636 98.2479 167.095 96.5998 167.095ZM104.069 168.63H106.247V161.241C107.157 160.313 107.82 159.82 108.786 159.82C110.017 159.82 110.548 160.54 110.548 162.34V168.63H112.726V162.075C112.726 159.423 111.741 157.945 109.525 157.945C108.104 157.945 107.043 158.722 106.077 159.65H106.02L105.849 158.21H104.069V168.63ZM115.89 168.63H118.069V161.241C118.978 160.313 119.641 159.82 120.608 159.82C121.839 159.82 122.369 160.54 122.369 162.34V168.63H124.548V162.075C124.548 159.423 123.563 157.945 121.346 157.945C119.926 157.945 118.865 158.722 117.899 159.65H117.842L117.671 158.21H115.89V168.63ZM132.05 168.876C133.414 168.876 134.608 168.421 135.574 167.777L134.816 166.394C134.058 166.887 133.263 167.171 132.335 167.171C130.535 167.171 129.284 165.977 129.114 163.988H135.877C135.934 163.723 135.991 163.306 135.991 162.87C135.991 159.934 134.494 157.945 131.728 157.945C129.303 157.945 126.973 160.048 126.973 163.42C126.973 166.868 129.228 168.876 132.05 168.876ZM129.095 162.473C129.303 160.654 130.459 159.65 131.766 159.65C133.282 159.65 134.096 160.692 134.096 162.473H129.095ZM142.667 168.876C143.861 168.876 145.092 168.44 146.058 167.588L145.149 166.148C144.524 166.678 143.747 167.095 142.876 167.095C141.152 167.095 139.939 165.636 139.939 163.42C139.939 161.222 141.19 159.745 142.951 159.745C143.652 159.745 144.24 160.048 144.808 160.559L145.888 159.138C145.13 158.475 144.164 157.945 142.838 157.945C140.091 157.945 137.685 159.953 137.685 163.42C137.685 166.887 139.845 168.876 142.667 168.876ZM151.512 168.876C152.269 168.876 152.97 168.686 153.558 168.497L153.16 166.887C152.857 167.019 152.402 167.133 152.042 167.133C150.962 167.133 150.527 166.489 150.527 165.238V159.953H153.236V158.21H150.527V155.331H148.708L148.462 158.21L146.832 158.324V159.953H148.348V165.22C148.348 167.417 149.163 168.876 151.512 168.876ZM155.518 168.63H157.697V158.21H155.518V168.63ZM156.598 156.259C157.394 156.259 157.962 155.747 157.962 154.952C157.962 154.175 157.394 153.664 156.598 153.664C155.802 153.664 155.253 154.175 155.253 154.952C155.253 155.747 155.802 156.259 156.598 156.259ZM165.125 168.876C167.701 168.876 170.031 166.887 170.031 163.42C170.031 159.953 167.701 157.945 165.125 157.945C162.548 157.945 160.218 159.953 160.218 163.42C160.218 166.887 162.548 168.876 165.125 168.876ZM165.125 167.095C163.496 167.095 162.473 165.636 162.473 163.42C162.473 161.222 163.496 159.745 165.125 159.745C166.773 159.745 167.796 161.222 167.796 163.42C167.796 165.636 166.773 167.095 165.125 167.095ZM172.594 168.63H174.772V161.241C175.682 160.313 176.345 159.82 177.311 159.82C178.542 159.82 179.073 160.54 179.073 162.34V168.63H181.251V162.075C181.251 159.423 180.266 157.945 178.05 157.945C176.629 157.945 175.568 158.722 174.602 159.65H174.545L174.375 158.21H172.594V168.63Z" fill="white"/>
<path d="M130.293 128.707C130.683 129.098 131.317 129.098 131.707 128.707L138.071 122.343C138.462 121.953 138.462 121.319 138.071 120.929C137.681 120.538 137.047 120.538 136.657 120.929L131 126.586L125.343 120.929C124.953 120.538 124.319 120.538 123.929 120.929C123.538 121.319 123.538 121.953 123.929 122.343L130.293 128.707ZM130 89V128H132V89H130Z" fill="#3178C6"/>
<path d="M130.293 232.707C130.683 233.098 131.317 233.098 131.707 232.707L138.071 226.343C138.462 225.953 138.462 225.319 138.071 224.929C137.681 224.538 137.047 224.538 136.657 224.929L131 230.586L125.343 224.929C124.953 224.538 124.319 224.538 123.929 224.929C123.538 225.319 123.538 225.953 123.929 226.343L130.293 232.707ZM130 193V232H132V193H130Z" fill="#3178C6"/>
</svg>
